<svg  viewBox="0 0 1000 1000" >
    <g id="epidermis">
        <path d="m934.44 631.7c0.593 1.18 1.389 2.33 2.166 3.464 0.137 0.199 0.497 0.73 0.473 0.694 0.772 1.142 1.477 2.268 1.869 3.388 3.004 8.569 2.393 19.904 1.54 28.802-1.383 14.521-6.471 29.102-11.864 42.31-8.892 21.773-17.178 41.308-32.393 60.269-6.61 8.237-13.165 19.299-22.41 25.053-4.402 2.735-14.4 5.604-16.842 10.345-2.649 5.148 2.976 9.912-2.018 15.689-3.578 4.15-9.188 5.275-13.301 8.68-2.688 2.225-4.145 5.871-6.968 8.183-8.07 6.612-19.117 7.122-27.814 12.578-15.605 9.802-23.481 28.716-38.732 37.631-8.077 4.715-17.167 7.624-24.966 12.819-6.595 4.395-11.175 6.306-17.033 8.392-0.018 6e-3 -0.035 0.013-0.055 0.02 2.746 0.371 5.474 1.102 8.167 1.643 5.209 1.046 9.228 2.004 14.563 0.386 5.001-1.516 9.694-4.166 13.956-7.16 9.509-6.683 19.998-11.117 28.574-19.079 3.471-3.222 7.02-6.479 10.373-9.818 3.19-3.183 5.055-7.383 8.905-9.911 3.877-2.548 7.838-5.167 11.835-7.54 3.497-2.083 5.819-5.047 8.921-7.422 3.001-2.295 7.06-3.207 10.138-5.729 2.878-2.358 4.363-6.077 7.105-8.348 4.403-3.641 10.621-5.551 15.033-9.473 2.125-1.886 4.651-4.071 5.127-7.068 0.586-3.67-3.255-6.594-2.238-9.912 1.751-5.745 15.352-8.836 19.862-12.727 7.134-6.155 12.043-14.511 17.893-21.792 10.018-12.489 24.065-30.435 27.197-46.425 1.18-6.021 4.409-10.737 7.569-16.037 7.501-12.569 9.026-27.961 10.385-42.181 1.273-13.312-0.054-34.724-15.017-39.724z"/>
        <path d="m995.55 463.85c1.943-6.234 5.361-11.956 4.218-18.682-1.229-7.206-2.876-13.096-3.355-20.929-0.307-5.098-1.068-7.334-3.912-11.499-2.264-3.313-5.338-5.686-5.859-9.902-0.547-4.387 2.5-9.089 2.316-13.643-0.411-10.298-5.172-21.947-10.291-30.739-3.239-5.558-10.875-18.925-17.994-19.216-6.69-0.27-11.669 7.171-19.601 6.462-2.288-0.207-5.846-1.699-5.846-1.699s0.366 0.258 0.574 0.403c1.185 0.822 2.567 1.458 4.242 1.823 7.176 1.569 14.868 0.895 21.337 5.008 5.704 3.629 8.651 10.068 10.97 16.171 4.591 12.084 0.288 21.865 1.368 33.996 0.803 8.995 5.177 12.755 8.536 20.728 4.313 10.221 4.5 18.058 2.906 28.733-1.549 10.351-0.386 22.8-2.685 33.092-2.059 9.229-9.705 14.999-9.315 24.902-0.021-0.434 2.26 11.13 1.695 10.164 1.675 2.861 6.275 3.466 8.016 6.918 1.054 2.082 0.365 4.031 0.461 6.194 0.131 2.924 1.415 4.48 1.66 6.822 0.392 3.718-1.424 8.647-2.281 12.413-2.44 10.73-8.773 20.046-12.774 30.179-4.21 10.659-8.278 20.297-15.646 29.163-2.847 3.429-4.74 5.927-8.777 7.993-3.681 1.889-9.401 3.003-11.416 7.083-0.075 0.15-0.468 1.07-0.569 1.938-0.095 0.82 0.098 1.595 0.107 1.644 2.05-1.529 5.736-3.462 6.023-3.547 4.472-1.299 9.329 0.186 13.621-1.928 4.053-1.998 5.688-4.441 8.212-7.94 4.456-6.185 8.83-12.223 13.508-18.182 3.141-3.992 3.834-6.084 4.552-10.975 0.856-5.8 1.312-6.689 4.556-11.482 6.144-9.097 9.205-22.311 10.282-33.031 0.267-2.658-0.047-5.44-0.012-8.114 0.079-5.753-0.197-7.105-3.546-11.933-3.382-4.881-6.696-11.909-7.067-17.892-0.443-7.24 5.676-12.575 7.885-19.017 2.34-6.841 1.752-14.572 3.901-21.479z"/>
        <path d="m940.52 312.81c-0.875 0.796-2.247 1.163-3.89 1.273 8.549 0.743 22.227 0.669 15.756-12.418-3.05-6.163-9.968-10.792-14.94-14.896-4.783-3.948-7.684-10.592-10.02-16.276-2.33-5.67-2.238-12.121-4.51-17.783-1.152-2.878-4.504-5.728-6.604-8.092-3.275-3.692-2.881-5.172-4.555-9.599-1.687-4.475-5.157-7.946-9.073-10.419-4.433-2.794-11.37-2.486-14.937-6.204-3.255-3.394-3.35-9.363-5.708-13.34-7.395-12.446-18.874-22.017-30.985-29.611-7.058-4.425-15.225-2.556-21.706-8.786-3.004-2.881-5.159-5.986-8.65-8.394-3.461-2.384-7.43-3.871-10.393-6.961-6.396-6.664-5.865-16.49-11.101-23.671-4.586-6.294-13.987-11.86-20.873-15.495-15.444-8.162-28.202-19.22-43.477-28.192-6.132-3.599-12.706-7.071-17.8-11.958-4.835-4.634-8.647-9.586-15.24-11.893-5.443-1.906-11.672-2.142-17.214-4.012-4.899-1.653-9.578-3.893-14.656-4.579-13.388-1.81-25.463-5.607-38.589-9.476-18.216-5.372-37.237-15.121-56.52-15.932-6.242-0.262-12.594-0.181-18.584 1.014-26.051 5.204-51.301-2.824-77.535-1.52-10.69 0.529-21.633 0.427-32.223 1.502-8.862 0.899-15.167 5.565-23.426 7.717-6.609 1.722-12.489 0.616-19.222 0.368-6.839-0.256-10.707 3.439-16.697 5.97-9.469 3.996-19.279 4.716-28.287 10.131-9.223 5.543-17.884 13.17-28.881 14.811-11.633 1.734-18.593 5.625-28.549 11.039-10.963 5.965-22.673 9.648-33.265 16.632-3.056 2.011-6.277 3.199-8.881 5.817-3.286 3.293-3.78 5.481-7.984 7.385-4.074 1.845-8.331 2.914-11.821 5.89-3.74 3.19-2.869 7.059-4.913 10.679-1.798 3.179-4.946 3.944-8.387 5.055-6.769 2.188-13.863 3.156-20.641 5.265-12.011 3.735-19.919 10.992-29.742 17.946-12.703 8.989-28.159 23.038-34.898 37.228-5.217 10.985-2.324 22.496-13.235 31.536-6.487 5.373-16.39 8.972-23.271 15.855-8.403 8.408-8.774 14.156-14.206 24.884-16.207 32.025-42.712 50.789-51.902 87.391-5.164 20.577-5.667 38.806-13.587 59.053-3.452 8.83-6.68 17.77-9.067 26.956-1.772 6.815-1.865 14.707-4.371 21.189-2.944 7.607-7.137 13.632-8.8 21.945-1.438 7.166-1.954 14.49-2.317 21.777-0.398 8.032 0.128 14.627 0.508 22.763 0.375 8.082 3.191 14.605 6.575 21.626 0.095 0.198 0.192 0.393 0.288 0.599 3.941 8.128 5.246 17.42 6.337 26.293 2.161 17.529 4.007 34.793 17.91 47.354 3.595 3.249 10.19 4.184 13.13 7.965 4.377 5.637-3.494 3.828-5.315 8.953-1.688 4.757-0.808 11.21-1.646 16.122-0.936 5.502 0.297 9.134 1.974 14.472 2.409 7.673 6.916 14.042 9.55 21.468 2.688 7.594 1.751 17.138 5.292 24.394 6.918 14.188 20.411 25.532 27.016 40.436 4.626 10.44 9.009 22.76 16.011 31.909 2.809 3.663 7.026 5.776 10.406 8.867 3.675 3.363 6.652 7.381 11.355 9.434 3.456 1.499 7.024 1.688 10.256 4.29 2.929 2.35 5.271 4.765 8.337 6.824 6.196 4.158 13.729 8.246 16.946 15.063 2.822 5.988 7.657 11.663 12.395 16.836 5.044 5.495 13.456 8.798 19.375 13.42 6.232 4.863 13.815 9.384 21.223 11.625 8.843 2.666 14.228 4.184 21.146 10.754 6.231 5.927 11.887 12.389 18.02 18.277 6.318 6.068 13.882 9.55 21.328 13.967 9.021 5.348 18.121 10.746 27.026 16.306 32.131 20.029 70.542 29.179 107.55 35.277 14.81 2.438 29.204 6.124 44.217 6.707 6.063 0.236 11.059 1.743 16.695 2.019 6.474 0.324 12.348-2.06 18.73-1.13 8.424 1.227 16.253 2.774 24.724 1.682 8.249-1.069 16.536-1.784 24.839-2.233 11.33-0.604 22.726-4.896 33.897-4.889 8.471 8e-3 16.201-2.39 24.253-3.569 3.991-0.581 8.04-1.422 12.171-0.873 4.098 0.544 7.048 0.401 11.634 0.393 4.188-7e-3 7.943 1.329 11.747-0.888 3.338-1.94 4.518-4.197 7.985-5.689 3.484-1.493 6.79-2.705 10.23-4.93 11.452-7.43 21.248-13.403 34.426-17.884 3.938-1.345 5.393-2.194 8.714-4.614 2.963-2.155 4.271-3.437 8.353-2.814 5.297 0.81 12.558 4.78 15.814-1.996 1.473-3.054 1.378-6.656 2.431-9.501-0.09 0.049-0.185 0.098-0.271 0.146-0.199 0.112-3.636 2.237-3.958 2.437-2.476 1.537-5.077 2.858-9.755 3.371-8.165 0.899-14.405-0.611-22.342 3.201-8.034 3.852-17.491 6.169-24.316 11.529-5.995 4.703-11.942 7.972-18.82 11.33-8.05 3.931-17.729 6.548-26.81 7.198-8.505 0.606-16.657 1.26-24.765 2.558-4.002 0.636-8.097 0.564-12.171 0.98-13.06 1.338-25.936 4.466-39.149 5.188-8.261 0.448-16.449 1.951-24.626 2.531-8.165 0.575-15.656-3.575-23.74-3.67-12.616-0.149-23.892 5.494-36.489 3.02-13.967-2.736-27.743-6.47-41.79-8.79-11.68-1.918-23.298-4.236-34.789-7.091-5.292-1.312-10.622-2.742-15.881-3.993-7.542-1.809-13.817-7.264-21.028-10.038-4.232-1.628-8.704-2.217-12.82-4.134-4.787-2.235-8.861-5.811-13.771-7.815-7.568-3.088-12.766-8.653-19.2-13.27-6.378-4.559-13.907-8.143-20.754-12.254-5.636-3.38-13.429-7.469-18.103-12.129-2.659-2.656-4.626-6.595-6.389-9.874-9.166-17.049-28.52-13.136-43.282-22.018-3.394-2.045-5.933-5.314-9.602-7.1-3.82-1.855-7.197-3.127-10.649-5.815-6.237-4.85-11.572-11.328-17.176-16.911-6.635-6.61-8.307-13.771-17.6-17.725-3.347-1.43-7.157-2.886-9.903-5.259-3.28-2.836-4.713-7.373-8.313-9.92-6.971-4.938-14.473-6.77-20.016-13.82-6.822-8.677-11.296-19.457-15.731-29.462-5.44-12.279-15.335-23.937-23.955-33.983-7.028-8.199-2.782-16.398-5.151-26.342-3.307-13.906-19.603-25.736-12.484-41.567 2.256-5.017 4.499-6.7 8.515-9.889 11.561-9.182-7.563-17.451-13.638-23.402-3.862-3.789-8.963-6.054-12.157-10.549-3.395-4.797-4.876-11.265-5.821-16.957-1.696-10.204-2.102-20.65-4.667-30.705-0.93-3.632-2.476-7.051-3.264-10.65-0.171-0.77-0.305-1.549-0.393-2.334-0.427-3.923 0.438-7.918-1.002-11.761-1.253-3.325-4.127-5.589-5.183-9.118-3.72-12.43 1.703-21.548 3.94-33.172 2.671-13.874 5.708-27.67 8.374-41.546 2.36-12.284 6.406-23.877 10.958-35.517 7.76-19.843 8.252-37.712 13.314-57.88 3.181-12.671 14.807-14.416 22.46-23.733 5.734-6.98 2.455-15.042 4.158-23.161 1.412-6.703 7.487-12.396 11.147-18.193 5.143-8.148 11.359-16.461 15.289-25.174 3.273-7.25 6.005-14.043 11.746-19.791 6.744-6.747 16.45-10.273 22.805-15.539 4.937-4.089 6.81-9.103 8.645-15.002 1.838-5.91 5.697-10.77 9.833-15.568 2.313-2.681 5.21-5.761 6.692-8.983 2.229-4.847 3.119-10.542 6.366-14.89 3.816-5.106 10.466-9.294 15.649-12.958 11.509-8.149 25.876-10.568 38.984-15.001 7.419-2.51 20.327-7.199 25.742-13.088 5.198-5.654 8.41-12.25 14.559-17.172 15.83-12.678 35.287-26.057 54.949-31.465 12.316-3.386 20.649-1.596 31.204-10.976 19.924-17.707 30.363-19.463 57.09-20.796 6.063-0.302 13.535 0.32 19.12-2.344 9.488-4.52 12.106-10.216 23.685-11.395 10.381-1.05 21.105-0.948 31.588-1.469 22.833-1.135 46.305 4.204 69.097 5.423 25.063 1.338 48.806 0.329 71.152 13.87 4.897 2.967 10.503 3.864 16.215 4.158 8.495 0.441 17.038-0.279 25.39 1.743 10.884 2.634 21.621 7.104 32.03 11.17 7.221 2.82 10.536 5.98 16.059 10.738 8.01 6.899 19.043 9.569 28.113 14.506 12.434 6.76 23.032 16.57 35.619 23.223 6.747 3.564 15.966 9.018 20.461 15.188 5.133 7.038 4.611 16.669 10.884 23.206 4.586 4.778 11.017 7.584 15.726 12.234 5.126 5.063 11.993 3.676 17.935 7.508 3.723 2.399 5.968 6.161 9.242 9.013 3.465 3.015 7.479 3.601 11.216 6.3 10.685 7.722 6.941 22.074 17.728 29.461 4.99 3.422 10.179 8.453 15.492 11.086 5.018 2.484 11.748 1.798 15.907 6.1 2.999 3.1 5.252 9.911 5.931 13.8 0.959 5.483 1.399 9.221 4.05 14.164 2.997 5.593 2.152 11.18 6.352 16.26 4.333 5.246 7.884 11.003 11.987 16.496 3.123 4.184 3.119 7.685 4.852 12.136z"/>
    </g>
    <g id="korteks">
        <path  d="m985.16 450.86c1.594-10.675 1.407-18.512-2.906-28.733-3.359-7.973-7.733-11.733-8.536-20.728-1.08-12.131 3.223-21.912-1.368-33.996-2.318-6.104-5.266-12.542-10.97-16.171-6.469-4.113-14.161-3.439-21.337-5.008-9.576-2.09-10.074-12.609-13.737-20.526-2.005-4.339-9.151-7.336-6.363-13.179 5.188-0.3 16.999 3.548 20.579 0.293-1.733-4.45-1.729-7.952-4.857-12.142-4.104-5.493-7.654-11.25-11.987-16.496-4.199-5.08-3.354-10.667-6.352-16.26-2.65-4.943-3.091-8.681-4.05-14.164-0.679-3.889-2.932-10.7-5.931-13.8-4.159-4.302-10.89-3.616-15.907-6.1-5.313-2.634-10.502-7.664-15.492-11.086-10.786-7.387-7.043-21.739-17.728-29.461-3.737-2.699-7.751-3.285-11.216-6.3-3.274-2.852-5.52-6.613-9.242-9.013-5.941-3.832-12.809-2.445-17.935-7.508-4.709-4.65-11.14-7.457-15.726-12.234-6.272-6.536-5.751-16.167-10.884-23.206-4.495-6.17-13.714-11.625-20.461-15.188-12.587-6.653-23.186-16.463-35.619-23.223-9.07-4.937-20.104-7.606-28.113-14.506-5.522-4.758-8.838-7.918-16.059-10.738-10.409-4.066-21.146-8.537-32.03-11.17-8.352-2.022-16.895-1.302-25.39-1.743-5.712-0.294-11.317-1.191-16.215-4.158-22.347-13.541-46.089-12.532-71.152-13.87-22.792-1.219-46.265-6.558-69.097-5.423-10.483 0.521-21.207 0.419-31.588 1.469-11.579 1.179-14.197 6.875-23.685 11.395-5.585 2.664-13.057 2.042-19.12 2.344-26.727 1.333-37.167 3.089-57.09 20.796-10.555 9.38-18.887 7.59-31.204 10.976-19.662 5.408-39.119 18.787-54.949 31.465-6.149 4.921-9.361 11.518-14.559 17.172-5.416 5.889-18.323 10.579-25.742 13.088-13.107 4.434-27.475 6.853-38.984 15.001-5.183 3.665-11.833 7.852-15.649 12.958-3.247 4.348-4.137 10.043-6.366 14.89-1.481 3.223-4.379 6.303-6.692 8.983-4.135 4.798-7.994 9.658-9.833 15.568-1.834 5.899-3.708 10.913-8.645 15.002-6.355 5.265-16.062 8.792-22.805 15.539-5.741 5.747-8.473 12.541-11.746 19.791-3.93 8.713-10.146 17.026-15.289 25.174-3.66 5.797-9.735 11.491-11.147 18.193-1.704 8.119 1.576 16.18-4.158 23.161-7.654 9.318-19.279 11.062-22.46 23.733-5.063 20.167-5.554 38.037-13.314 57.88-4.553 11.64-8.599 23.233-10.958 35.517-2.666 13.875-5.703 27.672-8.374 41.546-2.237 11.624-7.66 20.742-3.94 33.172 1.056 3.529 3.93 5.793 5.183 9.118 1.44 3.843 0.575 7.838 1.002 11.761 0.088 0.785 0.222 1.564 0.393 2.334 0.788 3.6 2.334 7.019 3.264 10.65 2.566 10.055 2.972 20.501 4.667 30.705 0.945 5.692 2.426 12.16 5.821 16.957 3.194 4.495 8.295 6.76 12.157 10.549 6.075 5.951 25.199 14.221 13.638 23.402-4.017 3.188-6.259 4.872-8.515 9.889-7.118 15.831 9.178 27.661 12.484 41.567 2.369 9.943-1.876 18.143 5.151 26.342 8.62 10.047 18.515 21.704 23.955 33.983 4.435 10.005 8.909 20.785 15.731 29.462 5.543 7.051 13.044 8.883 20.016 13.82 3.6 2.547 5.033 7.084 8.313 9.92 2.746 2.373 6.556 3.829 9.903 5.259 9.293 3.954 10.965 11.114 17.6 17.725 5.604 5.583 10.939 12.062 17.176 16.911 3.453 2.688 6.829 3.96 10.649 5.815 3.669 1.785 6.208 5.055 9.602 7.1 14.763 8.882 34.117 4.969 43.282 22.018 1.762 3.279 3.73 7.218 6.389 9.874 4.674 4.66 12.467 8.749 18.103 12.129 6.847 4.111 14.376 7.695 20.754 12.254 6.434 4.616 11.632 10.182 19.2 13.27 4.91 2.005 8.983 5.58 13.771 7.815 4.117 1.917 8.588 2.506 12.82 4.134 7.211 2.774 13.486 8.229 21.028 10.038 5.259 1.251 10.589 2.682 15.881 3.993 11.491 2.854 23.109 5.173 34.789 7.091 14.046 2.32 27.823 6.054 41.79 8.79 12.598 2.475 23.874-3.169 36.489-3.02 8.084 0.095 15.576 4.245 23.74 3.67 8.177-0.58 16.365-2.083 24.626-2.531 13.214-0.723 26.09-3.851 39.149-5.188 4.074-0.416 8.169-0.345 12.171-0.98 8.107-1.298 16.26-1.951 24.765-2.558 9.081-0.65 18.76-3.268 26.81-7.198 6.878-3.358 12.825-6.627 18.82-11.33 6.825-5.36 16.282-7.678 24.316-11.529 7.937-3.813 14.177-2.302 22.342-3.201 9.098-0.998 10.345-5.044 18.08-7.814 10.521-3.771 15.8-5.03 25.095-11.224 7.799-5.195 16.889-8.104 24.966-12.819 15.251-8.915 23.127-27.829 38.732-37.631 8.697-5.456 19.744-5.966 27.814-12.578 2.823-2.312 4.28-5.958 6.968-8.183 4.113-3.404 9.723-4.529 13.301-8.68 4.993-5.777-0.632-10.541 2.018-15.689 2.441-4.74 12.439-7.609 16.842-10.345 9.245-5.754 15.8-16.815 22.41-25.053 15.215-18.961 23.501-38.495 32.393-60.269 5.394-13.208 10.481-27.789 11.864-42.31 0.853-8.897 1.464-20.232-1.54-28.802-1.478-4.212-7.317-8.488-4.856-13.466 2.015-4.08 7.735-5.194 11.416-7.083 4.037-2.066 5.931-4.564 8.777-7.993 7.368-8.866 11.437-18.504 15.646-29.163 4.001-10.133 10.334-19.448 12.774-30.179 0.857-3.766 2.673-8.695 2.281-12.413-0.245-2.342-1.529-3.898-1.66-6.822-0.096-2.163 0.593-4.112-0.461-6.194-1.74-3.452-6.341-4.057-8.016-6.918 0.564 0.966-1.716-10.598-1.695-10.164-0.39-9.903 7.257-15.673 9.315-24.902 2.303-10.291 1.14-22.741 2.689-33.092zm-416.39 30.279c-0.308 7.185-2.178 14.999-4.761 21.66-2.063 5.325-3.12 11.336-5.842 16.384-2.066 3.836-6.281 3.695-8.764 7.154-2.147 2.987-2.802 5.086-5.745 7.798-6.316 5.809-12.206 12.122-19.382 16.907-6.997 4.671-15.626 6.816-23.992 6.15-4.108-0.324-8.551-1.234-12.21-3.201-3.544-1.91-5.546-2.092-9.687-2.68-4.147-0.59-7.887-1.572-11.799-3.044-5.95-2.247-13.621-4.684-17.931-9.645-2.095-2.413-2.171-5.399-3.889-8.112-1.79-2.821-4.219-5.124-6.938-7.043-4.078-2.886-8.527-4.952-12.077-8.781-3.677-3.963-7.561-8.592-9.097-13.9-1.581-5.478-1.392-12.438-1.997-18.206-0.519-4.961 1.246-9.907 0.767-14.808-0.376-3.85-1.962-7.505-2.317-11.51-0.908-10.246 1.023-18.56 6.329-27.222 3.054-4.985 7.84-10.409 12.084-14.331 2.535-2.342 5.163-4.631 7.739-6.992 1.85-1.695 3.463-3.851 5.735-4.992 1.963-0.988 4.331-1.071 6.314-2.157 5.694-3.123 13.63-6.875 20.1-7.568 2.585-0.279 4.946 0.609 7.443 1.112 3.974 0.8 8.04 0.706 12.018 1.437 5.763 1.063 12.211 0.888 17.891 2.295 4.976 1.235 11.362 3.526 15.901 6.061 5.254 2.94 8.152 8.022 12.739 11.654 8.937 7.075 20.787 14.81 23.685 26.552 3.11 12.612 8.256 25.703 7.683 39.028z"/>
    </g>
    <g id="endodermis">
        <path d="m561.08 442.11c-2.897-11.742-14.748-19.478-23.685-26.552-4.587-3.631-7.485-8.714-12.739-11.654-4.539-2.535-10.926-4.826-15.901-6.061-5.68-1.407-12.128-1.232-17.891-2.295-3.979-0.731-8.044-0.637-12.018-1.437-2.497-0.503-4.858-1.391-7.443-1.112-6.469 0.694-14.405 4.445-20.1 7.568-1.984 1.086-4.352 1.169-6.314 2.157-2.271 1.142-3.885 3.297-5.735 4.992-2.576 2.36-5.204 4.65-7.739 6.992-4.244 3.922-9.03 9.346-12.084 14.331-5.306 8.662-7.237 16.976-6.329 27.222 0.355 4.005 1.941 7.66 2.317 11.51 0.479 4.901-1.286 9.847-0.767 14.808 0.605 5.768 0.416 12.728 1.997 18.206 1.536 5.308 5.42 9.937 9.097 13.9 3.55 3.829 7.999 5.896 12.077 8.781 2.718 1.919 5.147 4.222 6.938 7.043 1.718 2.713 1.794 5.699 3.889 8.112 4.31 4.961 11.98 7.397 17.931 9.645 3.912 1.472 7.652 2.454 11.799 3.044 4.141 0.588 6.143 0.77 9.687 2.68 3.659 1.967 8.102 2.877 12.21 3.201 8.366 0.666 16.995-1.479 23.992-6.15 7.176-4.785 13.065-11.099 19.382-16.907 2.943-2.712 3.598-4.811 5.745-7.798 2.482-3.459 6.697-3.318 8.764-7.154 2.722-5.048 3.779-11.059 5.842-16.384 2.583-6.661 4.453-14.475 4.761-21.66 0.571-13.325-4.575-26.416-7.683-39.028zm-11.546 74.855c-3.156 5.423-8.191 9.136-11.893 14.19-3.14 4.293-5.761 7.932-10.364 10.518-4.716 2.656-9.692 5.259-14.836 6.934-3.448 1.124-7.182 2.554-10.87 2.356-3.358-0.173-6.447-2.122-9.705-2.962-5.342-1.385-9.695-3.081-15.513-3.364-5.952-0.284-10.258-1.54-14.923-5.314-8.482-6.854-14.357-15.59-23.848-21.248-8.556-5.11-15.088-13.168-17.204-23.016-1.197-5.572-0.683-11.724-0.683-17.538 0-5.789 2.364-11.741 1.354-17.462-0.56-3.18-2.579-5.439-2.367-8.843 0.181-2.924 1.251-5.636 1.938-8.431 1.421-5.772 2.893-9.19 6.408-13.894 1.462-1.957 2.815-4.162 4.379-6.072 1.737-2.123 3.978-3.054 5.73-5.067 4.005-4.604 6.602-7.67 12.308-10.295 2.69-1.238 5.627-1.946 8.283-3.194 2.587-1.216 4.965-3.124 7.832-3.963 8.038-2.347 16.804-1.181 24.544 0.884 8.16 2.179 17.182 0.045 24.957 3.903 10.073 4.999 17.894 11.908 25.363 20.151 6.1 6.735 11.406 10.814 14.257 19.908 1.749 5.578 3.549 11.267 4.731 16.864 1.24 5.9 1.253 11.743 1.253 17.955-3e-3 13.266-4.471 25.563-11.131 37z"/>
    </g>
    <g id="korteks">
        <path d="m559.42 462.01c-1.183-5.597-2.982-11.286-4.731-16.864-2.851-9.094-8.157-13.173-14.257-19.908-7.47-8.243-15.29-15.152-25.363-20.151-7.774-3.858-16.797-1.724-24.957-3.903-7.74-2.065-16.506-3.231-24.544-0.884-2.866 0.839-5.245 2.747-7.832 3.963-2.656 1.249-5.593 1.956-8.283 3.194-5.707 2.625-8.303 5.691-12.308 10.295-1.753 2.013-3.993 2.944-5.73 5.067-1.564 1.91-2.917 4.115-4.379 6.072-3.516 4.704-4.987 8.122-6.408 13.894-0.688 2.795-1.757 5.507-1.938 8.431-0.212 3.404 1.807 5.664 2.367 8.843 1.01 5.722-1.354 11.674-1.354 17.462 0 5.814-0.514 11.966 0.683 17.538 2.115 9.848 8.647 17.905 17.204 23.016 9.491 5.658 15.366 14.395 23.848 21.248 4.666 3.774 8.972 5.03 14.923 5.314 5.817 0.283 10.17 1.979 15.513 3.364 3.258 0.84 6.347 2.789 9.705 2.962 3.688 0.197 7.422-1.232 10.87-2.356 5.144-1.675 10.12-4.277 14.836-6.934 4.604-2.586 7.225-6.225 10.364-10.518 3.701-5.055 8.736-8.768 11.893-14.19 6.66-11.437 11.128-23.734 11.132-37.001-1e-3 -6.211-0.014-12.054-1.254-17.954zm-64.847-39.46c0.604-5.303 6.849-7.794 11.802-8.093 4.882-0.297 9.826 2.468 13.51 5.656 7.494 6.493 5.37 23.321-7.104 19.299l2.701 0.337c-5.181-1.91-11.284 0.631-16.449-2.783-4.555-3.009-5.041-9.312-4.46-14.416zm-67.865 37.856c-3.05-5.07-3.496-12.817 0.393-17.621 5.524-6.819 19.093-10.835 25.745-3.128 6.149 7.129-2.871 22.245-10.886 24.712l0.336 0.336c-5.395 3.376-13.092-0.148-15.588-4.299zm57.748 67.37 0.336 0.339c-2.574 1.106-3.316 4.599-6.406 5.809-3.288 1.283-6.582 0.904-10.119 0.599-6.388-0.566-10.419-4.451-14.081-9.858-2.867-4.23-1.5-8.932 1.181-13.09 3.083-4.778 9.498-4.912 14.923-4.371 5.454 0.544 9.628 3.043 13.071 7.508 2.466 3.207 6.118 10.163 1.095 13.064zm32.024-38.505c-1.561 1.726-8.331 5.992-10.671 4.508 3.53 2.241 8.073 8.176 2.618 11.333 3.109 0.11 6.434 0.316 8.722 2.83 2.657 2.917 2.181 6.368-1.281 8.451 3.974 4.686 8.677 10.676 3.588 16.436-4.493 5.087-16.544 6.134-21.985 2.234-2.862-2.052-4.272-4.938-3.989-8.474 0.083-0.992 3.836-9.703 4.495-8.931-2.004-2.327-2.396-5.103-0.066-7.357-2.16-0.323-4.393-0.959-6.104-2.352-2.981-2.428-0.626-2.821-1.33-6.093-4.886-1.393-13.685-3.768-7.744-10.44-4.019 0.297-3.126-2.664-6.269-3.751-2.338-0.807-3.545 1.091-5.457 1.966-1.602 0.733-3.233 1.511-5.098 0.988-0.396-0.11-4.667-2.437-3.099-3.27-1.967 1.046-3.712 2.181-6.296 2.029 0.805 5.924-6.833 10.5-11.805 10.454-0.45 9.878-22.496 3.942-11.82-6.458-3.819-3.254-6.27-6.905-2.302-11.383 2.876-3.248 8.98-5.503 13.068-3.776 0.092-3.437 0.542-5.888 3.684-8.526 4.065-3.412 6.858-0.723 11.441-0.658-1.119-3.08-2.024-5.21 0.361-8.118 2.101-2.559 5.073-4.192 8.408-4.023-1.026-3.211-4.778-3.349-5.352-7.359-0.727-5.061 1.337-8.048 5.37-10.558-3.22-1.635-6.472-2.685-8.068-6.645-0.691-1.724-0.103-3.659-0.744-5.32-1.096-2.845-2.936-4.176-2.451-7.794 0.196-1.472 0.772-2.864 1.756-3.983 0.303-0.346 3.406-2.274 3.404-2.185 0.208-9.276 26.961-0.207 17.977 9.091 3.162 1.005 1.147 5.694 0.62 7.833-0.863 3.5-2.971 5.204 0.028 7.418 2.422 1.784 5.623 1.924 7.655 4.477 2.089 2.625 1.658 5.387 1.821 8.623 3.123 0.159 6.843-0.715 9.476 0.307 1.89 0.733 3.562 3.935 5.034 4.483 1.468 0.545 5.815-0.688 7.697-1.029 1.283-0.233 2.013-0.56 3.112-1.271 1.381-0.894 1.185-1.402 2.359-2.698 2.544-2.805 4.103-2.044 7.354-2.768 4.84-1.078 7.612-6.198 13.226-4.813 6.081 1.503 8.034 5.754 8.409 11.493 6.361 3.231 5.069 13.881-3.037 12.93-3.909 7.985-10.91 5.136-17.875 6.409-0.99 3.251-3.345 4.52-6.434 5.76 1.768 2.781-0.469 7.84-2.406 9.98zm33.738 16.58c-2.016 4.985-5.198 9.112-10.784 9.449-3.661 0.229-12.994 0.85-13.246-4.229-2.038-3.632-1.776-10.94-1.002-14.736 1.136-5.583 4.447-9.024 10.27-10.306 11.537-2.533 18.7 10.077 14.762 19.822z"/>
    </g>
    <g id="floem">
        <path d="m535.45 486.03c-5.822 1.281-9.134 4.723-10.27 10.306-0.774 3.796-1.036 11.104 1.002 14.736 0.252 5.078 9.585 4.458 13.246 4.229 5.586-0.337 8.769-4.464 10.784-9.449 3.939-9.745-3.224-22.355-14.762-19.822z"/>
        <path d="m519.88 420.11c-3.684-3.188-8.628-5.953-13.51-5.656-4.953 0.298-11.199 2.79-11.802 8.093-0.581 5.104-0.095 11.407 4.459 14.417 5.165 3.414 11.269 0.873 16.449 2.783l-2.701-0.337c12.475 4.021 14.599-12.807 7.105-19.3z"/>
        <path d="m452.84 439.66c-6.652-7.707-20.22-3.69-25.745 3.128-3.889 4.804-3.443 12.55-0.393 17.621 2.496 4.15 10.193 7.674 15.588 4.3l-0.336-0.336c8.015-2.468 17.036-17.584 10.886-24.713z"/>
        <path d="m470.29 507.2c-5.425-0.541-11.84-0.407-14.923 4.371-2.681 4.158-4.048 8.859-1.181 13.09 3.661 5.407 7.693 9.292 14.081 9.858 3.538 0.306 6.831 0.685 10.119-0.599 3.09-1.21 3.833-4.702 6.406-5.809l-0.336-0.339c5.023-2.901 1.372-9.857-1.095-13.065-3.443-4.464-7.617-6.963-13.071-7.507z"/>
    </g>
    <g id="xilem">
        <path d="m444.32 478.54c-4.06-2.303-10.698 0.028-13.735 3.457-3.968 4.478-1.518 8.129 2.302 11.383-10.676 10.401 11.371 16.336 11.82 6.458 4.972 0.046 12.61-4.53 11.805-10.454 2.584 0.152 4.33-0.983 6.296-2.029-1.568 0.833 2.703 3.16 3.099 3.27 1.865 0.523 3.497-0.255 5.098-0.988 1.912-0.875 3.119-2.773 5.457-1.966 3.143 1.087 2.25 4.048 6.269 3.751-5.941 6.672 2.858 9.048 7.744 10.44 0.703 3.271-1.652 3.665 1.33 6.093 1.712 1.393 3.945 2.028 6.104 2.352-2.33 2.255-1.938 5.03 0.066 7.357-0.659-0.772-4.412 7.938-4.495 8.931-0.284 3.536 1.127 6.422 3.989 8.474 5.441 3.899 17.492 2.853 21.985-2.234 5.089-5.76 0.386-11.75-3.588-16.436 3.462-2.083 3.938-5.534 1.281-8.451-2.288-2.514-5.612-2.72-8.722-2.83 5.455-3.157 0.912-9.092-2.618-11.333 2.34 1.484 9.11-2.782 10.671-4.508 1.938-2.14 4.175-7.199 2.405-9.978 3.089-1.24 5.443-2.509 6.434-5.76 6.965-1.273 13.966 1.576 17.875-6.409 8.106 0.951 9.398-9.699 3.037-12.93-0.375-5.738-2.328-9.989-8.409-11.493-5.613-1.385-8.386 3.734-13.226 4.813-3.251 0.723-4.81-0.038-7.354 2.768-1.175 1.295-0.979 1.804-2.359 2.698-1.1 0.711-1.829 1.038-3.112 1.271-1.882 0.342-6.229 1.575-7.697 1.029-1.473-0.549-3.145-3.75-5.034-4.483-2.632-1.022-6.353-0.148-9.476-0.307-0.163-3.236 0.268-5.998-1.821-8.623-2.033-2.553-5.233-2.693-7.655-4.477-2.999-2.215-0.891-3.919-0.028-7.418 0.527-2.139 2.542-6.828-0.62-7.833 8.984-9.298-17.769-18.368-17.977-9.091 2e-3 -0.089-3.101 1.839-3.404 2.185-0.984 1.12-1.56 2.511-1.756 3.983-0.485 3.618 1.355 4.949 2.451 7.794 0.641 1.661 0.053 3.596 0.744 5.32 1.597 3.96 4.849 5.01 8.068 6.645-4.033 2.51-6.096 5.497-5.37 10.558 0.574 4.011 4.326 4.148 5.352 7.359-3.335-0.169-6.307 1.464-8.408 4.023-2.385 2.908-1.48 5.039-0.361 8.118-4.583-0.064-7.376-2.753-11.441 0.658-3.239 2.72-3.618 5.237-3.693 8.845"/>    
    </g>
</svg>