<svg  viewBox="0 0 1000 1000">
    <g id="empulur">
        <path d="m911.88 426.71c-1.945-4.669-4.576-8.175-6.354-12.754 0.014 0.036 0.026 0.074 0.04 0.11-5.371 1.333-11.251 2.095-12.92 2.345-2.939 0.439-8.674 2.63-11.699 1.029-2.654-1.408-2.52-6.676-3.839-9.435-3.019 1.053-5.019 0.244-7.692 0.249-2.81 4e-3 -5.355 1.654-8.279 0.364-1.857-0.819-4.57-3.045-6.424-4.22-2.428-1.539-4.434-3.535-4.67-6.344-0.152-1.742 0.963-2.81 0.451-4.494-0.371-1.237-1.764-2.01-2.382-3.215-2.094-4.102 0.482-4.475 0.925-7.996 0.302-2.357-2.928-4.362-0.925-7.444 1.45-2.219 2.407-0.872 4.131-1.813 1.328-0.728 1.422-0.799 2.579-1.817 0.983-0.866 1.217-1.772 2.55-2.582 1.298-0.782 2.524-0.77 3.753-1.827 1.319-1.127 2.565-2.629 2.499-4.422-0.093-2.591-1.169-1.483-2.185-3.03-3.704-5.642 4.289-9.938 9.829-10.607 1.247-7.542 6.532-8.525 11.726-10.352 1.096 3.52 2.137 7.057 3.098 10.609-4.227-15.671-9.924-31.011-15.967-46.259-3.582-9.011-8.342-17.463-13.268-25.789-0.054-0.091-0.106-0.186-0.16-0.277-2.828 3.007-6.569 4.83-10.278 3.898 0.025 6.621-10.554 12.115-12.629 3.669-1.511 1.084-3.912 1.49-5.807 0.984-1.143-0.312-2.318-1.674-3.287-1.871-0.858-0.176-1.811 0.604-2.564 0.505-4.812-0.638-8.585-1.989-13.605-2.225-5.132-0.239-7.25-3.636-10.72-6.528-3.802-3.16-7.549-5.291-7.7-10.663-3.051-1.244-4.291-0.025-5.737-3.812-0.779-2.042-1.33-5.323-0.812-7.639 0.272-1.208 1.175-2.047 1.567-3.225 0.338-1.026 0.305-2.247 0.644-3.376 0.625-2.098 1.057-4.675 3.612-5.196-0.171-2.994 0.715-6.874 4.408-6.975 0.227-4.075 1.014-6.898 5.059-8.745-1.618-1.721-2.409-4.215-2.386-6.711-5.617-5.96-14.026-6.107-22.158-6.89-5.934-0.569-12.575-0.26-18.358 1.284-3.677 0.987-5.801 3.934-9.153 5.138-2.296 0.826-4.394 0.322-6.422-0.688 1e-3 0 3e-3 1e-3 4e-3 2e-3 -0.261 1.021-0.579 1.999-0.927 2.72-1.529 3.137-4.368 5.87-7.348 7.62-1.704 1.006-3.217 1.553-5.035 2.285-1.124 0.453-5.118 0.943-5.818 1.548-1.5 1.31-1.083 4.768-2.735 6.526-2.72 2.886-5.269 0.641-8.354 1.551-1.921 0.569-1.721 1.762-3.294 2.784-1.713 1.112-2.606 0.732-4.415 1.182-1.567 0.391-1.883 0.549-3.668 1.214-1.257 0.462-2.742 1.438-4.061 1.373-6.952-0.338-8.439-7.42-4.81-12.398-4.78-4.531 3.857-10.114 4.83-13.686 0.793-2.926 0.757-5.849 1.926-8.83 1.282-3.249 2.504-5.507 3.025-9 0.072-0.474 0.387-1.274 0.854-2.229 0.012 3e-3 0.024 5e-3 0.036 8e-3 -4.526-1.156-7.829-7.164-13.856-7.007-2.829 0.075-4.21 1.289-6.85 0.409-2.351-0.779-4.251-3.143-6.649-4.078-7.007-2.721-12.406-8.727-20.188-9.505-9.48-0.942-18.796 3.409-28.253 0.978-0.29-0.075-0.575-0.159-0.856-0.25-1.627 2.953-5.686 5.941-7.563 6.826 1.174 3.779-3.535 9.408-7.445 9.604-0.13 2.871-5.322 7.99-8.497 6.949-3.993-1.312-3.097-8.966 0.259-10.375-2.38-1.89-2.596-6.971 0.052-8.834-1.929-2.276-2.478-8.06-1.399-12.002 0.901 0.08 1.803 0.165 2.703 0.257-3.755-0.387-7.551-0.631-11.131-1.114-5.378-0.729-10.804-1.409-16.198-2.251-1.152 1.813-2.516 3.367-4.331 3.884 0.411 8.14-7.138 17.959-14.832 10.309-3.652-3.632-1.536-7.955-0.551-12.188 0.869-3.75 0.544-2.377-1.285-5.507-0.244-0.412-0.441-0.8-0.613-1.177-9.43-2.487-18.787-5.248-28.13-8.062-8.948-2.698-18.7-4.476-26.779-9.412-3.15-1.922-4.445-3.421-8.113-3.833-2.012-0.225-4.033 0.448-6.063 0.802 1.524-0.262 3.044-0.698 4.558-0.811 0.136 3.008-0.988 6.57-2.648 7.134 2.258 2.752 0.961 10.618-3.294 10.632 0.826 3.603 2.882 6.533 0.787 10.314-1.558 2.805-5.315 5.09-8.545 4.68-2.886-0.363-6.831-4.238-9.103-6.35-2.802-2.603-3.718-4.882-3.799-8.655-9.565-0.333-10.354-10.372-8.933-17.766-0.15-0.053-0.299-0.098-0.451-0.157-5.128-1.993-8.159-5.989-13.65-7.506-6.52-1.803-13.189-3.939-19.819-5.325-6.956-1.452-14.411-0.649-21.355-1.607-8.091-1.118-16.056-2.629-24.211-3.239-3.373-0.253-6.791-0.192-10.194-0.309 0.385 6.448-2.636 14.454-7.734 15.364 1.452 1.217 3.181 1.989 3.816 3.895 0.708 2.094-1.123 2.614-0.454 4.761 1.308 4.198 3.97 4.71 2.49 9.627-0.982 3.238-2.388 5.814-4.684 8.452-0.87 0.996-3.529 2.332-4.058 3.391-0.87 1.749 0.204 3.213-0.439 5.065-1.762 5.041-8.668 10.375-13.582 10.994-2.783 0.354-5.557 1.167-8.079 0-3.139-1.449-3.26-1.88-6.975-1.827-5.934 0.085-8.21-6.306-13.666-6.903-3.014-0.324-3.99 2.388-7.276 1.387-3.019-0.917-4.005-3.446-2.957-6.554-3.901 0.249-9.23-3.78-9.502-7.495-1.376 0.902-7.474 2.206-8.275 1.874-2.603-1.072-4.442-3.132-5.568-5.676-1.102-2.471-1.196-4.879-2.349-7.186-1.354 0.674-2.925 0.928-4.932 1.797-4.924 2.13-9.755 5.69-13.681 9.313-12.459 11.513-18.332 30.223-19.713 46.958-0.48 5.831-2.841 8.826-3.948 14.22-0.66 0.266-1.291 0.486-1.906 0.686 0.096-0.031 0.188-0.057 0.286-0.09 1.885 2.3 3.888 4.441 6.487 5.725 2.923 1.441 6.374 1.784 9.188 3.783 2.984 2.12 2.662 5.229 5.151 7.247 1.902 1.547 4.33 2.143 6.32 3.949 2.705 2.458 2.285 3.14 2.837 6.702 0.938 6.082 1.933 9.963-0.356 16.162-1.675 4.535-5.02 10.161-9.476 12.92-4.991 3.092-10.439-1.215-15.438 2.921-0.692 5.744-11.968 4.948-16.215 4.259-5.42-0.876-10.2-3.49-14.176-7.23-0.612-0.58-1.154-1.21-1.678-1.851 0.505-1.953 1.005-3.874 1.667-5.708-1.057 2.93-1.702 6.08-2.621 9.229-1.982 6.815-6.167 12.973-6.857 20.161-0.643 6.713-2.363 13.378-2.22 20.16 0.141 6.716 1.861 10.513-1.725 16.859-1.808 3.194-5.821 3.809-7.297 7.312-1.372 3.252 0.759 5.17 3.519 6.371 3.582 1.556 3.418 1.818 2.243 5.448-1.089 3.382-0.542 6.234-0.96 9.495-0.455 3.574-3.98 6.556-6.019 9.321-6.015 8.173-10.092 16.385-9.581 26.777 0.322 6.621 1.857 10.805 5.367 16.209 3.364 5.179 11.829 11.913 6.337 18.242 0.94 1.767 1.5 3.633 3.474 4.243 3.303 1.035 6.915 0.761 10.35 1.67 5.353 1.413 4.342 3.293 2.996 7.733 4.731 1.246 3.959 6.341 5.162 9.971 1.393 4.213 1.661 5.914-2.189 9.271-1.588 1.378-3.94 1.587-5.168 2.846-1.055 1.089-0.869 2.962-2.274 4.333-2.406 2.343-7.184 2.49-9.828 0.476-0.79 3.885-6.93 4.527-9.539 6.284-1.748 1.176-7.024 5.185-7.844-0.029-2.356-0.113-5.413-0.631-7.667-0.427-2.228 0.2-2.958 1.188-4.845 1.761-1.487 0.456-2.965 0.469-4.384 0.192 3e-3 -4e-3 5e-3 -8e-3 8e-3 -0.012-4.237 5.847-12.932 9.264-16.714 16.047-5.209 9.357 0.941 16.465 2.265 25.617-2.961 1.338-6.714 2.176-8.135 5.563 0.268-0.635 0.635-1.155 1.04-1.628 3.968 0.411 7.428 1.655 10.95 5.321 2.667 2.771 4.928 3.119 9.183 2.56 4.641-0.602 6.948-2.311 11.302 9e-3 1.234 0.65 1.933 1.215 3.377 1.834 1.214 0.518 2.414 0.79 3.662 1.559 2.954 1.815 2.927 3.811 4.678 5.882 2.186 2.595 6.948 3.712 8.284 7.163 0.903 2.35-0.53 4.961-0.1 7.788 1.65 10.89-3.99 23.98-16.46 24.653-1.956 5.463-8.642 5.909-11.721 9.579-1.492 1.789-1.98 4.607-3.703 6.271 2 3.873 2.94 8.341 3.821 12.552 1.157 5.536 2.848 9.274 5.768 14.35 6.728 11.676 13.858 23.229 23.684 32.601 3.141 2.991 6.458 6.035 10.058 8.606 0.099-0.109 0.207-0.196 0.303-0.313 1.61-2.038 1.444-4.078 2.469-6.236 1.865-3.953 5.661-4.347 9.732-3.441 3.089-5.8 7.24-9.499 14.218-6.629 3.03-3.078 16.68-4.976 20.11-2.459 1.436-3.576 9.639-0.467 10.425 2.178 3.002 0.455 8.2-1.767 10.583 0.35 2.512 2.231 0.398 5.137-0.091 7.331-0.646 2.89-0.121 4.558 2.009 6.974 3.075 3.491 2.079 2.777 2.02 6.994-0.064 4.838 6.733 9.398 5.983 14.406-0.409 2.721-3.347 3.742-4.411 5.787-1.143 2.19 0.59 4.532-0.627 7.137-1.078 2.304-4.07 2.747-5.175 4.767-0.563 1.021-0.029 2.713-0.525 3.874-0.491 1.16-1.993 2.494-2.855 3.396-1.74 1.833-3.296 3.547-4.9 5.15 1.333 1.151 2.664 2.542 4.159 4.521 3.097 4.104 7.75 7.876 11.6 11.378 7.304 6.654 15.296 12.804 24.96 15.518 8.714 2.447 17.625 3.813 26.324 6.298-0.07-1.025-0.033-1.961 0.156-2.521 0.87-2.639 3.57-2.949 4.871-5.043 1.766-2.844 0.767-4.842 4.028-6.994 2.822-1.866 5.417-1.337 8.34-1.002 6.104 0.704 10.59-1.538 17.081 1.646 2.428 1.19 4.683 2.277 5.05 5.229 0.525 4.27-2.603 3.353-4.758 5.949-0.677 0.812-1.237 1.756-1.43 2.774 3.54 4.33 0.197 10.684-4.697 11.923 0.675 0.538 1.312 1.252 1.859 2.05 5.029 3.624 7.529 9.531 13.629 12.766 5.762 3.048 10.891 7.171 16.749 10.048-0.254-0.121-0.485-0.274-0.734-0.397 3.302-5.215 8.601-9.831 11.676-12.641 2.443-2.223 3.222-4.295 7.013-4.553 3.025-0.208 6.773 1.037 8.116 3.978 4.434-3.097 9.207-6.724 12.861-0.43 3.429-4.832 9.451 0.954 10.563 4.876 0.318 1.131-0.271 2.362-0.102 3.24 0.041 0.216-0.769 0.637-0.672 1.182 0.097 0.62 1.501 0.83 1.523 1.456 0.133 2.978-0.434 3.782-3.373 5.883 3.139 4.005 8.926 7.004 3.441 11.465-2.499 2.036-6.262 1.917-8.415 3.377 0.812 0.121 1.59 0.247 2.298 0.387 9.801 1.941 18.802 6.624 28.281 9.587 5.688 1.783 10.863 5.384 16.54 7.695 4.978 2.027 10.341 3.417 15.137 5.853 3.122 1.589 5.94 2.529 8.332 3.774-2.311-1.206-5.019-2.129-8.014-3.623-0.253-2.633-0.215-4.791 0.4-5.819 1.581-2.625 4.563-3.763 6.931-5.202 0.392-6.816 1.561-7.577 8.079-8.447 1.711-3.139 0.298-5.408 4.101-7.378 1.235-0.642 2.637-0.645 3.754-1.276 2.077-1.187 1.322-1.344 2.755-3.047 1.919-2.297 3.895-3.915 7.075-4.403 1.415-0.219 3 0.313 4.403 0.022 1.916-0.394 3.506-1.914 5.506-2.229 5.936-0.93 12.933 5.089 16.99 8.757 1.923 1.74 4.688 4.438 5.785 6.673 0.634 1.293-0.217 2.286 0.794 3.593 0.683 0.881 2.753 1.507 3.694 2.203 1.967 1.453 3.468 2.592 3.945 4.861 0.582 2.803-0.273 3.22 1.467 5.953 2.535 3.988 5.963 6.815 4.337 12.03-0.547 1.741-2.324 3.293-2.511 5.134-0.256 2.566 1.571 4.218 2.233 6.617 1.024 3.751-0.205 6.69-1.396 10.126-0.346 0.991-0.455 2.54-0.638 4.093 0.118 0.015 0.235 0.026 0.354 0.045 8.172 1.305 16.885 3.925 24.85 6.299 7.279 2.164 15.426 5.146 23.039 5.496 4.606 0.218 8.158-1.66 12.213-2.855-0.613-0.69-1.044-1.229-1.198-1.535-2.142-4.334 0.079-3.63 1.812-6.991 1.233-2.388-0.674-4.904 0.845-7.972 1.725-3.486 4.879-3.348 7.338-5.508 2.506-2.197 3.649-5.858 3.95-8.911 0.345-3.481-1.766-6.511-1.107-9.913 0.506-2.646 3.257-6.419 5.227-8.357 2.425-2.396 5.149-2.297 7.994-3.654 2.315-1.108 3.263-2.846 5.869-3.412 2.302-0.51 5.722-0.966 8.084-0.746 1.267 0.114 2.02 1.211 3.306 1.119 1.629-0.128 2.827-1.354 4.4-1.932 2.565-0.945 6.42-1.514 9.181-0.939 2.108 0.437 4.74 1.262 6.972 1.768 2.166 0.491 4.595 1.673 6.531 3.039 2.992 2.123 9.018 5.751 7.469 9.828 3.87 1.131 5.905 2.157 5.837 6.245-0.037 2.224-1.693 2.247 0.728 3.74 2.569 1.586 2.844-0.333 4.678-1.21 3.438-1.64 7.049-1.316 9.828 0.677-0.29 0.896-0.672 1.744-1.227 2.475 2.119-2.769 1.701-7.148 3.418-10.387 7.938-14.994 13.662-31.068 21.759-45.971 2.685-4.932 3.531-10.475 6.074-14.839-0.026 0.046-0.056 0.089-0.082 0.134-1.975-3.176-3.079-6.902-2.276-8.018-0.131-0.122-0.269-0.249-0.403-0.374-0.489-1.145-2.265-1.973-2.854-3.392-0.525-1.279-0.014-2.827-0.815-3.943-1.819-2.536-5.043-1.37-4.319-5.98 0.403-2.597 3.374-4.264 4.051-6.506 0.84-2.777-2.14-4.943-0.677-8.166 2.035-4.482 4.77-2.038 8.009-2.939 2.94-0.815 3.212-4.77 7.357-3.952 2.955 0.583 4.791 4.001 6.966 5.053 1.92 0.932 2.854-0.787 4.146 1.839 0.621 1.252 0.268 2.842-0.334 4.002 2.844-1.801 5.507 0.183 8.014 1.17-0.012 0.041-0.021 0.081-0.033 0.122 0.537-1.927 1.222-3.826 2.664-5.552 3.86-4.613 7.715-9.417 11.759-13.884 6.255-6.911 12.164-14.291 15.747-22.978 0.574-1.394 1.198-2.612 1.87-3.728-2.838-1.579-5.544-4.034-6.463-5.816-2.377-4.593-1.052-9.714 4.102-9.084-5.087-0.992-6.498-9.266-0.755-10.063-3.866-8.095 5.964-9.666 12.156-8.04 4.225 1.11 3.407 3.577 4.045 6.996 0.597 3.211 3.387 5.588 6.977 5.508l-0.377 0.601c0.529-0.213 1.055-0.452 1.569-0.771 5.397-3.333 9.819-11.657 13.563-16.813 7.593-10.44 11.313-23.148 17.556-34.182-2.476-2.425-3.963-6.854-3.353-9.345-2.937-0.538-8.417-4.45-9.872-7.388-3.498-7.031 4.404-5.545 7.712-6.25 3.737-0.792 5.167-6.72 9.547-8.368 2.21-0.836 6.444-0.651 9.856 2.377 0.46-3.038 1.137-5.995 2.824-9.279 3.417-6.649 6.48-13.852 8.013-21.194 2.095-10.069 1.88-20.45 3.761-30.561 0.12-0.648 0.242-1.213 0.373-1.726-0.096-0.061-0.189-0.1-0.283-0.169-1.354-0.923-2.901-1.911-3.868-3.386-0.454-0.697-0.876-2.896-1.443-3.327-3.195-2.414-10.421 1.29-9.719-6.148-4.653-1.084-7.778-4.96-6.268-9.601 0.39-1.184 1.508-2.123 1.591-3.329 0.045-0.739-1.189-1.114-1.126-2.19 0.135-2.451 0.712-3.969 3.632-3.377-1.697-4.188 2.209-4.656 4.807-5.795 3.181-1.406 4.825-3.851 9.179-3.226 1.683 0.243 3.839 2.075 5.515 1.761 1.286-0.242 2.463-2.445 3.949-3.033 1.971-0.783 6.687-0.492 11.914 2.439-0.282 1.992-0.704 3.94-1.335 5.829 4.68-13.838-1.897-30.867 3.237-45.16 3.72-10.395 4.72-23.286 0.328-33.819z"/>
    </g>
    <g id="epidermis">
        <path d="m998.42 351.45c-2.206-11.377-4.976-20.912-9.016-31.538-1.342-3.545-0.688-6.565-1.306-10.352-0.692-4.208-1.789-4.639-3.852-8.771-3.321-6.653-0.537-14.307-2.869-21.298-4.504-13.455-14.109-24.081-17.76-38.255-2.681-10.427-5.247-20.891-7.958-31.31-4.466-17.136-8.268-31.673-19.755-45.442-5.368-6.437-12.829-10.765-18.09-17.32-7.012-8.742-5.713-13.872-17.425-18.32-5.754-2.183-11.613-3.373-17.319-5.324-4.998-1.707-9.22-5.056-14.576-5.77-18.131-2.406-37.076 4.139-54.119 0.704-7.793-1.578-14.717-5.863-22.451-7.404-9.597-1.915-17.929 3.643-27.029 3.993-10.152 0.393-20.762-0.807-30.812-2.161-9.02-1.213-18.166-1.178-27.243-1.081-8.525 0.092-12.35-1.291-20.319-3.543-3.728-1.049-8.328-2.058-12.073-2.608-21.957-3.224-42.623-8.128-64.446-12.605-11.544-2.373-22.729-4.43-33.818-7.346-11.978-3.155-24.298-4.229-36.256-7.629-9.314-2.65-16.366-7.447-26.027-8.564-11.749-1.354-23.024-7.942-35.509-7.669-11.809 0.25-25.557-4.372-37.305-8.28-9.873-3.28-19.601-5.911-29.336-9.546-10.882-4.064-22.288-8.104-32.301-13.602-10.386-5.712-20.89-7.824-31.768-11.862-6.094-2.259-9.615-9.203-16.021-10.791-6.078-1.508-14.857-1.691-21.341-2.44-18.54-2.137-38.719 0.172-56 7.296-15.519 6.393-34.938 20.256-42.09 36.377-7.867 17.721-19.968 32.972-26.799 51.93-2.942 8.177-6.497 18.563-11.623 25.625-4.168 5.753-7.704 9.057-9.785 16.338-1.918 6.706-6.271 11.708-9.796 17.892-2.705 4.753-2.645 8.393-6.26 12.852-4.1 5.051-7.724 8.972-11.016 14.681-4.883 8.473-8.021 17.253-10.146 26.656-2.251 9.967-6.819 19.295-9.475 29.288-3.608 13.591-3.548 26.946-7.978 40.27-5.102 15.355-4.909 31.805-11.271 47.116-8.983 21.618-11.191 44.634-21.881 66.081-10.624 21.313-18.979 43.895-26.986 66.243-7.833 21.862-19.857 38.165-32.653 57.661-11.896 18.136-20.353 41.764-13.999 63.195 0 0-0.067 6.32 0.942 9.659 0.953 3.155 3.275 6.438 4.421 9.528 2.36 6.372 6.687 11.527 9.361 17.8 2.638 6.176 5.405 12.621 9.985 17.596 6.284 6.807 13.877 9.959 19.071 17.81 7.67 11.607 19.808 20.138 27.097 31.802 4.134 6.625 12.315 9.703 17.373 15.478 5.363 6.127 11.385 14.445 14.005 22.223 2.171 6.427 1.101 10.643 7.353 14.812 4.112 2.741 8.726 4.262 11.949 8.427 3.775 4.877 5.833 10.105 10.261 14.724 30.073 31.36 73.506 40.388 113.64 53.024 10.55 3.321 22.166 10.795 32.348 16.713 19.029 11.044 38.53 20.975 58.085 31.132 10.871 5.649 22.486 10.228 33.647 15.307 5.444 2.481 11.783 3.511 16.888 6.402 5.814 3.298 10.171 7.805 16.17 11.038 4.494 2.419 9.967 5.105 14.135 8.054 3.949 2.784 6.438 7.566 10.817 9.744 3.731 1.866 8.526 1.009 12.475 3.452 4.485 2.771 5.484 6.946 8.96 10.34 7.633 7.454 18.741 9.825 28.488 12.853 6.454 1.997 11.627 6.493 17.664 9.217 12.693 5.714 22.783 8.121 36.669 9.66 10.175 1.139 18.238 4.694 27.903 8.076 10.435 3.664 19.773 2.625 29.348 8.672 3.511 2.218 6.745 5.34 10.627 6.892 6.025 2.422 6.895-0.353 12.192-0.953 11.396-1.3 27.232 5.676 38.92 7.383 11.589 1.691 24.293 4.203 36.669 3.712 10.082-0.395 19.274-6.791 28.924-9.243 9.508-2.406 17.129-6.624 24.491-13.699 5.12-4.914 8.884-13.205 14.134-16.71l-12.293-6.037c-15.505 19.507-34.328 34.312-63.309 33.187-9.759-0.376-19.545 0.706-29.246-0.854-10.92-1.745-21.342-5.609-32.101-8.131-30.977-7.244-61.482-16.352-92.48-23.492-0.165-0.037-47.968-11.067-81.502-41.299-41.848-20.924-148.13-76.544-178.42-95.268-37.997-13.219-88.556-29.886-109.58-47.908-21.029-18.023-36.898-39.652-66.63-74.896-29.74-35.238-41.304-42.402-57.821-61.674-16.521-19.275-35.795-72.136-3.31-109.58 15.421-17.621 19.276-40.752 28.638-55.07 7.495-11.462 13.256-24.044 16.577-37.284 0.726-2.876 1.626-5.736 2.66-8.574 3.43-9.452 8.248-18.698 12.334-27.772 4.549-10.099 6.524-20.466 11.173-30.301 2.844-6.027 6.3-12.103 8.144-18.542 1.629-5.73 0.547-10.847 1.546-16.535 1.74-9.981 7.365-19.163 8.472-29.19 1.044-9.458 2.077-18.473 4.101-28.033 3.979-18.829 7.992-35.872 15.33-53.766 4.035-9.848 9.013-18.762 14.766-27.68 6.151-9.535 7.621-21.024 14.293-30.691 16.321-23.652 27.324-48.676 39.292-74.906 6.275-13.754 13.632-27.243 23.189-39.011 7.614-9.371 19.029-15.198 29.499-20.797 7.348-3.935 15.752-3.231 23.602-5.306 15.318-4.051 29.895 2.035 44.211 6.683 17.588 5.706 34.922 12.149 52.193 18.732 29.199 11.12 58.406 24.143 88.881 31.439 39.095 9.363 137.12 23.679 164.1 35.794 28.774 12.914 67.436 11.118 98.26 12.975 16.805 1.014 33.633 1.757 50.418 3.133 9.177 0.751 18.08 3.286 27.215 4.343 20.266 2.343 42.223-1.436 62.916 0.906 10.839 1.226 23.595 10.862 32.878 16.886 24.54 15.918 33.067 45.706 40.555 72.445 10.744 38.366 26.727 75.134 36.792 113.67 7.828 29.995 7.741 65.323 3.19 95.943-1.589 10.707-4.89 20.335-6.19 31.164-1.416 11.805-4.499 23.334-6.286 35.078-4.15 27.132-11.131 51.668-19.801 77.682-6.215 18.64-14.366 36.682-22.6 54.497-10.545 22.808-21.911 45.226-33.755 67.39-9.93 18.589-19.966 37.111-30.99 55.088-5.444 8.876-11.994 16.992-17.848 25.597-5.055 7.423-7.274 15.69-12.457 22.874-5.356 7.413-8.64 16.099-14.144 23.381-18.815 24.913-35.991 49.979-46.797 79.397-2.277 6.192-5.004 11.729-8.798 17.58-6.782 10.485-13.571 21.148-21.146 30.685l10.82 5.31c10.602-13.339 18.216-26.955 25.53-42.61 7.157-15.307 9.853-29.944 19.99-44.604 4.826-6.987 7.355-14.48 12.512-21.268 5.805-7.648 12.011-14.975 17.589-22.8 3.308-4.647 7.561-9.701 10.442-14.795 5.584-9.867 8.647-18.86 15.669-28.15 8.815-11.656 17.94-23.19 24.649-36.246 5.508-10.715 12.909-20.413 18.409-31.065 5.336-10.348 9.418-21.387 15.276-31.585 5.974-10.387 13.137-20.226 19.533-30.323 7.78-12.292 12.371-26.819 17.904-40.213 4.979-12.055 7.724-23.979 10.948-36.533 2.851-11.104 8.857-21.454 12.735-32.299 2.209-6.144 1.795-11.218 2.74-17.803 1.427-9.889 2.769-19.257 4.251-29.167 2.723-18.202 5.642-36.377 9.115-54.453 3.028-15.732 1.227-29.869 3.584-45.552 1.06-7.158 2.154-15.759 2.503-24.22 0.301-7.024 0.086-13.948-1.069-19.865z"/>
    </g>
    <g id="korteks">
        <path d="m982.91 333.33c-10.065-38.539-26.048-75.306-36.792-113.67-7.487-26.739-16.015-56.527-40.555-72.445-9.283-6.023-22.039-15.66-32.878-16.886-20.693-2.342-42.65 1.438-62.916-0.906-9.135-1.057-18.038-3.592-27.215-4.343-16.785-1.375-33.613-2.119-50.418-3.133-30.824-1.857-69.485-0.061-98.26-12.975-26.985-12.116-125.01-26.432-164.1-35.794-30.475-7.296-59.682-20.319-88.881-31.439-17.271-6.583-34.605-13.026-52.193-18.732-14.317-4.648-28.894-10.733-44.211-6.683-7.849 2.075-16.253 1.371-23.602 5.306-10.47 5.599-21.885 11.426-29.499 20.797-9.557 11.769-16.915 25.257-23.189 39.011-11.968 26.23-22.971 51.253-39.292 74.906-6.672 9.667-8.143 21.156-14.293 30.691-5.753 8.917-10.731 17.832-14.766 27.68-7.337 17.894-11.35 34.938-15.33 53.766-2.024 9.56-3.056 18.575-4.101 28.033-1.107 10.027-6.732 19.209-8.472 29.19-0.999 5.688 0.083 10.804-1.546 16.535-1.844 6.439-5.3 12.515-8.144 18.542-4.649 9.835-6.624 20.202-11.173 30.301-4.086 9.074-8.904 18.32-12.334 27.772-1.033 2.838-1.934 5.698-2.66 8.574-3.321 13.24-9.082 25.822-16.577 37.284-9.362 14.318-13.217 37.449-28.638 55.07-32.485 37.449-13.211 90.31 3.31 109.58 16.517 19.271 28.081 26.436 57.821 61.674 29.732 35.244 45.601 56.873 66.63 74.896 21.029 18.022 71.588 34.689 109.58 47.908 30.289 18.724 136.57 74.344 178.42 95.268 33.534 30.231 81.337 41.262 81.502 41.299 30.998 7.141 61.504 16.248 92.48 23.492 10.759 2.521 21.181 6.386 32.101 8.131 9.701 1.561 19.487 0.479 29.246 0.854 43.156 1.673 63.805-31.952 84.464-63.887 3.794-5.852 6.521-11.388 8.798-17.58 10.806-29.419 27.981-54.484 46.797-79.397 5.504-7.282 8.787-15.968 14.144-23.381 5.183-7.184 7.402-15.451 12.457-22.874 5.854-8.604 12.403-16.721 17.848-25.597 11.024-17.977 21.061-36.499 30.99-55.088 11.844-22.164 23.21-44.582 33.755-67.39 8.233-17.815 16.385-35.857 22.6-54.497 8.67-26.014 15.65-50.55 19.801-77.682 1.787-11.744 4.87-23.273 6.286-35.078 1.301-10.828 4.602-20.457 6.19-31.164 4.552-30.62 4.639-65.947-3.189-95.942zm-20.045 45.225c-0.96 6.52-1.829 12.578-7.353 16.87-6.413 4.978-9.796 9.629-14.696 15.793-3.832 4.817-6.84 10.604-10.936 15.06-1.115 1.216-2.34 2.049-3.596 2.792 0.729 4.05 0.741 8.381-0.296 13.26-1.918 9-8.507 16.826-8.507 26.234 0 3.241-0.355 6.448-0.736 9.621 4.811 1.588 11.274 6.546 12.605 8.659 1.842 2.919 2.619 6.268 4.939 9.16 2.673 3.345 6.162 5.743 7.527 9.996 3.673 11.338 2.058 28.444-3.119 38.913-3.222 6.486-8.202 13.173-13.639 17.904-4.157 3.613-14.337 9.763-21.946 10.709-2.763 5.445-5.881 10.716-8.218 15.638-1.934 4.07-4.005 9.026-6.334 13.943 0.929-1.957 1.818-3.92 2.673-5.831 1.363 0.277 2.735 0.914 4.124 2.131 2.755 2.42 2.474 6.109 3.491 9.278 0.899 2.853 2.438 5.327 4.226 7.623 4.194 5.361 3.124 9.801 1.024 15.873-1.856 5.357-6.162 10.857-10.296 14.675-6.398 5.908-20.697 8.509-25.808-0.227-0.752-1.281-0.944-1.909-1.432-2.507 0.015-0.065 0.027-0.131 0.043-0.196-1.819 8.122-4.005 16.17-7.994 23.466-0.913 1.669-2.008 3.089-3.229 4.337l2e-3 -2e-3c1.024 1.053 1.935 2.328 2.693 3.892 1.41 2.881 0.648 6.169 1.493 9.176 0.659 2.341 2.403 4.24 2.827 6.646 0.707 4.017 0.638 10.803-0.716 14.593-1.225 3.429-4.405 6.425-6.787 9.224-3.987 4.707-6.114 9.467-12.207 11.167-5.229 1.453-11.805 3.565-16.952 0.751-2.239-1.225-4.033-3.93-5.384-6.08-0.428-0.683-1.333-3.662-2.108-6.048-2.781 5.334-6.926 10.071-9.769 15.332-2.183 4.031-3.763 8.348-6.168 12.144 1.304 2.249 2.144 4.702 3.627 6.847 1.551 2.241 3.488 3.227 4.126 5.86 0.687 2.837 0.414 4.294 1.938 6.978 1.1 1.942 1.741 3.416 2.104 5.507 0.703 4.057 0.912 11.874-1.742 15.068-0.967 1.159-2.778 1.393-3.776 2.536-1.166 1.331-1.134 2.938-1.916 4.425-1.787 3.395-3.061 2.962-6.496 4.404-2.603 1.088-4.928 2.914-7.344 4.129-4.245 2.134-3.689 3.291-5.792 7.271-3.646 6.887-10.688 1.9-16.605 4.09-3.199 1.19-5.715 3.924-9.195 3.965-1.85 0.026-3.347-0.936-4.916-1.614-0.061 0.16-0.114 0.322-0.179 0.48-3.856 9.527-9.962 14.494-14.557 23.042-2.278 4.244-4.216 8.647-6.137 13.059 0.053 0.108 0.085 0.223 0.143 0.334 1.318 2.66 2.781 5.209 3.937 8.096 2.417 6.015 4.623 11.122 5.591 17.525 0.918 5.979 0.858 14.552-1.91 19.885-3.269 6.278-8.026 11.788-11.837 17.644-3.708 5.706-8.421 12.123-14.598 15.336-3.505 1.826-7.395 3.486-10.665 5.855-2.359 1.716-3.842 4.166-6.304 5.891-10.915 7.617-23.325 7.18-35.898 5.955-3.298-0.316-5.426-0.798-8.433-1.744-3.489-1.099-7.162-0.729-10.657-1.643-3.517-0.919-5.539-2.718-8.343-4.792-2.654-1.959-5.678-2.707-8.543-4.376-4.729-2.747-6.714-8.097-9.092-12.848-1.712-3.438-1.484-7.35-1.575-11.051-2.923 0.935-5.495 1.439-9.967 0.255-10.49-2.781-19.228-9.88-29.721-12.584-0.248 0.164-0.476 0.308-0.654 0.4-6.4 3.431-12.58 6.74-19.469 8.733-6.452 1.865-12.135 2.749-18.359 5.967-5.999 3.097-10.599 6.121-17.622 5.778-7.683-0.374-14.174-0.666-20.658-5.034-11.072-7.468-22.45-17.18-24.863-30.943-1.24-7.073-7.079-10.671-8.812-17.641-0.814-3.277-1.029-6.854-1.751-10.246 0.302 0.107 0.601 0.211 0.902 0.317-10.601-3.745-21.803-7.942-32.188-12.996-3.547 4.096-6.905 7.496-8.043 7.977-5.244 2.219-8.953 6.045-14.032 8.275-11.722 5.154-24.862-1.793-31.576-11.646-3.994-5.857-7.598-13.452-7.997-20.492-0.195-3.551 0-7.168 0-10.721 0-1.503 0.325-3.796 0.462-5.936-4.392-0.773-8.782-2.226-13.883-5.917-5.746 6.287-16.209 8.662-24.727 9.619-11.537 1.29-25.285-4.524-29.025-16.544-1.089-3.517-0.617-5.257-2.924-8.441-1.615-2.227-3.4-4.25-4.664-6.613-1.001-1.881-1.584-4.992-1.476-8.08-1.888-1.485-3.729-3.261-5.919-5.195-9.667-8.541-21.771-13.767-32.546-20.826-5.257-3.44-10.836-6.384-16.201-9.652 3.978 2.424 8.07 4.675 12.066 7.078-1.611 2.798-4.21 5.976-5.937 7.31-3.908 3.011-8.934 4.914-13.575 6.234-5.999 1.703-11.857 3.626-18.36 3.306-3.272-0.167-6.585-0.552-9.932-0.745-3.717-0.216-5.262-1.842-8.424-3.416-8.774-4.361-24.91-6.221-28.907-16.868-1.019-2.709-0.813-6.011-1.838-8.72-1.298-3.426-4.226-5.011-6.703-7.693-5.11-5.528-6.892-12.947-6.97-20.208-0.079-7.174 0.862-13.591 3.404-20.194 1.191-3.09 2.841-6.268 3.211-9.542 0.272-2.39 0.122-4.82-0.065-7.246 0.014 0.013 0.028 0.025 0.042 0.038-4.817-4.471-9.448-9.135-13.771-14.091-4.196-4.802-10.097-10.796-13.091-16.764-6.777-1.791-13.939-1.984-20.753-4.115-6.241-1.946-13.2-1.664-18.438-5.677-2.772-2.121-5.522-4.697-8.086-7.262-2.694-2.689-6.261-4.865-8.432-8.076-2.492-3.675-3.548-8.26-5.42-12.389-2.107-4.656-3.673-8.327-3.404-13.603 0.216-4.175 0.889-8.37 1.109-12.575 0.215-4.018-0.307-7.406 1.744-10.995 3.282-5.727 7.926-14.651 13.661-18.454 4.301-2.863 11.69-3.819 16.537-5.316 4.262-1.316 8.548-1.18 12.919-0.99-2e-3 8e-3 -4e-3 0.015-6e-3 0.022 1.068-3.907 2.438-7.813 3.755-11.313 9.989-26.482 15.181-32.092 20.979-43.801-2.589 5.228-5.056 9.24-7.884 14.438-3.764-1.953-7.766-4.087-10.03-6.887-5.568-6.886-1.06-11.441 2.208-17.624 3.775-7.132 1.169-15.245 2.565-22.85 1.129-6.163 3.8-14.181 7.889-18.917 3.268-3.788 7.406-7.337 12.402-8.443 1.862-0.414 3.745-0.946 5.488-1.225 0.016 0.919 0.026 1.833 0.019 2.751 0.042-6.314-0.547-12.551 0.325-18.849 1.499-10.844 6.524-20.136 12.849-28.932 8.801-12.245 8.347-27.328 6.208-41.435-1.143-7.487 4.247-15.484 6.564-22.481 2.534-7.652 3.121-15.877 5.012-23.8-1.098-0.733-2.161-1.298-3.048-1.574-3.844-1.182-7.861-0.145-7.368-5.817 0.23-2.689 1.763-4.99 1.849-7.699 0.155-4.552-1.876-2.949-3.976-5.874-1.865-2.612-0.148-6.163-0.447-8.83-0.359-3.19-1.761-6.413-1.008-9.902 0.892-4.125 1.111-4.423-0.187-8.728-0.866-2.886-1.01-6.277 0.103-9.284 2.228-5.974 6.778-13.377 10.739-18.334 2.223-2.784 3.653-4.891 6.968-6.332 3.312-1.441 6.88-1.861 9.379-4.673 2.996-3.372 3.316-4.096 7.792-5.248 3.797-0.979 5.045-2.761 8.075-5.405 5.105-4.454 10.521-4.508 16.469-4.86 6.228-13.445 13.16-27.083 23.541-37.721 5.55-5.686 12.496-9.194 17.394-15.298-0.776 0.954-1.609 1.837-2.468 2.687-4.279-1.568-10.75-2.946-11.669-3.251-4.872-1.606-7.187-8.466-9.812-12.41-1.667-2.513-4.119-3.743-4.144-6.963-0.02-2.156 1.856-5.805 2.958-7.713 1.445-2.517 4.039-4.273 5.409-6.692 1.637-2.889 1.952-5.234 4.43-8.011 3.812-4.264 6.433-10.176 11.819-12.765 2.368-1.141 4.922-1.432 7.251-3.092 2.058-1.46 3.922-3.391 5.882-4.783 9.394-6.667 22.327-4.07 33.488-5.755 6.876-1.037 11.335 2.969 17.993 3.654 3.866 0.397 6.056 0.144 9.171 2.577 2.458 1.913 4.196 4.004 6.155 6.336 3.79 4.498 4.86 9.319 9.271 13.112 6.88 5.918-2.089 6.145-4.047 11.006-0.589 1.464-0.51 2.891-0.669 4.333-3.074-0.736-5.917-2.55-9.024-3.102 3.414 0.614 6.5 2.763 9.935 3.305 4.062 0.643 9.21-0.08 13.435 0.096 12.542 0.515 24.736 3.627 36.53 7.798 8.295 2.933 15.985 11.567 25.248 11.332 7.364-0.186 8.707-2.943 16.896-0.332 1.742 0.556 3.354 1.126 4.874 1.705-0.395-0.15-0.792-0.301-1.201-0.45 0.854-2.157 2.53-4 4.913-4.878 4.951-1.821 13.038-0.342 18.375-0.342 8.378 0 22.312 5.791 25.334 14.682 0.31 0.916 0.397 1.739 0.351 2.513-0.204 8e-3 -0.413 0.017-0.617 0.025 20.341-0.819 34.817-0.234 45.995 7.389 11.371 7.753 23.713 10.655 34.292 11.89-10.357-1.211-22.401-4.03-33.572-11.422-0.068-1.635 0.782-3.316 3.355-5.344 4.2-3.298 11.386-3.88 16.35-2.201 2.366 0.799 3.649 2.854 5.519 4.4 2.351 1.953 5.158 3.003 7.612 4.774 3.794 2.738 6.44 6.073 5.962 10.403 3.068 0.429 6.728 1.075 10.639 1.875-0.744-1.759-1.446-3.446-1.641-5.497-0.467-4.94 6.406-8.592 10.711-10.83 9.531-4.955 27.558-2.519 34.438 6.435 2.26 2.94 1.771 6.324 4.484 9.104 2.828 2.894 6.344 4.601 4.327 9.169-0.877 1.973-2.427 3.324-4.261 4.378-0.711-0.043-1.418-0.095-2.12-0.155 10.278 0.876 21.615-0.182 30.76 1.8 3.595 0.778 7.723 1.68 11.746 2.919 5.036-6.075 23.78-5.921 28.639-4.628 5.385 1.43 10.403 4.332 15.989 5.668 5.932 1.421 10.651 2.687 15.785 6.609 2.616 2.002 7.623 8.607 7.353 11.961-0.153 1.904-1.943 3.706-2.11 6.238 15.711-2.748 31.583-2.92 47.229 0.76 1.421 0.334 2.809 0.739 4.184 1.169 2.797-3.67 7.793-5.81 12.522-6.922 2.996-0.706 5.978-0.834 9.075-0.826 7.354 0.017 14.928-1.932 22.031-3.637 8.43-2.018 15.292-1.241 23.779 0.81 3.96 0.955 8.924 1.659 12.565 3.478 3.549 1.767 5.587 4.694 8.433 7.095 6.016 5.074 11.093 8.221 13.873 16.036 2.5 7.031 0.108 13.381-2.767 19.556-2.723 5.846-5.847 10.324-7.404 16.521-1.319 5.242-4.172 12.188-8.36 15.878-0.565 0.495-1.195 1.024-1.854 1.548-1.179-1.948-2.346-3.902-3.498-5.862 5.941 10.113 12.292 20.065 18.366 29.938 3.821 6.205 5.66 13.362 6.92 20.654 2.006 0.05 4.032 0.309 5.77 0.564 3.41 0.498 7.737 0.521 11.024 1.561 6.289 1.989 10.071 8.442 16.065 10.921 6.245 2.582 11.888 7.581 15.406 13.328 3.208 5.266 3.872 11.323 7.162 16.704 3.65 5.96 8.325 11.972 7.271 19.17z"/>
    </g>
    <g id="floem">
        <path d="m184.04 280.68c2.346-6.805 3.744-14.351 7.322-20.533 4.774-8.248 11.348-14.926 15.012-23.926 3.362-8.262 4.447-17.629 8.057-25.549 1.78-3.905 5.258-6.643 7.164-10.42 0.295-0.573 0.544-1.148 0.775-1.734 1.328-3.397 1.77-6.931 3.329-10.351 0.699-1.527 1.403-3.065 2.118-4.6h-3e-3c-5.948 0.352-11.364 0.407-16.469 4.86-3.03 2.644-4.277 4.426-8.075 5.405-4.476 1.152-4.796 1.876-7.792 5.248-2.5 2.812-6.067 3.232-9.379 4.673-3.314 1.441-4.745 3.548-6.968 6.332-3.961 4.957-8.511 12.361-10.739 18.334-1.112 3.007-0.968 6.398-0.103 9.284 1.298 4.305 1.079 4.603 0.187 8.728-0.753 3.489 0.649 6.712 1.008 9.902 0.299 2.667-1.418 6.218 0.447 8.83 2.099 2.925 4.131 1.322 3.976 5.874-0.086 2.709-1.619 5.01-1.849 7.699-0.493 5.673 3.524 4.635 7.368 5.817 0.887 0.276 1.95 0.841 3.048 1.574 6e-3 4e-3 0.013 8e-3 0.019 0.012 0.439-1.837 0.922-3.664 1.547-5.459z"/>
        <path d="m274.94 122.02c3.806-2.582 8.971-1.969 12.776-4.793 5.265-3.913 4.63-8.168 12.437-9.338 6.127-0.921 11.283-0.971 17.573-2.621 3.528-0.925 7.439-0.543 10.802-1.472 3.272-0.905 6.419-3.974 9.781-4.223 0.272-0.021 0.541-0.026 0.808-0.022 0.042 0 0.083 5e-3 0.125 6e-3 0.228 6e-3 0.455 0.019 0.68 0.041 0.031 3e-3 0.063 8e-3 0.094 0.012 0.24 0.026 0.479 0.06 0.716 0.102 5e-3 0 9e-3 1e-3 0.014 2e-3 3.108 0.552 5.95 2.366 9.024 3.102 0.159-1.442 0.08-2.87 0.669-4.333 1.958-4.861 10.927-5.088 4.047-11.006-4.411-3.793-5.481-8.614-9.271-13.112-1.958-2.332-3.696-4.424-6.155-6.336-3.116-2.433-5.306-2.18-9.171-2.577-6.657-0.685-11.116-4.69-17.993-3.654-11.162 1.686-24.094-0.912-33.488 5.755-1.96 1.392-3.824 3.323-5.882 4.783-2.329 1.66-4.883 1.951-7.251 3.092-5.386 2.589-8.007 8.501-11.819 12.765-2.478 2.777-2.793 5.123-4.43 8.011-1.37 2.419-3.964 4.175-5.409 6.692-1.101 1.908-2.978 5.557-2.958 7.713 0.025 3.221 2.477 4.45 4.144 6.963 2.625 3.943 4.94 10.804 9.812 12.41 0.918 0.305 7.39 1.683 11.669 3.251 0.859-0.85 1.692-1.733 2.468-2.687 0.275-0.338 0.544-0.685 0.804-1.042 2.169-2.989 1.924-5.136 5.384-7.484z"/>
        <path d="m449.48 124.34c0.269 0.108 0.528 0.218 0.791 0.327 0.218 0.09 0.439 0.18 0.654 0.271 0.289 0.122 0.57 0.244 0.852 0.366 0.178 0.077 0.359 0.154 0.535 0.231 0.293 0.129 0.58 0.258 0.867 0.387 0.155 0.069 0.312 0.139 0.464 0.208 0.308 0.14 0.61 0.279 0.911 0.418 0.117 0.054 0.236 0.109 0.352 0.163 0.331 0.154 0.657 0.308 0.979 0.461 0.077 0.036 0.153 0.073 0.229 0.109 1.787 0.85 3.466 1.68 5.114 2.467 0.08 0.039 0.16 0.077 0.24 0.115 0.282 0.134 0.563 0.266 0.843 0.397 0.12 0.056 0.241 0.113 0.36 0.168 0.25 0.116 0.499 0.229 0.748 0.342 0.142 0.064 0.284 0.129 0.426 0.193 0.234 0.105 0.47 0.208 0.705 0.31 0.152 0.066 0.305 0.134 0.458 0.2 0.233 0.1 0.468 0.196 0.702 0.293 0.155 0.064 0.309 0.13 0.464 0.193 0.363 0.147 0.729 0.29 1.097 0.43 0.216 0.083 0.436 0.161 0.654 0.241 0.191 0.07 0.381 0.141 0.574 0.209 0.218 0.077 0.439 0.149 0.66 0.223 0.185 0.062 0.369 0.125 0.556 0.185 0.222 0.071 0.448 0.139 0.674 0.207 0.19 0.058 0.38 0.117 0.573 0.173 0.23 0.067 0.465 0.13 0.699 0.193 0.194 0.053 0.389 0.106 0.586 0.157 0.239 0.061 0.483 0.119 0.727 0.178 0.2 0.047 0.4 0.095 0.603 0.141 0.247 0.055 0.498 0.107 0.75 0.16 0.21 0.043 0.421 0.086 0.634 0.126 0.255 0.049 0.515 0.095 0.775 0.141 0.218 0.038 0.438 0.075 0.66 0.11 0.267 0.042 0.536 0.083 0.808 0.121 0.229 0.033 0.461 0.063 0.695 0.093 0.275 0.035 0.552 0.069 0.833 0.1 0.245 0.027 0.494 0.051 0.743 0.075 0.283 0.027 0.567 0.054 0.856 0.078 0.261 0.021 0.529 0.039 0.796 0.057 0.291 0.02 0.582 0.039 0.881 0.055 0.282 0.015 0.573 0.025 0.861 0.036 0.297 0.012 0.591 0.024 0.896 0.032 0.314 8e-3 0.641 0.01 0.963 0.014 0.293 3e-3 0.581 9e-3 0.881 9e-3 0.372 0 0.757-8e-3 1.139-0.013 0.268-4e-3 0.528-5e-3 0.802-0.012 0.662-0.016 1.339-0.04 2.035-0.073 1.204-0.058 2.374-0.11 3.531-0.159 0.567-0.024 1.131-0.047 1.692-0.069 0.204-8e-3 0.413-0.018 0.617-0.025 0.046-0.774-0.042-1.598-0.351-2.513-3.022-8.891-16.956-14.682-25.334-14.682-5.336 0-13.423-1.479-18.375 0.342-2.382 0.878-4.059 2.721-4.913 4.878 0.409 0.149 0.806 0.3 1.201 0.45 0.108 0.041 0.222 0.082 0.329 0.123 0.514 0.196 1.011 0.393 1.498 0.59z"/>
        <path d="m580.33 155.06v-4e-3c0.479-4.33-2.168-7.665-5.962-10.403-2.454-1.771-5.262-2.822-7.612-4.774-1.869-1.546-3.152-3.601-5.519-4.4-4.964-1.679-12.149-1.097-16.35 2.201-2.573 2.028-3.424 3.709-3.355 5.344 11.171 7.392 23.215 10.211 33.572 11.422 0.691 0.081 1.375 0.155 2.051 0.222 0.957 0.097 2.038 0.235 3.175 0.392z"/>
        <path d="m610.48 161.77c0.086 0.025 0.172 0.051 0.257 0.077 0.628 0.187 1.247 0.375 1.854 0.565 0.023 7e-3 0.047 0.015 0.07 0.021 0.635 0.198 1.257 0.398 1.867 0.599 0.089 0.029 0.175 0.059 0.264 0.088 0.493 0.163 0.977 0.327 1.45 0.491 0.142 0.049 0.282 0.097 0.421 0.146 0.498 0.174 0.986 0.349 1.461 0.524 0.053 0.02 0.108 0.039 0.16 0.058 0.516 0.191 1.013 0.383 1.497 0.574 0.13 0.051 0.254 0.103 0.381 0.154 0.36 0.145 0.71 0.289 1.05 0.434 0.131 0.056 0.263 0.111 0.391 0.167 0.438 0.19 0.862 0.38 1.261 0.569 0.532 0.252 1.078 0.48 1.631 0.699 0.127 0.05 0.254 0.1 0.382 0.148 1.125 0.426 2.287 0.788 3.483 1.094 0.109 0.028 0.219 0.056 0.329 0.083 1.233 0.304 2.498 0.553 3.791 0.755 0.079 0.012 0.157 0.025 0.235 0.037 1.336 0.203 2.698 0.359 4.081 0.479 0.038 3e-3 0.076 6e-3 0.115 0.01 0.702 0.06 1.409 0.111 2.12 0.155 1.834-1.055 3.384-2.406 4.261-4.378 2.017-4.569-1.499-6.275-4.327-9.169-2.714-2.78-2.225-6.164-4.484-9.104-6.881-8.953-24.907-11.389-34.438-6.435-4.305 2.238-11.178 5.89-10.711 10.83 0.194 2.051 0.896 3.738 1.641 5.497v1e-3c6.338 1.294 13.33 2.996 19.507 4.831z"/>
        <path d="m687.92 177.67c0.063 0.034 0.128 0.066 0.19 0.1 0.424 0.228 0.834 0.466 1.238 0.709 0.104 0.063 0.21 0.122 0.313 0.185 0.376 0.232 0.737 0.477 1.095 0.724 0.108 0.075 0.221 0.145 0.327 0.221 0.449 0.323 0.885 0.657 1.299 1.005 4.097 3.451 5.838 8.832 10.73 11.447 5.937 3.172 11.408 3.225 17.171 7.204 7.463 5.149 12.504 3.289 20.42 1.664 1.456-0.296 2.908-0.543 4.365-0.795 1e-3 -9e-3 3e-3 -0.018 4e-3 -0.027 0.167-2.532 1.957-4.334 2.11-6.238 0.271-3.354-4.736-9.959-7.353-11.961-5.134-3.922-9.854-5.188-15.785-6.609-5.586-1.337-10.604-4.238-15.989-5.668-4.858-1.293-23.603-1.446-28.639 4.628-3e-3 4e-3 -7e-3 7e-3 -0.01 0.011 2.985 0.918 5.908 2.021 8.514 3.4z"/>
        <path d="m806.04 205.08c0.191 0.052 0.384 0.102 0.575 0.152 0.543 0.142 1.09 0.273 1.641 0.396 0.216 0.048 0.43 0.099 0.647 0.144 0.739 0.153 1.485 0.292 2.244 0.399 7.075 1.002 14.651-0.232 21.343 2.822 7.958 3.638 12.939 9.228 18.498 16.009 5.725 6.977 9.762 14.354 14.008 22.757 1.029 2.037 2.091 4.064 3.178 6.084 0.36 0.67 0.739 1.334 1.105 2.001 0.729 1.332 1.455 2.665 2.204 3.99 0.921 1.627 1.862 3.248 2.809 4.866 0.196 0.336 0.386 0.674 0.583 1.01 1.152 1.96 2.319 3.914 3.498 5.862 0.658-0.523 1.288-1.053 1.854-1.548 4.188-3.69 7.041-10.636 8.36-15.878 1.558-6.197 4.682-10.675 7.404-16.521 2.875-6.175 5.267-12.525 2.767-19.556-2.78-7.815-7.857-10.962-13.873-16.036-2.846-2.401-4.884-5.328-8.433-7.095-3.642-1.818-8.605-2.523-12.565-3.478-8.487-2.051-15.35-2.828-23.779-0.81-7.104 1.705-14.678 3.654-22.031 3.637-3.098-8e-3 -6.079 0.121-9.075 0.826-4.729 1.112-9.726 3.252-12.522 6.922l-1e-3 1e-3c3.204 1.004 6.328 2.159 9.561 3.044z"/>
        <path d="m948.43 342.68c-3.519-5.747-9.161-10.746-15.406-13.328-5.994-2.479-9.776-8.933-16.065-10.921-3.287-1.04-7.614-1.063-11.024-1.561-1.737-0.255-3.764-0.514-5.77-0.564 0.565 3.289 1.019 6.599 1.479 9.867 0.127 0.901 0.255 1.802 0.386 2.695 0.043 0.292 0.089 0.582 0.133 0.873 0.192 1.279 0.391 2.55 0.608 3.8 1.126 6.462 3.517 11.283 5.584 17.062 2.22 6.218 0.564 12.068 1.906 18.505 1.473 7.026 4.725 9.521 3.695 16.852-0.089 0.643-0.188 1.269-0.289 1.892-0.255 1.585-0.525 3.116-0.718 4.611-2e-3 0.014-4e-3 0.027-6e-3 0.04-0.086 0.672-0.154 1.338-0.198 2.001-1e-3 0.02-5e-3 0.04-6e-3 0.059l2e-3 8e-3 2.298 10.039 4e-3 0.018c4.607 8.007 9.088 14.931 10.908 22.825 4e-3 0.017 8e-3 0.033 0.012 0.05 0.118 0.519 0.227 1.041 0.321 1.569 0 0 1e-3 0 1e-3 -1e-3 1.256-0.744 2.48-1.577 3.596-2.792 4.096-4.457 7.104-10.243 10.936-15.06 4.9-6.164 8.283-10.815 14.696-15.793 5.523-4.292 6.393-10.35 7.353-16.87 1.054-7.198-3.621-13.21-7.273-19.173-3.291-5.38-3.955-11.437-7.163-16.703z"/>
        <path d="m915.86 487.53c-0.264 7.57 3.663 15.111 0.137 22.487-3.402 7.11-9.783 9.437-10.835 17.636-1.088 8.542 4.082 15.219 4.406 23.501 0.018 0.443 0.022 0.888 0.017 1.332-1e-3 0.132-8e-3 0.265-0.012 0.397-9e-3 0.313-0.019 0.624-0.038 0.937-0.01 0.159-0.023 0.317-0.035 0.477-0.022 0.287-0.048 0.575-0.078 0.863-0.019 0.166-0.038 0.333-0.059 0.499-0.035 0.283-0.074 0.566-0.117 0.85-0.025 0.166-0.051 0.331-0.078 0.497-0.049 0.29-0.103 0.579-0.158 0.869-0.031 0.156-0.06 0.313-0.092 0.469-0.066 0.319-0.14 0.64-0.216 0.959-0.028 0.124-0.055 0.248-0.086 0.371-0.109 0.445-0.226 0.891-0.352 1.336-3e-3 0.011-7e-3 0.022-0.01 0.033-0.121 0.431-0.251 0.86-0.387 1.291-0.047 0.147-0.097 0.295-0.146 0.443-0.096 0.293-0.192 0.587-0.294 0.88-0.06 0.175-0.123 0.349-0.186 0.522-0.096 0.268-0.192 0.534-0.292 0.801-0.068 0.183-0.139 0.365-0.209 0.549-0.102 0.261-0.204 0.522-0.309 0.783-0.073 0.181-0.146 0.361-0.22 0.542-0.111 0.269-0.225 0.536-0.339 0.805-0.071 0.168-0.143 0.337-0.215 0.505-0.137 0.313-0.276 0.625-0.417 0.938-0.054 0.119-0.106 0.239-0.16 0.358-0.408 0.895-0.833 1.785-1.27 2.672-0.017 0.034-0.034 0.068-0.051 0.103-0.213 0.431-0.428 0.86-0.646 1.289 7.609-0.946 17.789-7.096 21.946-10.709 5.437-4.731 10.417-11.418 13.639-17.904 5.177-10.469 6.792-27.575 3.119-38.913-1.365-4.253-4.854-6.65-7.527-9.996-2.32-2.892-3.098-6.24-4.939-9.16-1.331-2.113-7.795-7.071-12.605-8.659-1e-3 0-3e-3 -1e-3 -4e-3 -1e-3 -0.372 3.148-0.782 6.265-0.882 9.348z"/>
        <path d="m887.57 605.16c-0.07 0.143-0.142 0.283-0.212 0.425-0.232 0.469-0.468 0.935-0.706 1.398-0.12 0.235-0.241 0.471-0.363 0.704-0.214 0.41-0.431 0.815-0.648 1.22-0.113 0.211-0.226 0.424-0.341 0.634-0.307 0.558-0.618 1.108-0.934 1.652-0.127 0.219-0.256 0.432-0.385 0.647-0.218 0.368-0.438 0.731-0.661 1.091-0.14 0.225-0.279 0.448-0.421 0.67-0.261 0.408-0.524 0.808-0.792 1.202-0.096 0.142-0.189 0.288-0.285 0.428-0.353 0.51-0.712 1.003-1.075 1.485-0.122 0.162-0.247 0.319-0.37 0.479-0.274 0.353-0.551 0.696-0.831 1.031-0.125 0.149-0.25 0.299-0.376 0.445-0.396 0.457-0.797 0.902-1.207 1.321-4.066 4.144-6.783 3.414-8.366 10.21-0.55 2.368-1.063 4.766-1.575 7.174-0.464 2.18-0.927 4.367-1.415 6.549-0.016 0.065-0.028 0.131-0.043 0.196 0.487 0.598 0.68 1.226 1.432 2.507 5.11 8.735 19.409 6.135 25.808 0.227 4.134-3.817 8.439-9.317 10.296-14.675 2.1-6.072 3.17-10.512-1.024-15.873-1.787-2.296-3.326-4.771-4.226-7.623-1.018-3.169-0.736-6.858-3.491-9.278-1.389-1.217-2.761-1.854-4.124-2.131-0.854 1.911-1.744 3.874-2.673 5.831-0.011 0.024-0.021 0.048-0.033 0.071-0.316 0.663-0.634 1.325-0.959 1.983z"/>
        <path d="m854.21 672.83c-0.242 0.213-0.489 0.418-0.738 0.621-0.159 0.13-0.319 0.259-0.48 0.385-0.268 0.207-0.536 0.411-0.811 0.609-0.135 0.097-0.271 0.19-0.407 0.285-3.586 2.498-7.72 4.285-11.623 6.466-0.084 0.047-0.167 0.095-0.25 0.142-0.398 0.225-0.793 0.454-1.185 0.689-0.137 0.082-0.273 0.164-0.409 0.248-0.357 0.219-0.71 0.445-1.061 0.675-0.133 0.088-0.267 0.173-0.398 0.262-0.468 0.316-0.931 0.642-1.383 0.984-9.509 7.197-11.786 16.325-15.519 26.959-0.462 1.331-1.065 2.604-1.717 3.852 4e-3 0.012 8e-3 0.023 0.012 0.035 0.775 2.386 1.681 5.365 2.108 6.048 1.351 2.15 3.145 4.855 5.384 6.08 5.147 2.814 11.724 0.702 16.952-0.751 6.093-1.7 8.22-6.46 12.207-11.167 2.382-2.799 5.563-5.795 6.787-9.224 1.354-3.79 1.423-10.576 0.716-14.593-0.424-2.405-2.168-4.305-2.827-6.646-0.845-3.007-0.083-6.295-1.493-9.176-0.759-1.563-1.669-2.839-2.693-3.892l-2e-3 2e-3c-0.216 0.221-0.443 0.427-0.667 0.637-0.167 0.158-0.332 0.319-0.503 0.47z"/>
        <path d="m799.49 746.2c-0.059 0.063-0.115 0.126-0.175 0.188-0.354 0.371-0.723 0.733-1.114 1.082-7.229 6.443-17.054 11.052-22.992 18.83-5.205 6.801-9.884 14.628-13.265 22.504-0.201 0.469-0.388 0.943-0.563 1.421-9e-3 0.023-0.016 0.048-0.024 0.07-2.543 7.006-2.449 14.889-5.051 21.688 5e-3 2e-3 0.011 5e-3 0.016 7e-3 1.569 0.679 3.066 1.641 4.916 1.614 3.48-0.041 5.996-2.774 9.195-3.965 5.918-2.189 12.96 2.797 16.605-4.09 2.103-3.979 1.547-5.137 5.792-7.271 2.416-1.215 4.741-3.041 7.344-4.129 3.436-1.442 4.709-1.01 6.496-4.404 0.782-1.486 0.75-3.094 1.916-4.425 0.998-1.144 2.81-1.377 3.776-2.536 2.654-3.194 2.445-11.012 1.742-15.068-0.362-2.091-1.004-3.564-2.104-5.507-1.523-2.684-1.251-4.141-1.938-6.978-0.638-2.634-2.575-3.619-4.126-5.86-1.483-2.145-2.323-4.598-3.627-6.847-4e-3 -8e-3 -8e-3 -0.015-0.012-0.021-0.818 1.304-1.735 2.548-2.807 3.697z"/>
        <path d="m732.6 855.02c-0.051 0.112-0.1 0.225-0.15 0.337-0.292 0.646-0.598 1.285-0.897 1.927-0.226 0.481-0.444 0.967-0.675 1.446-0.53 1.101-1.074 2.194-1.64 3.278-5.058 9.715-10.708 13.064-19.413 19.577-6.943 5.196-12.923 12.728-20.379 17.118-7.279 4.283-13.067 1.942-21.443 1.216-8.447-0.738-13.206 5.654-20.604 7.022-8.248 1.527-16.314-2.137-24.525-0.053-0.479 0.121-0.923 0.248-1.359 0.375-0.223 0.064-0.438 0.129-0.65 0.195-0.151 0.046-0.299 0.092-0.445 0.139-1.145 0.362-2.18 0.724-3.161 1.039v2e-3c0.091 3.701-0.137 7.612 1.575 11.051 2.378 4.751 4.362 10.101 9.092 12.848 2.865 1.669 5.889 2.417 8.543 4.376 2.804 2.074 4.826 3.873 8.343 4.792 3.495 0.913 7.168 0.544 10.657 1.643 3.007 0.946 5.135 1.428 8.433 1.744 12.573 1.225 24.983 1.662 35.898-5.955 2.462-1.725 3.944-4.175 6.304-5.891 3.271-2.369 7.16-4.029 10.665-5.855 6.177-3.213 10.89-9.63 14.598-15.336 3.811-5.855 8.568-11.365 11.837-17.644 2.769-5.333 2.828-13.906 1.91-19.885-0.968-6.403-3.174-11.511-5.591-17.525-1.155-2.887-2.618-5.436-3.937-8.096-0.058-0.111-0.09-0.226-0.143-0.334l-3e-3 -6e-3c-0.937 2.155-1.872 4.312-2.84 6.455z"/>
        <path d="m575.92 895.91c-7.169-1.497-17.193-3.327-23.187-7.873-2.829-2.137-4.298-5.458-6.885-7.777-4.406-3.958-5.98-2.191-10.776-3.688-10.252-3.192-17.607-8.135-28.965-8.764-10.496-1.62-18.627-6.779-28.235-10.129-2.401-0.834-4.877-1.692-7.394-2.571-0.127-0.044-0.255-0.089-0.382-0.134-1.133-0.396-2.273-0.795-3.421-1.2-0.13-0.045-0.259-0.091-0.389-0.137-0.301-0.106-0.6-0.21-0.902-0.317 0.722 3.393 0.937 6.969 1.751 10.246 1.732 6.97 7.571 10.567 8.812 17.641 2.413 13.764 13.791 23.476 24.863 30.943 6.484 4.368 12.975 4.66 20.658 5.034 7.023 0.343 11.623-2.682 17.622-5.778 6.225-3.218 11.907-4.102 18.359-5.967 6.889-1.993 13.068-5.303 19.469-8.733 0.179-0.093 0.406-0.236 0.654-0.4 2e-3 -2e-3 4e-3 -3e-3 7e-3 -5e-3 -0.551-0.139-1.1-0.279-1.659-0.391z"/>
        <path d="m433.66 840.42c-0.817-0.399-1.627-0.805-2.433-1.215-0.389-0.198-0.775-0.398-1.161-0.599-1.021-0.532-2.035-1.07-3.034-1.621-0.188-0.104-0.372-0.21-0.56-0.314-0.949-0.528-1.886-1.067-2.813-1.614-0.208-0.123-0.418-0.245-0.626-0.369-1.027-0.614-2.036-1.242-3.03-1.881-0.207-0.133-0.412-0.268-0.618-0.402-1.026-0.669-2.04-1.347-3.025-2.043-9.366-6.604-8.261-13.765-23.133-18.723-0.486-0.162-0.965-0.313-1.438-0.454-0.163-0.049-0.321-0.092-0.483-0.139-0.303-0.088-0.606-0.176-0.904-0.256-0.21-0.056-0.417-0.106-0.624-0.16-0.239-0.061-0.479-0.122-0.714-0.179-0.246-0.06-0.488-0.113-0.73-0.167-0.185-0.042-0.369-0.084-0.551-0.123-0.287-0.061-0.57-0.117-0.852-0.173-0.123-0.023-0.245-0.048-0.367-0.071-0.34-0.064-0.676-0.125-1.01-0.182-0.042-7e-3 -0.083-0.015-0.125-0.021-4.529-0.766-8.522-0.922-12.509-1.623v9e-3c-0.137 2.14-0.462 4.433-0.462 5.936 0 3.553-0.195 7.17 0 10.721 0.398 7.04 4.003 14.635 7.997 20.492 6.714 9.854 19.854 16.801 31.576 11.646 5.079-2.23 8.789-6.057 14.032-8.275 1.138-0.48 4.497-3.881 8.043-7.977l1e-3 -1e-3c-0.15-0.074-0.297-0.149-0.447-0.222z"/>
        <path d="m357.83 801.28c-0.052-0.04-0.103-0.076-0.154-0.117-0.44-0.343-0.885-0.702-1.338-1.084-5.458-4.58-6.873-11.465-12.051-15.997-4.772-4.172-12.829-6.427-18.775-7.971-6.09-1.574-12.092 0.722-18.197 0.335-0.568-0.036-1.108-0.094-1.632-0.164-0.153-0.021-0.299-0.047-0.448-0.07-0.371-0.059-0.733-0.122-1.083-0.197-0.153-0.033-0.305-0.067-0.454-0.104-0.35-0.084-0.69-0.177-1.022-0.277-0.117-0.036-0.237-0.069-0.352-0.107-0.905-0.296-1.749-0.651-2.548-1.065-0.023-0.013-0.045-0.025-0.069-0.038-0.38-0.198-0.75-0.41-1.114-0.633-0.048-0.029-0.096-0.06-0.143-0.09-0.361-0.226-0.717-0.461-1.067-0.709-0.014-0.01-0.028-0.02-0.042-0.029-0.38-0.27-0.755-0.552-1.128-0.846v5e-3c-0.108 3.088 0.475 6.199 1.476 8.08 1.264 2.363 3.049 4.387 4.664 6.613 2.307 3.185 1.835 4.925 2.924 8.441 3.74 12.02 17.488 17.834 29.025 16.544 8.518-0.957 18.981-3.332 24.727-9.619 0-1e-3 1e-3 -1e-3 1e-3 -2e-3 -0.396-0.285-0.797-0.587-1.2-0.899z"/>
        <path d="m238.54 734.55c-0.276-0.18-0.551-0.358-0.825-0.54-0.763-0.507-1.515-1.03-2.261-1.563-0.255-0.182-0.514-0.357-0.768-0.543-0.978-0.716-1.942-1.451-2.882-2.225-17.947-14.752-32.736-31.808-51.104-46.108-1.744-1.358-3.479-2.731-5.206-4.118-0.257-0.206-0.512-0.416-0.769-0.623-1.532-1.237-3.056-2.483-4.567-3.747-0.185-0.153-0.368-0.31-0.552-0.464-1.613-1.354-3.214-2.723-4.797-4.111-0.088-0.078-0.176-0.154-0.265-0.232-1.68-1.478-3.343-2.975-4.982-4.496-0.014-0.013-0.028-0.025-0.042-0.038 0.187 2.426 0.338 4.856 0.065 7.246-0.371 3.274-2.02 6.452-3.211 9.542-2.542 6.604-3.483 13.021-3.404 20.194 0.079 7.261 1.86 14.68 6.97 20.208 2.478 2.683 5.405 4.268 6.703 7.693 1.025 2.709 0.82 6.011 1.838 8.72 3.997 10.647 20.133 12.507 28.907 16.868 3.163 1.574 4.707 3.2 8.424 3.416 3.347 0.193 6.66 0.578 9.932 0.745 6.502 0.32 12.361-1.603 18.36-3.306 4.642-1.32 9.667-3.224 13.575-6.234 1.727-1.334 4.326-4.512 5.937-7.31-3.996-2.403-8.089-4.654-12.066-7.078-0.198-0.121-0.396-0.243-0.593-0.365-0.813-0.5-1.618-1.012-2.417-1.531z"/>
        <path d="m131.95 633.3c-2.974-7.295-1.953-16.08-4.85-23.591-2.371-6.154-7.814-11.615-10.676-17.992-2.694-5.991-5.606-16.129-4.959-22.95 0.416-4.442 2.568-6.827 2.198-11.73-0.372-4.938-1.786-8.255-1.233-13.189 0.083-0.74 0.195-1.494 0.323-2.256 0.049-0.289 0.108-0.583 0.163-0.875 0.084-0.45 0.169-0.9 0.267-1.355 0.091-0.428 0.189-0.858 0.292-1.289 0.065-0.275 0.13-0.551 0.199-0.826 0.146-0.584 0.295-1.168 0.456-1.753 2e-3 -8e-3 4e-3 -0.015 6e-3 -0.022-4.372-0.189-8.658-0.326-12.919 0.99-4.847 1.497-12.236 2.453-16.537 5.316-5.735 3.803-10.379 12.728-13.661 18.454-2.051 3.589-1.529 6.978-1.744 10.995-0.22 4.205-0.893 8.4-1.109 12.575-0.269 5.275 1.297 8.946 3.404 13.603 1.872 4.129 2.928 8.714 5.42 12.389 2.171 3.211 5.738 5.387 8.432 8.076 2.563 2.564 5.313 5.141 8.086 7.262 5.238 4.013 12.197 3.73 18.438 5.677 6.814 2.131 13.976 2.324 20.753 4.115 9e-3 2e-3 0.018 4e-3 0.026 6e-3 -0.269-0.544-0.553-1.089-0.775-1.63z"/>
        <path d="m139.6 478.86c0.04-0.083 0.08-0.167 0.119-0.25 0.211-0.445 0.423-0.9 0.637-1.365 0.055-0.12 0.11-0.241 0.165-0.362 0.2-0.438 0.4-0.888 0.603-1.347 0.065-0.148 0.131-0.296 0.197-0.447 0.198-0.454 0.397-0.921 0.598-1.396 0.067-0.16 0.134-0.316 0.202-0.479 0.21-0.501 0.422-1.021 0.636-1.549 0.059-0.147 0.118-0.287 0.177-0.436 0.273-0.682 0.549-1.383 0.83-2.111 0.253-0.659 0.536-1.346 0.838-2.055 0.021-0.049 0.042-0.099 0.063-0.147 0.288-0.673 0.595-1.365 0.916-2.075 0.027-0.059 0.053-0.117 0.08-0.176 0.687-1.515 1.432-3.104 2.191-4.743l0.085-0.188 1.657-3.656 2.699-5.954 2.202-7.445v-4.866c-0.03-0.912-0.106-1.808-0.287-2.665-1.237-5.86-2.731-7.614-2.69-13.521 7e-3 -0.918-3e-3 -1.832-0.019-2.751-1.744 0.279-3.626 0.811-5.488 1.225-4.996 1.106-9.134 4.655-12.402 8.443-4.089 4.736-6.76 12.754-7.889 18.917-1.396 7.605 1.209 15.718-2.565 22.85-3.268 6.183-7.776 10.738-2.208 17.624 2.264 2.8 6.266 4.934 10.03 6.887 2.828-5.198 5.295-9.21 7.884-14.438 6e-3 -0.013 0.013-0.026 0.019-0.039 0.238-0.483 0.478-0.978 0.72-1.485z"/>
    </g>
    <g  id="kambium">
        <path d="m914.86 404.29c-3.625-6.321-1.822-11.733-0.9-18.333 1.029-7.332-2.223-9.826-3.695-16.852-1.342-6.437 0.313-12.287-1.906-18.505-2.067-5.779-4.458-10.6-5.584-17.062-2.188-12.553-2.668-26.752-9.526-37.889-9.632-15.655-19.962-31.503-28.245-47.89-4.246-8.403-8.283-15.781-14.008-22.757-5.559-6.782-10.54-12.371-18.498-16.009-6.691-3.054-14.268-1.819-21.343-2.822-6.609-0.938-12.418-3.789-18.853-5.302-17.098-4.022-34.466-3.453-51.599 0.062-7.916 1.625-12.957 3.485-20.42-1.664-5.763-3.979-11.234-4.032-17.171-7.204-4.893-2.615-6.634-7.996-10.73-11.447-6.256-5.261-16.783-7.559-24.711-9.275-13.655-2.959-32.202 0.866-44.808-5.104-10.461-4.955-34.69-10.462-45.705-11.565-11.012-1.098-24.229-3.852-36.343-12.112-12.114-8.261-28.085-8.261-51.218-7.16-23.125 1.103-26.979-7.159-46.805-13.483-8.189-2.612-9.532 0.146-16.896 0.332-9.263 0.236-16.953-8.398-25.248-11.332-11.793-4.171-23.988-7.284-36.53-7.798-4.225-0.176-9.373 0.547-13.435-0.096-4.231-0.668-7.935-3.775-12.372-3.446-3.362 0.249-6.509 3.318-9.781 4.223-3.363 0.929-7.274 0.546-10.802 1.472-6.29 1.65-11.446 1.7-17.573 2.621-7.807 1.17-7.171 5.425-12.437 9.338-3.805 2.824-8.971 2.211-12.776 4.793-3.46 2.348-3.216 4.495-5.382 7.483-4.917 6.767-12.337 10.337-18.197 16.34-11.567 11.854-18.855 27.435-25.655 42.32-1.559 3.419-2.001 6.953-3.329 10.351-0.231 0.585-0.48 1.161-0.775 1.734-1.905 3.777-5.383 6.515-7.164 10.42-3.609 7.92-4.695 17.287-8.057 25.549-3.665 9-10.238 15.679-15.012 23.926-3.578 6.182-4.977 13.729-7.322 20.533-3.291 9.528-3.457 19.823-6.578 29.248-2.318 6.997-7.707 14.994-6.564 22.481 2.14 14.106 2.594 29.189-6.208 41.435-6.325 8.796-11.351 18.088-12.849 28.932-0.873 6.298-0.283 12.535-0.325 18.849-0.041 5.907 1.453 7.66 2.69 13.521 2.132 10.16-6.873 24.682-10.443 33.969-8.26 21.476-13.212 21.476-25.882 55.067-2.274 6.041-4.732 13.291-5.454 19.668-0.553 4.935 0.862 8.251 1.233 13.189 0.37 4.903-1.783 7.288-2.198 11.73-0.647 6.821 2.266 16.959 4.959 22.95 2.862 6.377 8.306 11.838 10.676 17.992 2.897 7.511 1.876 16.296 4.85 23.591 2.647 6.493 9.262 13.148 13.839 18.386 10.385 11.902 22.474 22.198 34.91 31.883 18.368 14.301 33.157 31.356 51.104 46.108 7.951 6.532 17.38 10.812 25.947 16.419 10.776 7.06 22.879 12.285 32.546 20.826 5.708 5.043 9.041 9.019 17.021 9.521 6.105 0.387 12.107-1.909 18.197-0.335 5.946 1.544 14.002 3.799 18.775 7.971 5.178 4.532 6.593 11.417 12.051 15.997 13.76 11.558 22.021 6.604 36.882 11.558 14.872 4.958 13.768 12.118 23.133 18.723 17.564 12.402 41.783 20.444 61.519 27.319 9.607 3.35 17.739 8.509 28.235 10.129 11.357 0.629 18.713 5.571 28.965 8.764 4.796 1.496 6.37-0.271 10.776 3.688 2.587 2.319 4.056 5.641 6.885 7.777 5.993 4.546 16.018 6.376 23.187 7.873 11.244 2.337 20.336 10.054 31.373 12.979 6.968 1.846 9.319-0.404 15.583-2.005 8.211-2.084 16.277 1.58 24.525 0.053 7.397-1.368 12.156-7.761 20.604-7.022 8.376 0.727 14.164 3.067 21.443-1.216 7.456-4.391 13.436-11.922 20.379-17.118 8.705-6.513 14.355-9.862 19.413-19.577 4.507-8.65 7.727-17.899 12.341-26.495 4.595-8.548 10.7-13.515 14.557-23.042 2.984-7.388 2.574-16.146 5.801-23.667 3.381-7.876 8.06-15.703 13.265-22.504 5.938-7.778 15.764-12.387 22.992-18.83 5.163-4.598 7.064-11.152 10.278-17.088 3.513-6.501 9.016-12.202 11.474-19.219 3.732-10.634 6.01-19.762 15.519-26.959 7.751-5.868 18.137-7.651 23.145-16.809 6.244-11.421 8.074-24.682 10.984-37.188 1.583-6.796 4.3-6.066 8.366-10.21 7.341-7.5 12.497-21.494 16.932-30.83 5.462-11.504 15.199-24.913 14.669-38.007-0.324-8.282-5.494-14.959-4.406-23.501 1.052-8.199 7.433-10.525 10.835-17.636 3.526-7.376-0.4-14.917-0.137-22.487 0.215-6.185 1.625-12.51 1.625-18.969 0-9.409 6.589-17.234 8.507-26.234 3.262-15.351-3.83-25.289-11.135-38.038zm-403.29 455.88c-0.354-0.13-0.748-0.229-1.2-0.297-5.034-0.699-7.927 0.519-9.605-5.613-2.375-8.669-8.011-8.854-15.265-12.545-4.796-2.436-10.159-3.825-15.137-5.853-5.677-2.312-10.852-5.912-16.54-7.695-9.479-2.963-18.48-7.646-28.281-9.587-6.853-1.349-19.188-1.579-24.607-6.369-1.483-1.311-2.081-4.534-3.275-5.546-3.813-3.213-11.707-3.643-16.313-5.907-5.858-2.877-10.987-7-16.749-10.048-7.515-3.985-9.565-12.027-17.614-14.858-4.048-1.413-7.498-1.823-11.154-4.284-3.336-2.238-4.814-4.014-8.813-5.503-10.731-4.001-21.957-5.363-32.873-8.429-9.664-2.714-17.656-8.863-24.96-15.518-3.85-3.502-8.503-7.273-11.6-11.378-4.215-5.58-7.126-6.521-12.46-10.436-4.213-3.098-5.662-8.431-9.803-11.94-6.88-5.836-13.377-7.844-17.724-15.712-3.877-7.01-9.873-8.651-16.521-11.646-6.414-2.891-11.922-7.845-16.976-12.658-9.826-9.371-16.956-20.925-23.684-32.601-2.92-5.075-4.611-8.813-5.768-14.35-1.268-6.06-2.651-12.653-7.152-17.238-2.013-2.044-4.914-3.413-6.071-6.195-1.41-3.407 1.217-7.137 0.578-9.91-0.658-2.852-3.623-5.107-4.849-8.242-0.668-1.73 0.745-2.706-0.097-4.313-0.579-1.104-3.05-1.406-3.756-2.296-4.154-5.234-2.028-10.266 2.296-14.407-3.186-4.434-7.592-15.373-5.261-20.94 1.421-3.387 5.174-4.225 8.135-5.563-1.324-9.152-7.475-16.26-2.265-25.617 4.141-7.427 14.191-10.809 17.807-17.775 1.46-2.814 0.219-4.939 0.534-7.87 0.465-4.392 2.534-6.757 5.038-10.207-4.161-4.758-5.692-12.268 0.847-15.911 5.092-2.831 13.896 1.357 17.396-3.517 0.389-4.963 2.877-5.252 6.123-8.322 6.907-6.545-2.118-13.614-5.617-19-3.51-5.405-5.045-9.588-5.367-16.209-0.511-10.392 3.566-18.604 9.581-26.777 2.413-3.274 5.352-5.968 6.396-9.942 1.18-4.509-1.329-9.52 4.871-11.182-4.879-7.081-7.655-8.157-2.753-16.822 3.585-6.346 1.865-10.143 1.725-16.859-0.143-6.781 1.577-13.446 2.22-20.16 0.69-7.188 4.875-13.346 6.857-20.161 1.937-6.64 2.637-13.296 8.612-17.852-1.33 1.019-3.865-5.766-3.952-6.565-0.881-8.057 4.611-17.827 8.261-24.741 0.741-1.411 1.485-2.529 2.246-3.429 3.885-4.6 8.174-3.455 14.764-6.114 1.107-5.395 3.468-8.39 3.948-14.22 1.381-16.734 7.254-35.445 19.713-46.958 3.926-3.623 8.757-7.183 13.681-9.313 3.62-1.568 5.825-1.128 7.881-4.778 2.161-3.832 0.394-7.863 4.573-11.069 2.474-1.895 11.404-0.503 11.419-0.518 2.039-2.094 2.591-6.023 5.375-7.352 1.933-0.916 3.354 0.33 5.11 0.12 2.142-0.246 3.007-0.585 4.373-1.099 1.535-0.579 1.426-1.744 3.881-2.199 0.994-0.183 4.224 0.924 5.496 1.116 1.547 0.231 3.91 1.08 5.506 0.558 2.058-0.667 2.225-2.953 3.99-3.725 5.087-2.218 7.682 2.821 12.649-1.219 1.856-1.519 1.532-3.506 4.303-4.429 3.353-1.116 7.271 1.636 10.414 2.464 6.358 1.676 12.989 0.987 19.449 1.472 8.155 0.609 16.12 2.121 24.211 3.239 6.944 0.958 14.399 0.155 21.355 1.607 6.63 1.386 13.299 3.522 19.819 5.325 5.492 1.518 8.522 5.514 13.65 7.506 5.133 1.994 9.366 0.308 14.44-0.699 5.248-1.044 8.318 0.473 13.232 1.682 3.294 0.811 6.569-1.17 9.819-0.808 3.668 0.411 4.962 1.911 8.113 3.833 8.079 4.936 17.831 6.713 26.779 9.412 12.008 3.617 24.038 7.16 36.219 10.125 9.736 2.366 19.811 3.525 29.722 4.867 6.699 0.904 14.163 0.952 20.675 2.717 4.774 1.297 8.35 4.973 13.203 6.221 9.457 2.431 18.772-1.92 28.253-0.978 7.782 0.778 13.182 6.784 20.188 9.505 2.398 0.935 4.299 3.298 6.649 4.078 2.64 0.879 4.021-0.334 6.85-0.409 6.552-0.171 9.88 6.958 15.065 7.204 2.583 0.12 4.199-2.19 7.269-1.224 2.176 0.685 4.051 2.342 4.759 4.541 0.303 0.946-0.099 3.353 0.37 4.047 1.01 1.49 1.716 0.583 3.311 1.441 2.101 1.133 4.02 3.317 5.132 5.211 9.707-8.618 15.554 6.899 24.162 3.803 3.353-1.205 5.477-4.151 9.153-5.138 5.783-1.544 12.425-1.854 18.358-1.284 9.203 0.886 18.77 0.944 24.231 9.555 3.213 5.064 4.969 5.987 11.04 6.293 0.27 5.354 0.98 9.319 6.751 10.877 2.951 0.798 4.082 0.416 6.521 2.292 1.51 1.161 2.897 3.125 4.759 4.121 2.406 1.29 4.984 0.336 7.265 1.462 2.595 1.281 3.095 3.964 4.585 6.082 0.7 0.99 1.827 1.572 2.394 2.665 0.522 0.995 0.306 2.789 0.9 3.646 1.775 2.543 4.749 2.565 6.57 5.322 2.714 4.096 5.039 8.53 7.538 12.759 4.926 8.326 9.686 16.777 13.268 25.789 6.043 15.249 11.74 30.588 15.967 46.259 1.386 5.135 5.196 5.012 8.656 8.261 4.272 4.023 3.222 6.805 2.055 11.937-0.85 3.747-3.185 9.013-2.829 12.845 0.401 4.378 4.124 6.673 6.033 10.432 1.916 3.765 0.383 7.221 1.076 10.612 0.579 2.827 2.805 5.676 3.716 8.704 1.714 5.673 4.85 9.498 7.082 14.854 4.392 10.532 3.392 23.423-0.342 33.816-5.571 15.508 2.656 34.24-4.679 48.619-1.263 2.462-1.069 0.705-0.934 3.385 0.171 3.397 1.066 4.579-2.193 7.079-2.797 2.148-4.234 2.244-5.508 5.449-1.108 2.788-0.941 5.803-3.002 8.229-2.377 2.796-3.134 3.871-3.839 7.677-1.881 10.11-1.666 20.491-3.761 30.561-1.532 7.343-4.596 14.545-8.013 21.194-3.103 6.039-2.796 10.967-3.985 17.342-1.166 6.219-5.067 9.671-8.627 14.503-9.022 12.245-12.543 28.056-21.658 40.59-3.743 5.156-8.165 13.48-13.563 16.813-2.64 1.633-5.542 1.492-8.046 3.565-2.428 2.017-3.586 5.466-5.65 7.826-3.954 4.539-7.093 7.34-9.428 13.005-3.583 8.687-9.492 16.066-15.747 22.978-4.044 4.467-7.898 9.271-11.759 13.884-3.408 4.078-2.6 9.126-5.549 13.211-2.131 2.948-5.564 6.595-8.461 8.8-3.995 3.04-4.365 6.553-8.987 8.621-8.607 3.872-8.313 13.04-12.488 20.71-8.097 14.902-13.82 30.977-21.759 45.971-1.717 3.238-1.299 7.618-3.418 10.387-1.43 1.863-3.802 2.188-5.213 4.058-2.939 3.889-3.18 8.177-7.703 11.249-2.713 1.841-4.38 2.121-7.645 2.551-1.736 6.162-8.502 6.183-12.524 8.464-2.204 1.248-6.709 2.523-8.092 3.96-3.232 3.333-1.45 4.927-6.826 6.174-3.793 0.878-7.465 4.228-11.271 4.433-3.692 0.192-5.091-3.624-8.363-3.655-2.462-0.019-5.05 3.212-7.692 3.32-7.724 0.325-9.901-10.69-18.855-8.944-5.099 1-9.077 3.695-14.543 3.438-7.613-0.351-15.76-3.332-23.039-5.496-7.965-2.374-16.678-4.994-24.85-6.299-3.354-0.538-6.677 0.781-9.825-1.011-0.713-0.405-5.897-6.688-4.721-6.953-4.772 1.071-9.967 0.519-12.898-4.425-1.865 1.876-4.841 3.632-7.581 3.51-3.235-0.143-3.796-2.708-6.401-3.597-2.306-0.791-4.338 1.743-6.726 0.814-1.779-0.697-2.582-1.782-4.156-2.339z"/>
    </g>
    <g id="xilem">
        <path d="m204.48 284.3c3.977 3.74 8.756 6.354 14.176 7.23 4.248 0.689 15.523 1.485 16.215-4.259 5-4.136 10.447 0.171 15.438-2.921 4.456-2.759 7.801-8.385 9.476-12.92 2.289-6.199 1.294-10.08 0.356-16.162-0.552-3.562-0.132-4.243-2.837-6.702-1.99-1.806-4.417-2.402-6.32-3.949-2.49-2.018-2.167-5.127-5.151-7.247-2.814-2-6.264-2.342-9.188-3.783-2.599-1.284-4.603-3.425-6.487-5.725-0.097 0.033-0.19 0.059-0.286 0.09-0.241 0.078-0.481 0.156-0.716 0.225-0.06 0.018-0.118 0.034-0.177 0.051-2.446 0.712-4.55 1.03-6.445 1.605-0.025 8e-3 -0.051 0.016-0.076 0.024-0.241 0.074-0.479 0.153-0.713 0.238-0.063 0.023-0.126 0.047-0.189 0.07-0.198 0.075-0.395 0.154-0.588 0.239-0.082 0.036-0.163 0.072-0.244 0.109-0.174 0.081-0.347 0.168-0.518 0.259-0.091 0.048-0.183 0.096-0.272 0.147-0.161 0.091-0.319 0.191-0.478 0.292-0.094 0.061-0.188 0.119-0.282 0.184-0.156 0.107-0.309 0.227-0.462 0.346-0.092 0.072-0.184 0.139-0.274 0.214-0.162 0.136-0.322 0.287-0.482 0.438-0.079 0.074-0.159 0.142-0.237 0.22-0.237 0.237-0.472 0.49-0.705 0.767-0.761 0.9-1.505 2.019-2.246 3.429-3.65 6.914-9.142 16.684-8.261 24.741 0.087 0.8 2.622 7.584 3.952 6.565-0.342 0.261-0.664 0.531-0.973 0.806-0.11 0.098-0.213 0.199-0.319 0.299-0.192 0.18-0.38 0.362-0.56 0.547-0.116 0.12-0.228 0.241-0.339 0.363-0.157 0.173-0.31 0.349-0.458 0.526-0.106 0.128-0.214 0.256-0.315 0.386-0.144 0.184-0.28 0.371-0.415 0.559-0.089 0.125-0.183 0.249-0.269 0.375-0.2 0.295-0.39 0.594-0.569 0.898-0.089 0.15-0.169 0.304-0.253 0.456-0.096 0.173-0.193 0.347-0.283 0.522-0.091 0.176-0.176 0.354-0.262 0.533-0.073 0.153-0.146 0.307-0.216 0.462-0.086 0.191-0.17 0.383-0.251 0.577-0.058 0.139-0.115 0.279-0.17 0.419-0.084 0.211-0.168 0.422-0.247 0.635-0.032 0.086-0.062 0.172-0.092 0.258-0.661 1.835-1.162 3.755-1.667 5.708 0.526 0.646 1.067 1.276 1.679 1.856z"/>
        <path d="m281.97 167.84c0.802 0.332 6.899-0.972 8.275-1.874 0.272 3.715 5.601 7.744 9.502 7.495-1.048 3.108-0.062 5.637 2.957 6.554 3.286 1.001 4.263-1.71 7.276-1.387 5.455 0.598 7.731 6.988 13.666 6.903 3.715-0.053 3.836 0.378 6.975 1.827 2.522 1.167 5.296 0.354 8.079 0 4.914-0.619 11.82-5.953 13.582-10.994 0.643-1.853-0.43-3.316 0.439-5.065 0.529-1.06 3.188-2.396 4.058-3.391 2.296-2.637 3.702-5.214 4.684-8.452 1.48-4.917-1.182-5.429-2.49-9.627-0.669-2.147 1.162-2.667 0.454-4.761-0.635-1.906-2.364-2.677-3.816-3.895 5.098-0.911 8.12-8.916 7.734-15.364v-1e-3c-0.754-0.025-1.507-0.061-2.259-0.109-0.208-0.013-0.415-0.037-0.622-0.052-0.567-0.043-1.135-0.088-1.7-0.152-0.361-0.041-0.72-0.103-1.08-0.154-0.421-0.06-0.842-0.11-1.261-0.185-0.781-0.14-1.559-0.307-2.333-0.511-3.143-0.828-7.061-3.58-10.414-2.464-2.771 0.922-2.446 2.91-4.303 4.429-4.967 4.04-7.562-0.999-12.649 1.219-1.766 0.772-1.933 3.058-3.99 3.725-1.597 0.521-3.959-0.327-5.506-0.558-1.271-0.191-4.501-1.299-5.496-1.116-2.456 0.455-2.346 1.62-3.881 2.199-1.366 0.514-2.231 0.853-4.373 1.099-1.755 0.21-3.177-1.036-5.11-0.12-2.784 1.328-3.336 5.257-5.375 7.352-0.015 0.015-8.946-1.376-11.419 0.518-4.179 3.206-2.413 7.237-4.573 11.069-0.121 0.214-0.242 0.413-0.365 0.6-0.062 0.095-0.124 0.18-0.187 0.268-0.056 0.079-0.112 0.162-0.169 0.236-0.097 0.127-0.195 0.247-0.293 0.36-0.017 0.02-0.034 0.041-0.05 0.06-0.596 0.671-1.22 1.107-1.893 1.441 2e-3 5e-3 4e-3 0.01 7e-3 0.015 1.153 2.307 1.248 4.715 2.349 7.186 1.128 2.545 2.967 4.606 5.57 5.677z"/>
        <path d="m461.96 161.72c0.081 3.773 0.997 6.052 3.799 8.655 2.272 2.111 6.217 5.986 9.103 6.35 3.23 0.41 6.987-1.875 8.545-4.68 2.095-3.781 0.039-6.711-0.787-10.314 4.255-0.014 5.553-7.88 3.294-10.632 1.66-0.564 2.785-4.126 2.648-7.134-1.514 0.112-3.033 0.548-4.558 0.811-0.052 9e-3 -0.104 0.017-0.157 0.026-0.228 0.037-0.456 0.07-0.683 0.097-0.215 0.025-0.429 0.045-0.644 0.058-0.097 6e-3 -0.194 0.012-0.291 0.015-0.285 8e-3 -0.57 4e-3 -0.855-0.017-0.063-5e-3 -0.126-0.013-0.189-0.02-0.312-0.031-0.625-0.076-0.937-0.153-4.914-1.209-7.984-2.727-13.232-1.682-4.923 0.977-9.058 2.563-13.986 0.84-1e-3 5e-3 -2e-3 0.01-3e-3 0.016-1.421 7.392-0.633 17.432 8.933 17.764z"/>
        <path d="m554.99 171.96c-0.985 4.233-3.102 8.556 0.551 12.188 7.694 7.65 15.243-2.168 14.832-10.309 1.815-0.517 3.179-2.07 4.331-3.884 3e-3 -3e-3 5e-3 -6e-3 7e-3 -0.01-3.404-0.535-6.799-1.124-10.161-1.84-1.127-0.24-2.25-0.495-3.369-0.766-2.65-0.646-5.298-1.328-7.937-2.025-0.051-0.013-0.102-0.026-0.152-0.04v1e-3c0.172 0.377 0.369 0.765 0.613 1.177 1.829 3.131 2.154 1.758 1.285 5.508z"/>
        <path d="m600.73 185.07c-2.647 1.863-2.432 6.944-0.052 8.834-3.355 1.409-4.252 9.063-0.259 10.375 3.175 1.042 8.367-4.078 8.497-6.949 3.91-0.196 8.619-5.825 7.445-9.604 1.877-0.885 5.936-3.874 7.563-6.826 4e-3 -7e-3 0.01-0.015 0.014-0.022-2.938-0.95-5.443-2.712-8.106-4.152-0.208-0.112-0.416-0.223-0.626-0.33-0.223-0.114-0.446-0.226-0.672-0.334-0.412-0.197-0.828-0.388-1.254-0.558-0.061-0.024-0.123-0.045-0.184-0.068-0.495-0.19-0.998-0.365-1.519-0.506-0.741-0.201-1.497-0.374-2.26-0.534-0.132-0.028-0.263-0.057-0.395-0.083-0.723-0.145-1.452-0.274-2.188-0.391-0.178-0.028-0.356-0.054-0.534-0.081-0.677-0.101-1.356-0.195-2.041-0.279-0.294-0.036-0.588-0.068-0.883-0.102-0.414-0.046-0.828-0.092-1.243-0.134-0.9-0.092-1.802-0.177-2.703-0.257-1.077 3.941-0.528 9.725 1.4 12.001z"/>
        <path d="m699.69 202.57c-0.521 3.493-1.743 5.751-3.025 9-1.169 2.981-1.133 5.904-1.926 8.83-0.973 3.572-9.61 9.155-4.83 13.686-3.63 4.978-2.143 12.06 4.81 12.398 1.318 0.064 2.804-0.911 4.061-1.373 1.785-0.665 2.101-0.823 3.668-1.214 1.809-0.45 2.702-0.07 4.415-1.182 1.573-1.022 1.373-2.214 3.294-2.784 3.086-0.91 5.635 1.335 8.354-1.551 1.652-1.758 1.235-5.216 2.735-6.526 0.7-0.605 4.694-1.095 5.818-1.548 1.818-0.732 3.331-1.279 5.035-2.285 2.979-1.75 5.818-4.482 7.348-7.62 0.348-0.721 0.666-1.699 0.927-2.72-1e-3 0-3e-3 -1e-3 -4e-3 -2e-3 -2.487-1.239-4.868-3.246-7.374-4.533-3e-3 -1e-3 -6e-3 -3e-3 -9e-3 -4e-3 -0.222-0.114-0.444-0.221-0.668-0.322-0.026-0.012-0.053-0.024-0.078-0.035-0.455-0.202-0.914-0.376-1.379-0.513-0.05-0.015-0.099-0.028-0.147-0.042-0.187-0.052-0.374-0.097-0.563-0.136-0.05-0.01-0.1-0.022-0.149-0.032-0.229-0.043-0.461-0.079-0.694-0.101-0.029-3e-3 -0.06-3e-3 -0.089-5e-3 -0.201-0.018-0.403-0.025-0.607-0.025-0.067 0-0.136 1e-3 -0.205 3e-3 -0.185 5e-3 -0.371 0.018-0.559 0.039-0.055 6e-3 -0.109 9e-3 -0.165 0.016-0.235 0.031-0.474 0.075-0.713 0.132-0.059 0.014-0.117 0.032-0.176 0.048-0.188 0.049-0.378 0.107-0.568 0.174-0.077 0.027-0.153 0.055-0.23 0.084-0.208 0.08-0.418 0.17-0.629 0.271-0.043 0.021-0.086 0.037-0.129 0.059-0.25 0.125-0.504 0.268-0.759 0.424-0.072 0.044-0.145 0.093-0.217 0.14-0.195 0.126-0.394 0.262-0.593 0.409-0.078 0.057-0.155 0.113-0.234 0.174-0.266 0.205-0.533 0.42-0.806 0.662-1.112-1.895-3.031-4.079-5.132-5.211-1.595-0.859-2.301 0.049-3.311-1.441-0.469-0.694-0.067-3.102-0.37-4.047-0.708-2.199-2.583-3.856-4.759-4.541-3.069-0.966-4.686 1.344-7.269 1.224-0.248-0.012-0.49-0.049-0.731-0.095-0.159-0.03-0.318-0.064-0.478-0.103-0.012-3e-3 -0.024-5e-3 -0.036-8e-3 -0.468 0.952-0.782 1.752-0.854 2.226z"/>
        <path d="m793.78 234.29c-3.693 0.101-4.579 3.981-4.408 6.975-2.556 0.521-2.987 3.099-3.612 5.196-0.339 1.129-0.306 2.35-0.644 3.376-0.393 1.178-1.295 2.017-1.567 3.225-0.519 2.315 0.032 5.597 0.812 7.639 1.446 3.787 2.687 2.568 5.737 3.812 0.151 5.372 3.898 7.503 7.7 10.663 3.47 2.892 5.588 6.289 10.72 6.528 5.021 0.235 8.794 1.586 13.605 2.225 0.754 0.098 1.706-0.681 2.564-0.505 0.969 0.196 2.145 1.559 3.287 1.871 1.895 0.506 4.296 0.101 5.807-0.984 2.075 8.446 12.654 2.951 12.629-3.669 3.709 0.932 7.45-0.891 10.278-3.898 1e-3 0 1e-3 -1e-3 2e-3 -2e-3 -1.693-2.878-3.319-5.838-5.039-8.723-0.129-0.217-0.254-0.438-0.384-0.653-0.635-1.05-1.284-2.087-1.957-3.104-1.821-2.757-4.795-2.779-6.57-5.322-0.595-0.857-0.378-2.652-0.9-3.646-0.566-1.093-1.693-1.675-2.394-2.665-1.49-2.118-1.99-4.801-4.585-6.082-2.28-1.126-4.858-0.173-7.265-1.462-1.861-0.996-3.249-2.96-4.759-4.121-2.438-1.876-3.569-1.494-6.521-2.292-5.771-1.558-6.481-5.522-6.751-10.877-6.071-0.306-7.827-1.229-11.04-6.293-0.324-0.51-0.663-0.987-1.015-1.437-0.247-0.316-0.507-0.604-0.766-0.893-0.1-0.111-0.192-0.234-0.293-0.341v6e-3c-0.023 2.497 0.768 4.991 2.386 6.711-4.043 1.844-4.83 4.667-5.057 8.742z"/>
        <path d="m871.26 348.81c-5.54 0.668-13.533 4.965-9.829 10.607 1.016 1.547 2.092 0.439 2.185 3.03 0.066 1.793-1.18 3.295-2.499 4.422-1.229 1.057-2.455 1.045-3.753 1.827-1.333 0.809-1.566 1.715-2.55 2.582-1.157 1.018-1.251 1.089-2.579 1.817-1.724 0.942-2.681-0.406-4.131 1.813-2.003 3.082 1.227 5.086 0.925 7.444-0.442 3.521-3.019 3.894-0.925 7.996 0.618 1.205 2.011 1.979 2.382 3.215 0.512 1.684-0.604 2.751-0.451 4.494 0.236 2.809 2.242 4.805 4.67 6.344 1.854 1.175 4.566 3.401 6.424 4.22 2.924 1.29 5.47-0.36 8.279-0.364 2.674-5e-3 4.674 0.804 7.692-0.249 1.319 2.758 1.185 8.026 3.839 9.435 3.025 1.601 8.76-0.589 11.699-1.029 1.669-0.25 7.549-1.012 12.92-2.345-0.014-0.036-0.026-0.074-0.04-0.11-0.024-0.064-0.048-0.13-0.071-0.194-0.229-0.616-0.455-1.245-0.656-1.906-0.911-3.027-3.137-5.876-3.716-8.704-0.693-3.391 0.84-6.848-1.076-10.612-1.909-3.759-5.632-6.054-6.033-10.432-0.355-3.832 1.979-9.099 2.829-12.845 1.167-5.132 2.218-7.914-2.055-11.937-3.46-3.249-7.271-3.125-8.656-8.261-0.961-3.553-2.002-7.089-3.098-10.609-5.194 1.826-10.479 2.809-11.726 10.351z"/>
        <path d="m897.72 497.42c-1.486 0.588-2.663 2.791-3.949 3.033-1.676 0.314-3.832-1.518-5.515-1.761-4.354-0.625-5.998 1.819-9.179 3.226-2.598 1.139-6.504 1.606-4.807 5.795-2.92-0.592-3.497 0.926-3.632 3.377-0.063 1.076 1.171 1.451 1.126 2.19-0.083 1.206-1.201 2.146-1.591 3.329-1.511 4.641 1.614 8.517 6.268 9.601-0.702 7.438 6.523 3.734 9.719 6.148 0.567 0.431 0.989 2.63 1.443 3.327 0.967 1.475 2.514 2.463 3.868 3.386 0.094 0.069 0.188 0.108 0.283 0.169 3e-3 2e-3 5e-3 3e-3 8e-3 5e-3 0.638-2.483 1.494-3.641 3.458-5.956 2.061-2.426 1.894-5.44 3.002-8.229 1.273-3.205 2.711-3.301 5.508-5.449 3.26-2.5 2.364-3.682 2.193-7.079-0.136-2.68-0.329-0.923 0.934-3.385 0.207-0.405 0.397-0.814 0.579-1.227 0.087-0.196 0.167-0.396 0.249-0.594 0.079-0.193 0.159-0.387 0.234-0.582 0.112-0.294 0.221-0.59 0.321-0.887 0.02-0.057 0.039-0.113 0.058-0.17 0.631-1.889 1.053-3.837 1.335-5.829-5.227-2.93-9.943-3.221-11.913-2.438z"/>
        <path d="m866.93 599.62c-4.38 1.648-5.81 7.576-9.547 8.368-3.308 0.705-11.21-0.781-7.712 6.25 1.455 2.938 6.936 6.85 9.872 7.388-0.61 2.49 0.877 6.92 3.353 9.345l2e-3 2e-3c0.478-0.848 0.975-1.682 1.484-2.509 0.232-0.377 0.468-0.751 0.708-1.123 0.167-0.259 0.337-0.516 0.509-0.772 0.453-0.678 0.915-1.35 1.399-2.006 3.56-4.832 7.461-8.284 8.627-14.503 0.121-0.648 0.223-1.276 0.318-1.896 0.021-0.139 0.044-0.278 0.064-0.415 0.062-0.413 0.116-0.815 0.171-1.218 0.213-1.557 0.393-3.055 0.615-4.526-3e-3 -2e-3 -5e-3 -4e-3 -8e-3 -7e-3 -3.411-3.029-7.645-3.214-9.855-2.378z"/>
        <path d="m823.6 676.63c-0.638-3.419 0.18-5.886-4.045-6.996-6.192-1.626-16.022-0.055-12.156 8.04-5.743 0.797-4.332 9.07 0.755 10.063-5.153-0.63-6.479 4.491-4.102 9.084 0.919 1.782 3.625 4.237 6.463 5.816 0.248-0.411 0.503-0.807 0.765-1.192 0.022-0.034 0.046-0.067 0.068-0.102 1.661-2.433 3.589-4.453 5.783-6.917 0.31-0.348 0.621-0.699 0.941-1.066 2.064-2.36 3.223-5.81 5.65-7.826 0.294-0.244 0.595-0.45 0.898-0.641 0.072-0.044 0.145-0.083 0.217-0.125 0.248-0.145 0.498-0.278 0.751-0.396 0.057-0.026 0.113-0.053 0.17-0.078 1.442-0.646 2.948-0.959 4.416-1.545 8e-3 -3e-3 0.016-6e-3 0.023-9e-3l1e-3 -1e-3 0.377-0.601c-3.588 0.08-6.378-2.297-6.975-5.508z"/>
        <path d="m770.5 747.49c0.602-1.16 0.955-2.75 0.334-4.002-1.292-2.626-2.226-0.907-4.146-1.839-2.175-1.052-4.011-4.47-6.966-5.053-4.146-0.817-4.417 3.137-7.357 3.952-3.239 0.901-5.974-1.543-8.009 2.939-1.463 3.223 1.517 5.389 0.677 8.166-0.677 2.242-3.647 3.909-4.051 6.506-0.724 4.61 2.5 3.444 4.319 5.98 0.802 1.116 0.29 2.664 0.815 3.943 0.59 1.419 2.365 2.247 2.854 3.392 0.135 0.125 0.272 0.252 0.403 0.374-0.803 1.115 0.302 4.842 2.276 8.018 0.026-0.045 0.056-0.088 0.082-0.134 0.275-0.471 0.573-0.927 0.893-1.368 0.099-0.137 0.198-0.274 0.302-0.408 0.146-0.188 0.297-0.373 0.453-0.554 0.145-0.169 0.298-0.333 0.452-0.495 0.138-0.146 0.271-0.295 0.417-0.436 0.294-0.283 0.609-0.555 0.938-0.816 0.124-0.1 0.259-0.192 0.39-0.289 0.263-0.193 0.537-0.38 0.823-0.56 0.132-0.083 0.264-0.166 0.401-0.246 0.425-0.247 0.866-0.484 1.345-0.699 4.622-2.068 4.992-5.581 8.987-8.621 2.896-2.205 6.33-5.852 8.461-8.8 0.204-0.283 0.388-0.572 0.559-0.864 0.046-0.079 0.086-0.159 0.131-0.239 0.119-0.215 0.233-0.432 0.338-0.65 0.047-0.098 0.09-0.195 0.134-0.294 0.091-0.204 0.179-0.409 0.26-0.615 0.042-0.107 0.084-0.214 0.123-0.321 0.073-0.199 0.143-0.398 0.209-0.6 0.039-0.115 0.078-0.231 0.114-0.348 0.058-0.183 0.111-0.367 0.165-0.551 0.04-0.138 0.081-0.275 0.12-0.413 5e-3 -0.019 9e-3 -0.036 0.014-0.055 0.248-0.899 0.469-1.807 0.719-2.709 0.012-0.041 0.021-0.081 0.033-0.122-2.505-0.986-5.168-2.969-8.012-1.169z"/>
        <path d="m711.88 847.77c-1.834 0.877-2.108 2.796-4.678 1.21-2.421-1.493-0.765-1.517-0.728-3.74 0.068-4.088-1.967-5.114-5.837-6.245 1.549-4.077-4.477-7.705-7.469-9.828-1.937-1.366-4.365-2.548-6.531-3.039-2.231-0.506-4.863-1.331-6.972-1.768-2.761-0.574-6.615-6e-3 -9.181 0.939-1.573 0.578-2.771 1.804-4.4 1.932-1.286 0.092-2.039-1.005-3.306-1.119-2.362-0.22-5.782 0.236-8.084 0.746-2.606 0.566-3.554 2.304-5.869 3.412-2.845 1.357-5.569 1.259-7.994 3.654-1.97 1.938-4.721 5.711-5.227 8.357-0.658 3.402 1.452 6.432 1.107 9.913-0.301 3.053-1.444 6.714-3.95 8.911-2.459 2.16-5.613 2.021-7.338 5.508-1.519 3.067 0.389 5.584-0.845 7.972-1.732 3.361-3.953 2.657-1.812 6.991 0.154 0.306 0.585 0.845 1.198 1.535 1e-3 2e-3 3e-3 3e-3 4e-3 5e-3 0.761-0.225 1.525-0.432 2.326-0.587 8.954-1.746 11.132 9.27 18.855 8.944 2.643-0.108 5.23-3.339 7.692-3.32 3.272 0.031 4.671 3.848 8.363 3.655 3.806-0.205 7.478-3.555 11.271-4.433 0.312-0.07 0.591-0.145 0.852-0.219 0.115-0.033 0.218-0.066 0.324-0.1 0.099-0.03 0.207-0.061 0.3-0.091l0.015-9e-3 2.486-1.551 5e-3 -3e-3c0.038-0.049 0.07-0.103 0.106-0.153 0.051-0.07 0.103-0.14 0.149-0.213 0.037-0.059 0.073-0.121 0.108-0.181 0.048-0.08 0.095-0.159 0.142-0.242 0.033-0.062 0.068-0.126 0.103-0.188 0.07-0.132 0.144-0.267 0.219-0.407 0.04-0.076 0.083-0.154 0.126-0.233 0.048-0.087 0.097-0.175 0.148-0.266 0.049-0.086 0.103-0.176 0.156-0.265 0.051-0.085 0.103-0.17 0.159-0.259 0.063-0.098 0.133-0.199 0.202-0.301 0.059-0.085 0.114-0.169 0.179-0.257 0.086-0.118 0.185-0.241 0.283-0.364 0.063-0.078 0.118-0.153 0.187-0.233 0.174-0.207 0.362-0.419 0.577-0.64 1.383-1.437 5.888-2.712 8.092-3.96 0.359-0.204 0.748-0.386 1.146-0.56 0.11-0.049 0.222-0.099 0.334-0.146 0.35-0.145 0.709-0.282 1.077-0.415 1-0.361 2.052-0.697 3.094-1.075 0.03-0.012 0.062-0.021 0.092-0.032l8e-3 -5e-3 5.229-3.261 5e-3 -3e-3c3e-3 -4e-3 6e-3 -9e-3 0.01-0.013 0.09-0.108 0.173-0.229 0.259-0.345 0.098-0.132 0.194-0.266 0.285-0.407 0.075-0.117 0.146-0.239 0.217-0.362 0.095-0.168 0.184-0.344 0.269-0.525 0.054-0.112 0.108-0.224 0.158-0.342 0.128-0.308 0.245-0.628 0.343-0.974 0.288-0.038 0.561-0.075 0.825-0.112 0.177-0.025 0.35-0.05 0.518-0.075 0.208-0.03 0.408-0.063 0.604-0.095 0.157-0.026 0.312-0.055 0.463-0.083 0.173-0.032 0.343-0.066 0.509-0.102 0.103-0.021 0.205-0.043 0.305-0.066 0.237-0.056 0.469-0.117 0.696-0.185 0.082-0.023 0.163-0.05 0.244-0.075 0.208-0.066 0.416-0.139 0.622-0.218 0.045-0.017 0.089-0.031 0.134-0.049l3.899-2.426c2.658-2.338 3.538-5.193 5.068-8.01 0.024-0.045 0.049-0.09 0.073-0.135 0.091-0.164 0.185-0.328 0.28-0.491 0.054-0.091 0.104-0.182 0.159-0.272 0.083-0.137 0.172-0.272 0.259-0.409 0.065-0.102 0.129-0.204 0.197-0.306 0.155-0.231 0.318-0.462 0.491-0.691 1.411-1.869 3.783-2.194 5.213-4.058 0.555-0.73 0.937-1.579 1.227-2.475-2.776-1.988-6.388-2.311-9.825-0.672z"/>
        <path d="m565.55 859.91c-0.662-2.399-2.489-4.051-2.233-6.617 0.187-1.841 1.964-3.393 2.511-5.134 1.626-5.215-1.802-8.042-4.337-12.03-1.74-2.733-0.885-3.15-1.467-5.953-0.478-2.27-1.979-3.408-3.945-4.861-0.941-0.696-3.012-1.322-3.694-2.203-1.011-1.307-0.16-2.3-0.794-3.593-1.097-2.234-3.862-4.933-5.785-6.673-4.058-3.668-11.055-9.687-16.99-8.757-2 0.314-3.59 1.835-5.506 2.229-1.403 0.291-2.988-0.241-4.403-0.022-3.181 0.488-5.156 2.106-7.075 4.403-1.433 1.703-0.678 1.86-2.755 3.047-1.117 0.632-2.519 0.635-3.754 1.276-3.803 1.97-2.39 4.239-4.101 7.378-6.519 0.87-7.687 1.631-8.079 8.447-2.368 1.439-5.35 2.577-6.931 5.202-0.616 1.028-0.654 3.187-0.4 5.819 2.995 1.494 5.703 2.417 8.014 3.623 0.046 0.024 0.095 0.047 0.141 0.071 0.25 0.133 0.491 0.272 0.73 0.413 0.097 0.058 0.198 0.111 0.293 0.17 0.2 0.122 0.392 0.255 0.584 0.386 0.123 0.084 0.25 0.162 0.371 0.25 0.165 0.12 0.321 0.252 0.48 0.38 0.136 0.109 0.277 0.214 0.409 0.329 0.14 0.123 0.27 0.26 0.405 0.39 0.14 0.136 0.284 0.266 0.419 0.41 0.122 0.132 0.235 0.28 0.353 0.42 0.136 0.161 0.275 0.315 0.405 0.488 0.109 0.146 0.209 0.312 0.314 0.467 0.126 0.188 0.257 0.366 0.377 0.567 0.103 0.173 0.195 0.368 0.293 0.552 0.11 0.207 0.226 0.403 0.329 0.625 0.106 0.227 0.2 0.481 0.299 0.725 0.083 0.205 0.173 0.396 0.252 0.612 0.171 0.475 0.332 0.979 0.479 1.516 1.679 6.132 4.571 4.914 9.605 5.613 0.452 0.068 0.846 0.167 1.2 0.297 1.574 0.558 2.377 1.643 4.153 2.341 2.388 0.929 4.42-1.605 6.726-0.814 2.605 0.889 3.166 3.454 6.401 3.597 2.74 0.122 5.716-1.634 7.581-3.51 2.932 4.943 8.126 5.496 12.898 4.425-1.177 0.265 4.008 6.548 4.721 6.953 0.192 0.109 0.386 0.207 0.579 0.294 0.084 0.038 0.167 0.066 0.251 0.101 0.112 0.046 0.225 0.094 0.338 0.133 0.074 0.026 0.148 0.045 0.223 0.068 0.126 0.039 0.251 0.079 0.377 0.11 0.053 0.014 0.106 0.023 0.159 0.035 0.15 0.035 0.302 0.068 0.453 0.095 0.022 4e-3 0.046 6e-3 0.069 0.01 2.289 0.377 4.644-0.163 7.021 0.13 0-3e-3 1e-3 -7e-3 1e-3 -0.01 0.183-1.553 0.292-3.102 0.638-4.093 1.192-3.436 2.421-6.376 1.397-10.127z"/>
        <path d="m428.21 803.36c2.939-2.101 3.506-2.905 3.373-5.883-0.022-0.626-1.426-0.836-1.523-1.456-0.096-0.545 0.713-0.966 0.672-1.182-0.169-0.878 0.419-2.109 0.102-3.24-1.112-3.922-7.134-9.708-10.563-4.876-3.654-6.294-8.427-2.667-12.861 0.43-1.343-2.94-5.091-4.186-8.116-3.978-3.791 0.258-4.569 2.33-7.013 4.553-3.075 2.81-8.374 7.426-11.676 12.641 0.249 0.123 0.48 0.276 0.734 0.397 4.607 2.265 12.5 2.694 16.313 5.907 1.194 1.012 1.792 4.235 3.275 5.546 0.322 0.285 0.672 0.552 1.042 0.806 0.125 0.086 0.264 0.164 0.395 0.247 0.253 0.161 0.508 0.321 0.779 0.471 0.164 0.09 0.337 0.172 0.506 0.258 0.257 0.13 0.516 0.259 0.786 0.379 0.186 0.082 0.377 0.16 0.568 0.239 0.272 0.111 0.548 0.221 0.831 0.324 0.196 0.072 0.396 0.143 0.597 0.211 0.296 0.101 0.597 0.197 0.903 0.29 0.196 0.06 0.393 0.119 0.593 0.176 0.333 0.095 0.67 0.184 1.011 0.271 0.178 0.045 0.355 0.092 0.536 0.136 0.405 0.097 0.814 0.188 1.228 0.276 0.119 0.025 0.236 0.053 0.356 0.077 4.147 0.855 8.595 1.286 12.175 1.824 1e-3 -1e-3 3e-3 -1e-3 4e-3 -2e-3 2.152-1.46 5.916-1.341 8.415-3.377 5.484-4.461-0.304-7.46-3.442-11.465z"/>
        <path d="m349.1 775.9c4.894-1.239 8.237-7.593 4.697-11.923 0.193-1.019 0.753-1.963 1.43-2.774 2.156-2.597 5.284-1.68 4.758-5.949-0.367-2.952-2.622-4.039-5.05-5.229-6.49-3.184-10.977-0.941-17.081-1.646-2.923-0.335-5.519-0.864-8.34 1.002-3.261 2.152-2.262 4.15-4.028 6.994-1.301 2.094-4.001 2.404-4.871 5.043-0.189 0.561-0.226 1.496-0.156 2.521 0 6e-3 0 0.011 1e-3 0.017 2.197 0.626 4.387 1.31 6.547 2.114 3.998 1.489 5.477 3.265 8.813 5.503 3.657 2.461 7.106 2.871 11.154 4.284 0.451 0.159 0.877 0.339 1.293 0.529 0.137 0.063 0.269 0.129 0.402 0.195 0.278 0.137 0.55 0.28 0.813 0.431 0.138 0.079 0.277 0.156 0.412 0.238 0.271 0.165 0.532 0.339 0.789 0.517 0.092 0.064 0.189 0.124 0.28 0.189-1e-3 -3e-3 -3e-3 -5e-3 -5e-3 -7e-3 -0.546-0.797-1.184-1.51-1.858-2.049z"/>
        <path d="m261.17 717.68c0.496-1.161-0.037-2.853 0.525-3.874 1.105-2.02 4.097-2.463 5.175-4.767 1.217-2.604-0.516-4.946 0.627-7.137 1.064-2.045 4.002-3.066 4.411-5.787 0.75-5.008-6.048-9.568-5.983-14.406 0.06-4.217 1.055-3.503-2.02-6.994-2.13-2.416-2.655-4.084-2.009-6.974 0.489-2.194 2.603-5.1 0.091-7.331-2.383-2.116-7.581 0.105-10.583-0.35-0.786-2.645-8.989-5.754-10.425-2.178-3.43-2.517-17.08-0.619-20.11 2.459-6.978-2.87-11.128 0.829-14.218 6.629-4.071-0.905-7.867-0.512-9.732 3.441-1.025 2.158-0.859 4.198-2.469 6.236-0.096 0.116-0.205 0.203-0.303 0.313 0.126 0.09 0.257 0.174 0.384 0.263 0.526 0.368 1.058 0.727 1.596 1.073 0.229 0.148 0.462 0.29 0.695 0.434 0.486 0.301 0.978 0.589 1.475 0.868 0.206 0.115 0.41 0.232 0.618 0.344 0.707 0.38 1.421 0.742 2.15 1.07 6.649 2.995 12.645 4.637 16.521 11.646 4.346 7.868 10.843 9.876 17.724 15.712 4.142 3.51 5.59 8.843 9.803 11.94 0.408 0.299 0.8 0.578 1.182 0.847 0.078 0.055 0.153 0.106 0.229 0.16 0.285 0.199 0.563 0.391 0.835 0.576 0.146 0.1 0.289 0.196 0.432 0.293 0.075 0.051 0.148 0.1 0.222 0.15 2.024 1.362 3.717 2.442 5.398 3.892l3e-3 -3e-3c1.604-1.604 3.16-3.317 4.9-5.15 0.864-0.901 2.365-2.235 2.856-3.395z"/>
        <path d="m166.24 593c12.471-0.673 18.111-13.764 16.46-24.653-0.431-2.827 1.003-5.438 0.1-7.788-1.336-3.451-6.098-4.568-8.284-7.163-1.751-2.071-1.724-4.066-4.678-5.882-1.249-0.769-2.448-1.041-3.662-1.559-1.445-0.619-2.144-1.184-3.377-1.834-4.354-2.319-6.661-0.61-11.302-9e-3 -4.255 0.56-6.517 0.211-9.183-2.56-3.521-3.666-6.981-4.91-10.95-5.321-0.405 0.473-0.771 0.993-1.04 1.628-2.331 5.567 2.076 16.507 5.261 20.94-0.291 0.278-0.57 0.562-0.839 0.848-0.086 0.092-0.165 0.185-0.249 0.276-0.182 0.201-0.361 0.402-0.532 0.605-0.085 0.103-0.165 0.205-0.247 0.308-0.162 0.202-0.319 0.406-0.469 0.611-0.071 0.099-0.14 0.197-0.208 0.296-0.152 0.221-0.297 0.442-0.434 0.666-0.052 0.085-0.104 0.17-0.154 0.256-0.148 0.255-0.285 0.512-0.411 0.771-0.028 0.057-0.058 0.112-0.084 0.168-0.464 0.992-0.767 2.013-0.865 3.054l1.607 5.729c0.186 0.273 0.371 0.547 0.587 0.818 0.706 0.89 3.177 1.191 3.756 2.296 0.842 1.607-0.571 2.583 0.097 4.313 1.227 3.135 4.191 5.391 4.849 8.242 0.639 2.773-1.988 6.503-0.578 9.91 1.157 2.782 4.058 4.151 6.071 6.195 0.338 0.346 0.657 0.704 0.959 1.071 0.015 0.019 0.029 0.036 0.043 0.055 0.906 1.112 1.659 2.318 2.311 3.581 7e-3 -7e-3 0.012-0.015 0.019-0.021 1.723-1.664 2.211-4.482 3.703-6.271 3.081-3.667 9.768-4.113 11.723-9.576z"/>
        <path d="m157.28 490.45c1.887-0.573 2.617-1.561 4.845-1.761 2.255-0.204 5.311 0.314 7.667 0.427 0.82 5.214 6.096 1.205 7.844 0.029 2.609-1.757 8.749-2.399 9.539-6.284 2.644 2.014 7.421 1.867 9.828-0.476 1.406-1.372 1.219-3.245 2.274-4.333 1.228-1.259 3.58-1.468 5.168-2.846 3.851-3.358 3.582-5.058 2.189-9.271-1.202-3.629-0.431-8.725-5.162-9.971 1.346-4.439 2.357-6.32-2.996-7.733-3.435-0.909-7.047-0.635-10.35-1.67-1.974-0.61-2.533-2.477-3.474-4.243-4e-3 -8e-3 -8e-3 -0.017-0.012-0.024-0.227 0.261-0.436 0.52-0.708 0.783-3.246 3.07-5.734 3.359-6.123 8.322-3.5 4.875-12.304 0.686-17.396 3.517-6.539 3.643-5.008 11.152-0.847 15.911-2.504 3.449-4.572 5.814-5.038 10.207-0.315 2.93 0.927 5.055-0.534 7.87-0.176 0.339-0.376 0.667-0.586 0.99-0.163 0.25-0.331 0.496-0.506 0.739-3e-3 4e-3 -5e-3 8e-3 -8e-3 0.012 1.421 0.274 2.899 0.26 4.386-0.195z"/>
    </g>
</svg>