<svg  viewBox="0 0 1000 1000">
    <g id="epidermisbawah">
        <path d="m666.48 808.42c0.471 0.067 0.946 0.159 1.407 0.287 1.035 0.291 1.877 0.742 2.584 1.295-0.177-0.224-0.339-0.445-0.49-0.658-1.609-2.225-3.524-4.132-4.865-6.572-1.372-2.484-2.462-5.372-4.534-7.39-1.968-1.919-4.837-2.869-7.24-4.132-5.669-2.973-11.001-6.309-17.612-6.456-4.957-0.117-11.349 2.346-15.372 1.178-4.106-1.196-6.892-5.971-11.116-7.566-7.254-2.731-15.037-1.17-22.436-0.331-8.535 0.975-11.517-1.626-19.767-2.267-13.347-1.045-24.663 10.758-37.063 13.765-15.756 3.816-40.144-2.418-51.089 12.478-5.945 8.096-5.447 11.563-15.778 4.42-6.668-4.608-11.293-12.068-18.88-15.341-6.775-2.923-14.777-4.903-22.139-3.368-10.824 2.261-17.658 12.168-27.522 11.834 0.285 0.272 0.55 0.574 0.765 0.922 0.994 1.602 1.207 3.76 1.048 5.813 0.909-3.255 2.665-6.572 5.423-7.688 10.41-4.192 16.675 14.341 8.787 20.026 1.676 0.311 3.354 0.618 5.02 0.959 7.132 1.447 14.275 2.867 21.478 3.933 5.042 0.74 10.101 1.42 15.166 2.014-2.591-6.019 5.578-14.477 11.652-15.965 5.362-1.31 7.663 2.728 7.46 7.055 0.431-2.623 1.517-5.018 3.424-5.97 2.965-1.479 6.174-0.224 8.745 1.473 0.8 0.529 1.801 1.035 2.453 1.753 1.392 1.538 2.262 2.808 2.977 4.764 0.545 1.493 0.932 3.26 0.587 4.846-0.269 1.214-0.95 2.218-1.834 3.027 3.047-0.438 6.076-0.997 9.081-1.655 6.685-1.478 13.274-3.352 19.941-4.902 16.033-3.727 33.164-9.947 48.771-12.735 23.928-4.279 52.038 7.354 75.847 9.743 4.373 0.438 8.754 0.78 13.136 1.148 0.391-4.689 6.793-10.505 11.985-9.737z"/>
        <path d="m376.5 813.66c-2.667-3.474 1.228-10.503 3.904-13.127 1.528-1.505 4.36-2.582 7.207-2.823-0.673-0.331-1.355-0.69-2.059-1.122-10.948-6.679-18.883-7.188-31.74-5.909-9.64 0.961-11.016-0.569-19.578-3.992-9.709-3.891-13.372-2.586-22.755-0.715-16.18 3.23-27.181-7.319-43.701-1.159-7.058 2.637-16.507 4.427-23.746 1.916-7.663-2.651-10.251-6.732-19.82-5.769-7.841 0.789-14.933 3.543-22.704 4.779-7.896 1.254-15.564 0.615-23.652 1.915-3.001 0.479-5.939 1.208-8.358 3.128-0.984 0.78-2.254 1.477-3.115 2.288-1.069 1.006-1.27 2.683-1.928 3.934-0.823 1.567-2 2.655-3.495 3.521-2.831 1.631-6.551 2.329-9.087 4.638-0.942 0.858-1.627 3.446-3.312 2.148-2.157-1.664-1.476-5.711-1-7.989 0.639-3.074-0.338-4.597-3.479-5.881-2.063-0.84-4.368-0.861-6.539-1.201-4.47-0.695-9.012-0.981-13.532-0.921-8.131 0.115-17.704 1.037-24.465 6.028-3.141 2.319-5.613 5.896-8.924 7.692 0.066 0.032 0.134 0.052 0.2 0.092v0.474c8.751-0.438 12.726 14.483 7.24 19.164 6.28 0.231 12.493-1.553 18.306-2.132 5.742-0.57 12.417 1.523 18.394 1.614-3.003-3.596-1.673-9.07 0.818-12.738 1.33-1.964 3.187-3.88 5.449-4.725 1.391-0.519 3.297-0.364 4.708-0.04 1.998 0.466 2.315 0.95 2.748 2.725 0.229 0.943 0.362 1.885 0.445 2.822 0.025-0.181 0.041-0.362 0.074-0.54 1.068-5.671 5.763-9.305 11.102-6.15 1.837 1.084 3.945 1.816 5.276 3.63 1.611 2.199 2.693 5.343 2.359 8.085-0.146 1.193-0.531 2.191-1.039 3.067 4.654 0.906 9.28 1.31 14.014 0.563 8.082-1.28 15.011-3.683 23.628-3.993 11.418-0.412 22.784 0.537 34.134-1.14 10.481-1.551 15.188 0.789 25.479 2.416 19.33 3.056 38.423-5.087 57.715-4.136 13.076 0.649 27.274 1.11 40.894 0.967 5.034-0.057 10.061-0.275 15.091-0.34-0.431-0.303-0.83-0.642-1.157-1.064z"/>
        <path d="m60.996 816.96c0.67-3.872 9.251-10.377 12.898-10.774 5.487-0.593 8.629 4.854 8.633 9.823 0.356-0.216 0.726-0.349 1.107-0.363-0.07-3.771 1.293-7.559 3.146-9.523-1.081 0.046-2.25-0.084-3.554-0.491-7.264-2.273-7.315-10.872-11.563-15.889-5.188-6.132-9.922-5.467-17.689-3.948-9.263 1.811-11.363 0.96-20.865-1.048-11.242-2.378-22.799-4.021-33.11-1.443v28.19c12.139 9.244 19.81 7.71 34.269 9.041 7.458 0.684 15.428 0.14 22.519 1.125 2.218 0.311 3.976 0.415 5.535 0.377-0.98-1.594-1.619-3.389-1.326-5.077z"/>
        <path d="m999.95 773.05c-2.765 0.504-5.411 1.31-7.609 2.501-3.603 1.941-6.726 6.816-10.412 7.426-2.646 0.436-8.403-2.946-12.253-2.697-4.008 0.265-8.322 2.074-12.295 3.343-11.263 3.597-11.758-2.5-22.659-3.596-9.218-0.929-15.813 4.702-23.893 7.577-8.082 2.874-16.176 1.402-24.495 2.606-10.677 1.543-9.834 5.965-16.229 12.327-2.155 2.142-4.527 3.098-6.979 3.325 2.282 2.157 3.018 6.051 2.524 9.746 0.275-0.304 0.586-0.549 0.937-0.688 0.529-0.2 1.034-0.144 1.519 0.056-0.656-4.748 0.097-10.772 3.513-12.563 6.251-3.276 15.582 4.368 17.767 9.715 2.616 6.407 1.337 11.115-5.772 12.906-0.147 0.032-0.289 0.045-0.434 0.083 3.801 0.197 7.857-0.408 11.408-0.632 6.316-0.39 12.617-0.968 18.885-1.843 3.253-0.454 6.49-0.986 9.713-1.618 17.964-3.532 32.816-1.163 51.221-1.223 8.424-0.022 25.595-1.659 25.595-1.659"/>
        <path d="m854.12 822.84c-1.923-1.481-3.536-3.581-4.56-5.771-2.697-5.762 0.016-10.528 5.873-12.346-1.57-0.514-3.109-1.13-4.571-1.729-7.532-3.099-11.826-3.862-20.252-4.957-8.48-1.104-12.28-6.713-20.806-7.564-7.553-0.759-15.623 1.003-22.686 0.923-15.116-0.174-28.693 0.786-43.529 1.938-6.741 0.521-12.524-2.262-18.932-2.127-8.037 0.17-15.34 3.803-22.984 5.815-6.791 1.785-12.806 2.7-18.41 7.396-0.674 0.569-1.289 1.128-1.871 1.707 6.981-2.8 13.585 7.812 11.504 14.438 0.093 4e-3 0.185 4e-3 0.282 8e-3 6.547 0.268 13.09 0.48 19.64 0.641 13.078 0.328 26.161 0.457 39.244 0.477h6.655c10.3-0.016 20.138 0.827 30.272 0.949 11.604 0.135 23.197 0.596 34.787 1.094 5.723 0.245 11.443 0.499 17.166 0.726 4.593 0.182 9.007-0.97 13.532-1.378-0.117-0.089-0.234-0.149-0.354-0.24z"/>
    </g>
    <g id="penjaga">
        <path d="m90.819 805.14c-6.093-3.653-13.343 18.686 1.787 20.918 12.54 1.852 9.007-20.985-1.787-20.444"/>
        <path d="m135.86 825.35c5.636 4.462 10.725-0.981 12.396-6.426 0.963-3.127 0.993-6.278 0.225-9.443-0.433-1.774-0.75-2.259-2.748-2.725-1.411-0.324-3.317-0.479-4.708 0.04-2.262 0.845-4.119 2.761-5.449 4.725-2.759 4.056-4.112 10.343 0.284 13.829z"/>
        <path d="m149 811.76c-0.991 5.254 2.615 11.106 7.673 12.19 5.105 1.092 10.375-0.971 11.064-6.626 0.334-2.742-0.748-5.886-2.359-8.085-1.331-1.813-3.439-2.546-5.276-3.63-5.338-3.154-10.034 0.48-11.102 6.151z"/>
        <path d="m395.33 800.52c-2.771-4.456-11.722-3.138-14.934 0.017-2.676 2.624-6.571 9.653-3.904 13.127 1.683 2.184 4.968 2.64 7.534 2.603 1.412-0.022 2.852-0.208 4.206-0.628 0.591-0.182 1.143-0.503 1.723-0.683 1.489-0.461 2.634-0.182 3.865-1.365 1.057-1.021 1.619-2.554 1.99-3.937 0.727-2.717 1.082-6.618-0.48-9.134z"/>
        <path d="m405.85 820.28c14.501-0.945 7.987-26.474-4.043-21.628-4.119 1.66-6.016 8.25-6.169 12.19-0.243 6.304 4.05 9.839 10.212 9.438z"/>
        <path d="m455.99 829.27c1.481 0.773 3.226 1.042 4.906 0.712 4.881-0.958 8.558-5.906 9.959-10.407 1.602-5.133-0.372-11.573-6.946-9.965-7.49 1.837-18.173 14.269-7.919 19.66z"/>
        <path d="m488.97 818.69c0.545 1.493 0.932 3.26 0.587 4.846-0.504 2.29-2.459 3.848-4.524 4.72-4.555 1.926-10.949 0.835-13.065-4.092-1.548-3.604-1.059-11.525 2.827-13.463 2.965-1.479 6.174-0.224 8.745 1.473 0.8 0.529 1.801 1.035 2.453 1.753 1.392 1.538 2.261 2.807 2.977 4.763z"/>
        <path d="m666.48 808.42c0.471 0.067 0.946 0.159 1.407 0.287 4.753 1.317 6.033 5.766 3.563 9.829-2.603 4.287-7.831 5.995-12.601 4.733-10.39-2.738-0.038-15.987 7.631-14.849z"/>
        <path d="m680.3 806.66c8.479-5.138 17.033 10.746 10.917 16.697-8.031 7.809-23.237-9.233-10.917-16.697z"/>
        <path d="m855.69 804.64c16.135-4.704 10.974 27.826-1.567 18.2-1.923-1.481-3.536-3.581-4.56-5.771-2.736-5.849 0.087-10.67 6.127-12.429z"/>
        <path d="m869.29 819.34c2.691 5.535 8.535 7.145 14.322 5.69 7.109-1.791 8.389-6.499 5.772-12.906-2.185-5.347-11.516-12.991-17.767-9.715-4.641 2.429-4.382 12.684-2.327 16.931z"/>
        <path d="m81.833 819.82c-1.015 2.432-2.999 4.813-5.408 5.977-1.23 0.584-2.221 0.452-3.508 0.744-1.293 0.287-2.285 1.11-3.695 0.887-1.597-0.253-3-1.115-4.194-2.171-2.133-1.878-4.556-5.263-4.033-8.297 0.67-3.872 9.251-10.377 12.898-10.774 6.981-0.751 10.185 8.266 7.94 13.634z"/>
    </g>
    <g id="epidermisatas">
        <path d="m999.95 178.41s-59.601 1.874-79.638 2.818c-20.042 0.943-133.22-1.892-159.23 2.836-26.011 4.73-113.06 2.837-153.74 0-40.678-2.836-258.26-14.192-258.26-14.192h-349.08v39.712c8.952 6.1 14.621 11.969 26.492 13.262 12.922 1.409 21.42-2.388 29.508-12.172 6.104 4.359 11.193 9.679 19.681 9.339 7.881-0.31 10.903-7.831 17.22-9.271 7.89-1.802 12.783 6.332 19.677 9.036 6.333 2.482 16.102 4.19 22.704 2.124 6.06-1.889 11.001-8.822 17.24-9.268 6.963-0.494 15.872 4.152 23.44 4.542 8.102 0.419 16.102-2.459 23.674-1.87 6.219 0.483 10.69 6.732 17.902 8.541 11.392 2.864 34.609 1.704 39.945-11.235 6.88 0.571 17.065 3.412 23.516 2.743 3.251-0.34 7.296-4.749 10.329-4.847 5.269-0.174 5.657 2.689 9.747 4.542 8.979 4.053 12.733 2.262 21.494-0.71 8.515-2.89 13.344 2.554 21.454 3.011 8.547 0.479 16.295-5.603 24.927-4.926 7.926 0.623 14.284 4.351 22.702 4.752 9.486 0.45 12.685 1.081 20.819 4.964 7.832 3.74 14.957 3.986 23.647 3.547 7.355-0.367 17.171-0.317 23.907-3.524 6.747-3.211 11.404-10.449 19.351-8.534 8.304 2.002 10.322 8.439 20.126 8.273 8.578-0.137 15.697-4.964 24.592-3.781 5.359 0.713 8.889 4.174 14.192 4.778 4.991 0.57 10.672-4.148 15.132-3.619 4.242 0.506 7.958 4.322 13.25 5.489 6.17 1.36 12.701 1.942 19.18 1.863 5.119-0.061 11.117-3.362 15.848-2.859 4.513 0.477 7.865 2.954 13.222 4.702 14.492 4.742 28.419-3.868 40.397-1.416 6.624 1.356 7.994 5.941 16.441 4.057 6.808-1.518 13.225-6.111 18.843-10.037 4.367 8.375 17.711 9.744 26.276 11.465 9.592 1.931 20.196 2.449 27.646-5.073 14.386 9.859 35.446 4.45 50.089-1.832 9.669-4.153 12.228-2.374 22.707-0.896 8.571 1.212 16.821-0.763 23.467-5.576 2.372 7.147 16.338 9.452 22.937 9.361 6.533-0.086 11.119-5.252 17.148-5.886 7.175-0.763 13.875 4.975 21.273 6.305 14.904 2.679 29.842-2.867 44.828-1.364 11.59 1.16 19.691-0.898 29.537-4.522 7.563-2.78 16.506 0.318 23.442 0.405v-45.057z"/>
    </g>
    <g id="palisade">
        <path d="m999.95 223.47c-6.937-0.086-15.88-3.185-23.442-0.405-9.846 3.624-17.947 5.682-29.537 4.522-14.986-1.503-29.924 4.042-44.828 1.364-7.398-1.33-14.099-7.068-21.273-6.305-6.029 0.634-10.615 5.799-17.148 5.886-6.599 0.09-20.564-2.214-22.937-9.361-6.646 4.813-14.896 6.788-23.467 5.576-10.479-1.478-13.038-3.257-22.707 0.896-14.643 6.281-35.703 11.691-50.089 1.832-7.45 7.521-18.055 7.004-27.646 5.073-8.565-1.722-21.909-3.09-26.276-11.465-5.618 3.926-12.035 8.519-18.843 10.037-8.447 1.885-9.817-2.701-16.441-4.057-11.979-2.452-25.905 6.158-40.397 1.416-5.356-1.748-8.709-4.226-13.222-4.702-4.73-0.503-10.729 2.799-15.848 2.859-6.479 0.08-13.01-0.502-19.18-1.863-5.292-1.167-9.008-4.982-13.25-5.489-4.46-0.529-10.141 4.189-15.132 3.619-5.304-0.604-8.833-4.065-14.192-4.778-8.896-1.183-16.015 3.645-24.592 3.781-9.804 0.166-11.823-6.271-20.126-8.273-7.947-1.915-12.604 5.323-19.351 8.534-6.736 3.207-16.552 3.158-23.907 3.524-8.69 0.438-15.816 0.192-23.647-3.547-8.134-3.883-11.333-4.514-20.819-4.964-8.418-0.401-14.776-4.129-22.702-4.752-8.632-0.677-16.38 5.406-24.927 4.926-8.11-0.458-12.939-5.901-21.454-3.011-8.761 2.973-12.516 4.763-21.494 0.71-4.09-1.852-4.478-4.715-9.747-4.542-3.033 0.099-7.078 4.507-10.329 4.847-6.451 0.668-16.636-2.172-23.516-2.743-5.335 12.939-28.553 14.099-39.945 11.235-7.212-1.809-11.683-8.058-17.902-8.541-7.572-0.589-15.572 2.289-23.674 1.87-7.569-0.39-16.477-5.035-23.44-4.542-6.239 0.446-11.181 7.378-17.24 9.268-6.602 2.066-16.371 0.358-22.704-2.124-6.895-2.705-11.788-10.838-19.677-9.036-6.317 1.439-9.338 8.96-17.22 9.271-8.488 0.34-13.577-4.979-19.681-9.339-8.087 9.785-16.586 13.582-29.508 12.172-11.874-1.291-17.543-7.16-26.495-13.26v188.28c7.323-1.968 24.184-13.728 35.901-15.182 6.977-0.869 14.037 3.112 20.86 3.786 8.224 0.805 10.172 1.242 17.291 5.462 5.388 3.188 11.232 5.304 17.717 5.931 10.252 0.997 11.619-2.625 18.92-6.38 15.646-8.058 24.92 8.647 39.68 9.27 3.806 0.163 7.719-2.913 11.189-1.795 2.769 0.893 5.391 6.903 8.942 8.157 7.652 2.708 15.274-2.746 18.492-8.515 3.273-5.863 2.007-13.691 9.441-17.045 5.917-2.671 13.536 1.163 16.101 7.068 5.742 13.211-3.588 31.072 6.84 43.296 5.062 5.935 14.474 9.369 20.624 2.66 5.855-6.385 1.963-11.869-1.474-17.974-3.455-6.146-7.015-9.18-3.757-15.689 2.642-5.281 8.705-7.566 14.877-6.83 10.291 1.227 6.529 7.626 12.037 12.557 3.887 3.475 13.434 2.817 18.496 3.264 7.217 0.638 10.249-1.697 16.742-2.812 6.088-1.046 9.262 1.394 16.157-1.401 2.651-1.071 13.882-5.579 15.372-7.54 3.529-4.646 0.524-14.136 0.825-19.988 14.954-5.905 12.193 7.207 16.586 15.231 4.614 8.42 20.361 10.279 27.548 6.199 0.323-2.977 1.48-4.371 1.918-5.387-4.546 14.759-4.221 30.188-0.83 45.283 2.69 11.957 20.247 32.356 23.722 9.482 1.217-8.001-1.237-16.604-0.095-24.616 1.133-7.979 6.856-11.933 9.245-19.187 4.176-12.671-7.994-31.288-0.917-44.218 6.707-12.266 9.566 5.409 10.248 10.952 1.262 10.267-4.18 26.636 3.941 34.709 6.241 6.203 14.143 2.811 18.443 10.902 6.183 11.631-3.63 26.965 1.822 37.894 3.292 0.117 6.792 0.226 10.1 0.306-0.776 7.343-4.015 10.313 3.903 13.124 5.256 1.862 14.496-0.413 19.678-1.179 5.722-0.846 13.896-1.103 17.05-7.336 1.971-3.895-1.474-5.799 1.139-9.266 1.139-1.511 6.489-2.505 8.346-3.216-0.538-11.56 4.926-24.188 3.122-34.698 1.474 8.603 39.515-20.531 43.005-22.465 8.824-4.889 9.748 0.528 18.879 3.252 7.033 2.097 14.969 0.598 21.456 4.666 16.226 10.184 17.729 5.059 21.498-11.802 1.908 3.605 3.613 7.344 6.481 10.03-0.655-4.125-2.098-8.379-1.558-13.007 5.663-0.448 9.993-2.7 15.942-2.772 4.981-0.057 9.488 1.858 14.208-0.748 3.901 11.847 23.552 8.738 25.678-3.105 6.16-2.183 13.525-0.25 19.715 0.805 11.259 1.912 7.551 4.718 15.371 11.118 5.67 4.64 13.802 2.607 20.574 4.02 8.533 1.779 11.556 5.651 16.341 13.04 5.127 7.918 8.315 11.015 18.661 11.556 4.799 0.253 10.099-2.381 14.19-1.893 12.587 1.503 4.174 14.408 7.569 24.6 4.458 13.37 13.25 4.688 21.787 2.863 7.205-1.541 20.814 5.406 25.672-3.709-0.181 0.336 13.778 9.92 15.537 10.668 6.5 2.75 9.735 2.153 15.61-0.635 12.512-5.953 20.31-19.493 34.916-21.51 10.371-1.431 30.688-0.374 38.761 7.779 7.49 7.565-0.175 20.705 6.319 28.147 8.179 9.365 17.933-1.047 25.851-3.759 6.208-2.129 22.978 6.153 31.242 4.271v-241.09z"/>
    </g>
    <g id="spons">
        <path d="m997.11 483.22c0.925-0.181 1.875-0.293 2.839-0.377v-18.286c-8.265 1.881-25.034-6.4-31.242-4.271-5.487 1.877-11.851 7.454-17.964 7.582 0.768 2.958 1.354 5.954 0.79 9.3-10.296 3.634-17.521 12.966-30.104 10.598-15.074-2.841-4.994-16.641-16.037-23.725-8.793-5.644-19.537-5.958-20.859-19.814-0.431-4.51 0.895-8.561 2.867-12.425-8.68 4.983-15.337 13.449-24.539 17.827-5.875 2.788-9.11 3.385-15.61 0.635-1.759-0.748-15.718-10.332-15.537-10.668-4.857 9.116-18.467 2.169-25.672 3.709-8.537 1.825-17.329 10.507-21.787-2.863-3.396-10.192 5.018-23.097-7.569-24.6-4.092-0.488-9.392 2.146-14.19 1.893-10.346-0.541-13.534-3.638-18.661-11.556-4.785-7.389-7.808-11.261-16.341-13.04-6.772-1.413-14.904 0.62-20.574-4.02-7.82-6.4-4.112-9.206-15.371-11.118-6.189-1.054-13.555-2.988-19.715-0.805-2.126 11.843-21.776 14.952-25.678 3.105-4.72 2.606-9.227 0.691-14.208 0.748-5.949 0.072-10.279 2.324-15.942 2.772-0.54 4.628 0.902 8.882 1.558 13.007-2.868-2.687-4.573-6.425-6.481-10.03-3.769 16.861-5.272 21.986-21.498 11.802-6.487-4.068-14.423-2.569-21.456-4.666-9.131-2.724-10.055-8.141-18.879-3.252-3.49 1.934-41.531 31.068-43.005 22.465 1.804 10.51-3.66 23.138-3.122 34.698-1.857 0.711-7.208 1.705-8.346 3.216-2.613 3.467 0.832 5.371-1.139 9.266-3.154 6.233-11.329 6.49-17.05 7.336-5.182 0.767-14.422 3.042-19.678 1.179-7.918-2.811-4.68-5.78-3.903-13.124-2.177-0.053-4.419-0.121-6.648-0.192-0.837 1.268-1.73 2.545-2.695 3.83-6.044 8.039-10.707 5.704-18.891 9.417-11.426 5.183-2.437 8.878-4.006 15.923-1.277 5.737-10.476 9.882-15.13 12.244-8.978 4.556-10.515 3.071-9.271-8.274 1.515-13.822 6.882-27.21 4.106-42.23-0.055 0.854-0.123 1.7-0.251 2.539-3.475 22.874-21.031 2.474-23.722-9.482-3.391-15.095-3.717-30.523 0.83-45.283-0.438 1.016-1.595 2.41-1.918 5.387-7.187 4.08-22.934 2.221-27.548-6.199-4.393-8.024-1.633-21.137-16.586-15.231-0.301 5.852 2.704 15.341-0.825 19.988-1.49 1.96-12.721 6.468-15.372 7.54-6.895 2.795-10.069 0.355-16.157 1.401-1.622 0.276-3.029 0.631-4.34 1.002 0.261 2.728 0.73 5.33 1.506 7.721 2.334 7.212 7.381 12.451 8.325 20.101 0.841 6.811 0.368 14.915 0.444 21.529 0.096 8.466-1.902 11.133-10.59 14.257-9.662 3.476-13.181 2.331-14.238-7.615-1.687-15.849 4.367-29.977 3.782-45.412-0.106-2.88-0.262-5.799-0.416-8.719-0.404-0.02-0.781-0.012-1.215-0.052-5.062-0.447-14.609 0.211-18.496-3.264-5.507-4.931-1.746-11.33-12.037-12.557-6.172-0.737-12.235 1.548-14.877 6.83-3.258 6.509 0.302 9.543 3.757 15.689 3.437 6.105 7.329 11.589 1.474 17.974-6.15 6.709-15.563 3.275-20.624-2.66-10.429-12.224-1.098-30.085-6.84-43.296-2.565-5.905-10.184-9.739-16.101-7.068-7.435 3.354-6.168 11.182-9.441 17.045-3.217 5.769-10.84 11.223-18.492 8.515-3.551-1.254-6.173-7.264-8.942-8.157-3.47-1.118-7.383 1.958-11.189 1.795-14.76-0.623-24.034-17.328-39.68-9.27-7.301 3.755-8.667 7.377-18.92 6.38-6.485-0.627-12.329-2.743-17.717-5.931-7.119-4.22-9.067-4.658-17.291-5.462-6.823-0.673-13.883-4.654-20.86-3.786-11.724 1.455-28.585 13.214-35.908 15.182v24.843c0.698-0.64 1.405-1.276 2.126-1.904 11.187-9.743 25.967-9.531 38.58-15.13 14.451-6.422 32.286-2.414 46.374 3.521 12.049 5.078 22.686 14.998 27.417 27.412 4.527 11.876 8.884 42.895-12.205 41.837 6.271 15.757-20.723 33.189-29.684 17.003-11.467 6.549-25.025 7.893-38.34 7.22-6.65-0.336-11.094 1.867-18.186 2.097-5.605 0.187-11.504-3.42-16.083-4.984v0.729l2.838 1.423c-1.017-0.096-1.956-0.266-2.837-0.488v152.74c11.396-9.8 24.633-19.619 28.506-18.278 8.658 2.998-9.031 45.722-6.792 54.288 1.679 6.426 5.508 8.409 4.798 16.086-0.609 6.544-4.791 12.002-6.434 18.183-3.895 14.631 8.272 20.36 20.601 23.484 12.531 3.186 22.086 6.889 35.787 7.685 7.345 12.563-16.818 15.213-24.434 14.03-11.752-1.828-18.985-9.581-28.618-15.853-7.267-4.725-14.825-8.527-23.414-10.098v39.594c10.938-0.84 24.889-0.295 33.11 1.443 9.501 2.008 11.602 2.858 20.865 1.048 7.767-1.519 12.5-2.184 17.689 3.948 4.248 5.017 4.299 13.615 11.563 15.889 7.929 2.481 11.25-4.537 16.316-8.28 9.815-7.242 31.18-7.121 43.307-4.043 0.243 0.062 0.526 0.088 0.803 0.116-2.393-2.586-5.221-4.742-9.108-6.02-6.421-2.117-14.857 1.959-19.865-3.768-6.378-7.294 1.694-14.612 1.467-21.55-0.242-7.383-7.914-12.438-11.163-18.919-10.017-20.005 13.907-20.007 10.432-38.783-2.165-11.694-7.271-38.974 16.13-31.268 7.661 2.52 10.663 11.696 16.058 17.102 5.521 5.534 14.75 6.252 19.841 11.096 10.799 10.261-23.85 13.795-5.441 30.24 4.847 4.328 10.902 5.937 12.801 12.561 1.758 6.146-0.068 16.13 0.258 22.707 0.387 7.76-1.937 17.02-6.409 24.692 1.989-1.811 3.827-2.997 9.197-3.857 8.087-1.3 15.755-0.661 23.652-1.915 7.771-1.236 14.863-3.99 22.704-4.779 9.569-0.964 12.157 3.117 19.82 5.769 7.239 2.511 16.688 0.721 23.746-1.916 16.52-6.16 27.521 4.39 43.701 1.159 9.383-1.871 13.045-3.176 22.755 0.715 8.562 3.423 9.938 4.953 19.578 3.992 10.17-1.012 17.265-0.889 25.201 2.501-2.399-3.154-3.713-7.547-3.433-13.119 0.331-6.703-1.068-17.479 7.353-17.759 6.791-0.227 13.573 9.543 16.344 13.929 4.104 6.494 6.172 12.935 16.98 8.582 6.318-2.538 13.968-12.127 8.56-18.253-5.383-6.098-13.472 0.279-15.181-11.092-1.2-7.986 6.02-13.188-6.624-14.193-7.962-0.631-12.396 5.485-19.867 6.619-7.942 1.201-15.543-5.632-22.964-2.165-5.749 2.683-8.967 10.453-14.876 13.547-5.869 3.075-15.736 6.169-22.704 5.651-12.029-0.902-26.541-18.552-28.409-30.246-0.965-6.054 5.38-15.271 1.726-20.601-3.853-5.625-17.851-6.347-23.458-4.734-7.279 2.098-12.01 8.569-18.715 11.326-6.416 2.636-14.02 2.433-21.018 3.577-20.594 3.354-14.875 28.996 5.725 21.067 12.842-4.948 21.474-15.676 36.842-13.285 15.299 2.372 10.949 11.498 10.2 21.332-0.378 4.972 5.511 18.708-3.232 18.983-4.854 0.15-11.854-13.665-18.109-15.194-21.055-5.157-48.063 43.187-65.72 11.763-4.128-7.346-1.46-14.913-2.604-22.906-0.984-6.861-5.202-12.588-5.674-19.871-0.459-7.08 0.797-15.065 2.839-21.756 4.225-13.853 21.36-23.364 18.943-38.789-1.606-10.237-6.583-12.545 2.837-19.864 6.518-5.061 14.112-8.348 19.84-15.139 12.316-14.602-2.169-26.644-6.874-40.426-5.328-15.606 7.742-6.604 14.257-11.797 4.323-3.445 2.99-15.625 6.812-20.762 3.755 6.311 3.514 16.284 10.618 20.739 6.354 3.988 13.197 1.566 19.657 5.891 4.477 2.994 11.677 7.969 15.11 11.588 6.058 6.384 3.44 10.853-0.922 18.665-4.44 7.952-7.55 13.339-7.567 22.723-0.018 9.581 3.903 11.417 7.335 19.104 6.571 14.732-16.845 23.708 0.416 37.418 9.209 7.313 31.917-3.532 32.791-15.376 0.766-10.414-25.408-15.353-10.266-23.169 7.796-4.026 18.975-4.351 23.855-13.225 3.621-6.584 1.12-16.63-0.417-23.46-1.57-6.981-6.357-13.827-0.709-20.055 5.848-6.452 13.807-4.281 20.099 0.688 10.158 8.012 5.728 12.062 6.366 22.939 0.824 14.097 17.226 11.954 27.448 6.827 10.614-5.318 16.13-5.519 28.362-4.937 15.365 0.729 17.475-0.034 26.489-11.448 4.506 4.161 2.406 11.418 5.445 16.02 2.443 3.691 9.288 2.678 8.767 8.695-0.353 4.094-6.398 5.883-9.429 7.761-9.666 5.992-26.512 18.582-14.365 31.157 7.051 7.298 21.378 4.608 29.449 0.579 7.529-3.757 11.432-17.442 20.506-6.743 5.854 6.897 2.611 21.785-3.229 27.671-7.349 7.408-18.016 10.165-21.294 20.891-5.336 17.463 21.837 28.556 8.571 43.545-7.127 8.054-26.609 10.801-28.768 22.741-0.553 3.049 3.265 5.392 3.989 7.816 5.967 3.694 10.219 9.818 15.997 13.818 10.332 7.143 9.833 3.676 15.778-4.42 10.945-14.896 35.333-8.661 51.089-12.478 12.399-3.007 23.716-14.81 37.063-13.765 8.25 0.641 11.231 3.241 19.767 2.267 7.398-0.839 15.182-2.4 22.436 0.331 4.225 1.596 7.01 6.37 11.116 7.566 4.023 1.168 10.415-1.295 15.372-1.178 2.385 0.049 4.515 0.468 6.494 1.091 1.608-6.327 2.042-12.651-0.821-19.113-2.576-5.829-8.806-10.229-7.328-16.01 1.153-4.496 10.046-10.5 13.694-12.579 2.092-1.198 6.623-2.66 8.771-3.529 3.551-1.437 4.692-5.558 9.721-3.113 7.48 3.628 4.462 14.148 4.451 20.144-0.031 17.898 16.799 21.978 29.134 11.112 4.396-3.871 8.044-10.744 16.345-7.377 6.688 2.716 8.687 11.556 8.465 18.023-0.294 8.661-5.103 11.702-8.516 18.922-0.021 0.05-0.036 0.11-0.064 0.163 2.791-0.732 5.633-1.262 8.58-1.323 6.407-0.135 12.19 2.648 18.932 2.127 14.836-1.151 28.413-2.111 43.529-1.938 7.063 0.08 15.133-1.682 22.686-0.923 8.525 0.852 12.325 6.461 20.806 7.564 8.426 1.095 12.72 1.858 20.252 4.957 6.079 2.496 13.465 5.296 19.245-0.462 6.395-6.362 5.552-10.784 16.229-12.327 8.319-1.204 16.413 0.268 24.495-2.606 8.08-2.875 14.675-8.506 23.893-7.577 10.901 1.096 11.396 7.192 22.659 3.596 3.973-1.269 8.287-3.078 12.295-3.343 3.85-0.249 9.607 3.133 12.253 2.697 3.687-0.609 6.81-5.484 10.412-7.426 2.198-1.191 4.845-1.993 7.611-2.496v-243.44c-12.695-8.602-25.973-21.063-25.354-27.675 0.86-9.222 14.85-17.205 22.515-18.712zm-917.46 68.116c-13.382 8.659-2.233 8.173-3.169 19.513-9.926 0.472-21.911-0.052-29.965-5.693-0.937-5.308 4.883-11.058 6.507-15.87 2.418-7.17 1-12.67 9.388-17.102 11.011-5.818 31.394 1.779 42.594 5.696v0.949c-1.971 7.646-19.088 8.453-25.355 12.507zm104.56 52.767c-2.912 7.899 3.021 14.222 4.04 22.678 2.475 20.538-20.109 27.485-36.891 27.463-19.266-0.028-35.867-4.832-52.979-13.243h-0.946c-5.229 2.271-13.521-11.422-13.29-16.981 0.287-6.951 7.636-13.056 13.314-15.896 6.904-3.454 14.349-2.531 21.021-5.679 6.126-2.89 11.739-7.985 15.848-13.498 4.949-6.648 8.077-14.34 7.594-22.681-0.363-6.24-8.015-16.584-4.798-22.754 3.097-5.945 12.725-6.443 15.936-15.087 2.533-6.821 0.16-15.398 2.246-22.544 5.761-2.324 15.057-2.171 18.992 3.596 5.05 7.392-2.773 13.301-2.127 20.841 0.701 8.156 7.644 10.444 6.623 19.862-0.742 6.835-4.887 12.368-6.855 18.896-2.259 7.498-2.66 15.67 6.855 17.053 5.81 0.838 16.198-9.402 19.677-0.021 3.078 8.294-11.727 11.123-14.26 17.995zm146-36.829c-7.011 2.142-9.976-9.41-14.142-12.897-5.633-4.722-14.421-3.847-19.44-9.093-7.611-7.963-1.338-20.331-5.912-29.371-3.127-6.165-9.588-8.537-4.775-15.609 6.166-9.061 31.824-1.252 37.625 5.391 7.087 8.112-0.766 14.854-1.963 22.73-1.42 9.342 5.783 14.174 9.766 21.544 2.087 3.861 6.64 14.917-1.159 17.305zm285.5-70.257c-3.047-5.331-6.978-10.68-7.415-16.845-0.25-3.513 1.61-6.792 1.624-9.671 0.015-3.449-1.146-5.433-1.422-8.511-0.672-7.593 0.585-12.822 1.92-20.391 0.672-3.813 1.733-4.167 1.422-7.733-0.343-3.834-3.769-6.192-3.57-10.476 0.698-15.148 18.766-21.782 31.236-21.737 7.956 0.031 14.827-0.944 22.709-0.944 8.011 0 14.796 3.071 21.021 3.993 14.735 2.184 27.937 3.842 42.15 9.459 5.281 2.09 37.038 22.587 22.111 29.281 2.535 8.768 25.869 42.794 4.941 47.282 5.247 16.497-17.979 26.92-30.625 25.608-15.108-1.571-23.269 10.563-39.712 7.337-9.808-1.925-9.226-3.025-17.97 0.994-7.205 3.309-13.084 4.658-20.608 1.658-6.61-2.64-11.661-7.238-18.208-9.251-7.124-2.191-10.178-4.644-15.314-8.458 0.036 0.612 0.095 1.225 0.182 1.834l-2.842-3.78c0.959 0.688 1.834 1.333 2.66 1.946-0.281-4.799 1.094-9.521 5.71-11.595zm-11.251 61.629c0.446-2.849 5.059-2.948 5.769-5.584 0.896-3.342-0.94-6.447-0.968-9.509-0.073-7.674 0.28-11.029 8.7-13.973 4.006-1.405 17.63-3.354 21.571-1.179 8.264 4.555-7.242 19.961 6.793 28.158 8.579 5.013 28.887-4.071 26.802 13.01-9.55-0.111-11.684 7.338-18.443 11.629-6.679 4.246-13.618 3.143-21.006 0.982-8.305-2.434-31.065-11.729-29.218-23.534zm-63.106-74.458c7.897-3.627 6.601-7.167 13.724-1.867 2.33 1.738 9.31 9.082 8.791 12.093-0.915 5.307-8.737 4.929-9.396 12.107-0.762 8.372 8.127 13.747-4.631 17.705-11.774 3.654-29.692-3.603-29.533-16.617 0.173-14.22 10.661-18.647 21.045-23.421zm94.438 222.09c-4.727 15.532-31.818 9.104-42.639 8.511-11.488-0.627-38.815 6.951-43.54-5.677-5.361-14.334 25.267-33.346 3.757-45.172-7.93-4.355-17.274-4.121-25.869-2.198-6.837 1.527-14.525 10.296-21.121 7.877-7.591-2.78-9.814-17.781-13.246-24.102-5.025-9.247-5.584-9.516-2.152-19.704 2.699-8.002 2.076-8.614-4.022-14.855-4.5-4.608-15.201-10.803-12.082-18.02 2.433-5.628 12.475-6.227 16.863-9.881 5.374-4.478 9.086-10.732 8.703-17.739-0.454-8.241-5.665-9.027-9.462-15.326-4.645-7.714-1.281-17.525 7.803-12.126 5.434 3.229 10.234 15.501 12.805 20.825 7.503 15.565 22.715 17.327 34.236 29.334 6.052 6.305 9.354 10.256 9.438 18.963 0.067 7.261-4.995 12.176-5.626 19.819-1.439 17.426 11.736 25.964 26.484 26.702 16.627 0.832 30.785 1.66 42.81 14.689 6.444 6.984 4.392 12.595 7.521 20.123 2.507 6.035 11.718 10.118 9.339 17.957zm72.587-38.03c-0.077 1.039-4.029 6.105-4.54 7.755-1.076 3.46 0.53 7.004-0.996 10.354-3.249 7.123-10.054 7.052-17.922 9.721-7.163 2.434-15.712 7.345-20.837 1.705-0.937-1.032-1.671-7.103-3.054-9.223-2.001-3.069-5.753-5.069-8.326-7.611-12.088-11.953-13.18-20.274-17.687-35.224-4.922-16.293-15.137-21.1-29.567-25.328-5.141-1.507-22.312-8.364-22.394-14.914-0.171-13.4 32.298-8.108 39.427-7.057 16.644 2.446 28.38-5.856 43.561 5.438 14.419 10.733 4.583 25.979 13.433 38.764 6.679 9.637 29.778 14.146 28.902 25.62zm61.921-89.474c-4.382 8.22-1.241 13.938-3.037 21.547-0.907 3.845-5.685 6.09-6.476 9.669-1.357 6.145 2.328 5.949 3.436 10.193 2.104 8.051 0.268 12.755-1.97 19.822-2.893 9.153 0.35 14.234-0.657 22.798-1.899 16.176-15.439 21.836-3.623 38.795 2.982 4.279 6.778 6.987 8.089 12.455 1.244 5.169-0.514 9.128 2.342 13.741 4.626 7.455 14.919 10.205 19.866 17.291 3.584 5.138 3.838 20.789-2.462 26.168-1.035 0.883-2.248 1.495-3.653 1.73-5.633 0.951-10.301-9.618-17.777-9.946-10.619-0.469-17.348 10.566-23.646-2.842-2.297-4.899 0.902-4.931-4.729-8.301-3.614-2.163-8.517-0.609-12.296-2.054-14.971-5.723-12.511-27.845-5.908-39.069 4.731-8.039 15.554-6.791 19.904-14.952 5.882-11.03-4.146-12.787-12.151-15.295-22.479-7.045-12.119-18.413-6.605-34.827 6.842-20.339-8.891-26.757-22.907-38.547-9.289-7.816-6.611-9.327-2.817-19.364 3.328-8.791 1.021-14.514 1.299-23.277 8.813-0.559 13.525-5.871 22.591-3.212 8.02 2.353 11.529 7.477 20.784 3.309 24.461-11.015-11.641-17.822-3.755-31.452 9.064-15.67 27.747-18.871 44.433-15.397 5.059 1.058 16.619 3.72 20.835 6.644 9.683 6.705-0.121 7.646-1.906 15.372-1.954 8.432 5.91 11.844 10.326 16.817-14.796 8.379-28.242 4.773-37.53 22.184zm65.057-40.894c-1.063-10.125-2.586-13.543 9.443-15.183 9.912-1.352 15.102-2.093 24.592-7.756 4.797-2.862 13.781-11.79 18.953-12.771 8.544-1.626 16.33 11.336 16.184 18.968-0.121 6.285-5.202 11.246-5.551 17.685-0.679 12.452 6.424 20.547-11.142 21.645-10.297 0.641-20.269-1.603-30.76-0.582-6.106 0.592-20.574 5.187-24.39-1.379-2.654-4.575 3.27-14.957 2.671-20.627zm84.147 224.18c-9.343 0.938-34.253 7.751-36.863-2.807-1.755-7.095 5.893-11.412 3.827-18.98-2.341-8.518-9.974-10.469-17.363-6.822-11.004 5.445-7.143 11.833-7.301 21.028-0.389 21.88-31.11 24.695-45.411 13.523-16.749-13.081 13.308-24.776 18.699-32.632 10.336-15.059-25.727-24.539-24.14-43.284 0.667-7.919 11.767-10.646 16.127-15.91 5.435-6.57 5.18-15.056 7.276-22.863 2.096-7.778 7.24-13.41 9.82-20.759 4.979-14.193-5.525-29.848 1.837-44.049 9.22-17.755 16.098 4.367 18.677 13.706 0.992 3.61 5.122 10.154 5.463 13.227 0.715 6.47-4.588 9.976-5.512 16.104-2.153 14.29 13.867 16.333 15.205 28.37 1.409 12.696 0.979 26.662 15.106 31.221 7.415 2.393 19.848 3.194 25.353 9.642 7.396 8.663-0.022 17.499 11.088 25.918 9.144 6.926 27.974 9.917 32.896 21.329 7.778 18.013-34.865 13.047-44.784 14.038zm58.683-210.91c7.735-0.778 13.915-7.053 20.671-10.075 2.1 8.528-6.616 15.01-4.821 24.477 1.884 9.933 6.271 15.039-2.606 22.703-7.994 6.907-14.99 10.072-21.526 18.708-7.105 9.398-11.509 10.615-22.794 9.691-4.919-0.405-19.658 0.383-19.11-7.818 0.302-4.458 10.222-9.359 12.346-14.191 7.055-16.033-11.658-15.04-15.23-27.434 6.6-10.417 29.452-4.987 30.508-17.836 7.615-0.381 15.64 2.463 22.562 1.775z"/>
    </g>
    <g id="pembuluh">
        <path d="m607.35 506.67c6.928 4.971 9.705 7.86 17.975 10.404 6.547 2.013 11.598 6.611 18.208 9.251 7.524 3 13.403 1.65 20.608-1.658 8.744-4.02 8.162-2.919 17.97-0.994 16.443 3.226 24.604-8.908 39.712-7.337 12.646 1.313 35.872-9.111 30.625-25.608 20.928-4.488-2.406-38.514-4.941-47.282 14.927-6.694-16.83-27.191-22.111-29.281-14.214-5.617-27.415-7.275-42.15-9.459-6.226-0.922-13.011-3.993-21.021-3.993-7.882 0-14.753 0.975-22.709 0.944-12.471-0.045-30.538 6.589-31.236 21.737-0.198 4.284 3.228 6.642 3.57 10.476 0.312 3.566-0.75 3.92-1.422 7.733-1.335 7.569-2.592 12.798-1.92 20.391 0.275 3.079 1.437 5.062 1.422 8.511-0.014 2.878-1.874 6.158-1.624 9.671 0.438 6.165 4.368 11.514 7.415 16.845-5.205 2.338-6.294 8.043-5.527 13.428"/>
        <path d="m114.5 436.61c-4.731-12.414-15.369-22.333-27.417-27.412-14.088-5.935-31.922-9.942-46.374-3.521-12.613 5.599-27.393 5.387-38.58 15.13-0.721 0.628-1.428 1.264-2.126 1.904v77.064c4.578 1.565 10.478 5.176 16.083 4.99 7.092-0.229 11.536-2.433 18.186-2.097 13.314 0.673 26.873-0.671 38.34-7.22 8.961 16.186 35.954-1.246 29.684-17.003 21.088 1.06 16.731-29.959 12.204-41.835z"/>
    </g>
</svg>