<svg  viewBox="0 0 1000 1000">
    <g id="mesofil">
        <path d="m967.94 355.75c-10.253-4.6-12.774-7.229-19.008-15.265-8.853-11.403-12.413-5.659-24.034-9.908-16.056-5.867-14.363-32.714-13.576-47.509 0.303-5.719 1.609-12.167 3.857-18.424-14.122 6.278-25.653 9.739-46.014 8.947-22.83-0.886-27.793-12.305-45.443-21.484-13.415-6.977-8.968-4.833-24.614 2.005-9.631 4.208-19.112 7.868-29.516 9.729-19.064 3.412-29.965-5.263-46.707-6.753-24.97-2.228-47.234 12.621-73.923 10.709 3.153 6.576 6.192 13.35 8.067 20.677 7.316 28.639-39.68 48.588-61.282 53.48-20.373 4.61-37.288 6.159-57.688 1.317-20.726-4.913-33.265-19.331-51.852-27.649-6.16-2.758-20.201-6.397-24.311-11.883-4.981-6.649-0.871-19.851 0.549-27.208 1.114-5.754 2.64-11.537 3.258-17.572-16.087 9.209-30.179 23.737-49.726 27.42-25.689 4.838-39.186-12.002-61.522-18.73-23.098-6.967-36.814 11.616-59.343 13.487-23.391 1.945-39.661-17.741-60.783-17.028-23.875 0.807-45.623 18.152-71.399 17.028-24.202-1.055-39.319-27.307-63.427-24.608-27.594 3.089-44.697 24.074-74.415 8.041-11.047-5.957-15.449-19.181-24.549-23.079v113.42c23.434-1.213 56.951-1.887 45.35 27.712-4.952 12.622-14.23 18.405-26.024 21.49-7.23 1.896-12.18 4.921-19.232 7.646-0.029 0.014-0.063 0.019-0.093 0.029v26.827c11.324-5.58 24.836-11.23 36.12-9.437-0.168 8.928-11.051 14.365-12.27 22.454-1.005 6.695 5.526 11.721 4.526 20.366-1.357 11.745-10.408 15.349-19.479 21.494-2.952 1.996-5.912 4.278-8.897 6.59v142.53c11.076 3.288 28.237-3.25 37.487 4.427 18.043 14.976-28.145 16.588-21.272 35.153 1.05 2.836 5.793 4.69 7.378 7.27 2.544 4.134 2.916 9.912 3.654 14.451 0.634 3.907 1.881 8.266 1.124 12.444-0.936 5.185-5.159 7.339-6.555 11.537-2.476 7.437 0.212 16.106-1.5 23.628 1.212-0.589 2.464-1.278 3.767-2.076 12.215-7.5 17.291-17.146 30.674-22.706 20.484-8.513 39.75-9.379 59.006 1.52 9.105 5.149 12.749 12.974 18.83 18.896 0.024 0.018 0.039 0.039 0.064 0.06 0.742 0.722 1.421 1.382 2.05 1.98 0.099 0.095 0.173 0.162 0.273 0.251 0.52 0.496 1.02 0.972 1.476 1.387 0.108 0.104 0.203 0.18 0.312 0.272 0.411 0.371 0.807 0.734 1.167 1.042 0.095 0.072 0.174 0.127 0.263 0.206 0.352 0.292 0.698 0.568 1.01 0.804 0.054 0.038 0.098 0.062 0.147 0.099 4.19 3 5.438 0.772 14.806-0.991 0.049-0.01 0.089-0.015 0.138-0.025 0.872-0.162 1.822-0.32 2.843-0.475 25.796-3.752 45.726 13.274 70.329 11.924 19.896-1.084 37.908-10.509 58.061-6.216 13.497 2.872 10.032 6.334 23.167 3.017 10.543-2.654 17.246-12.036 29.308-13.023 15.443-1.257 24.599 4.342 37.729-2.4 0.793-0.407 1.555-0.837 2.298-1.282 0.242-0.144 0.475-0.293 0.713-0.44 0.5-0.312 0.99-0.629 1.475-0.951 0.258-0.172 0.504-0.348 0.762-0.521 0.46-0.32 0.921-0.654 1.367-0.985 0.227-0.167 0.46-0.331 0.684-0.498 0.554-0.422 1.098-0.842 1.638-1.269 0.599-0.471 1.198-0.95 1.788-1.425 0.04-0.031 0.079-0.061 0.118-0.096 0.808-0.654 1.62-1.308 2.437-1.955 0.05-0.039 0.1-0.084 0.148-0.125 0.644-0.503 1.288-1.01 1.936-1.505 0.054-0.043 0.114-0.089 0.174-0.134 4.079-3.084 8.545-5.867 14.601-7.48 14.057-3.739 29.61-3.562 44.607-1.05-0.97-4.947-1.52-10.012-1.268-15.78 0.95-21.771-0.861-43.163 0.247-65.617 0.505-10.079 3.095-18.423-4.743-26.044-6.373-6.194-15.334-6.715-17.022-18.073-2.031-13.632 7.431-12.206 17.046-13.632 4.363-0.644 3.66 1.273 9.309-1.895 4.704-2.636 8.918-8.912 12.19-13.063 6.551-8.299 7.521-12.397 19.172-12.136 8.729 0.198 16.618 3.401 23.721 8.204 9.044 6.11 8.284 15.063 15.024 22.054 9.298 9.657 14.748 2.977 23.221-2.029 9.587-5.67 16.285-6.596 23.165 2.312 2.425 3.144 1.975 7.656 5.064 10.469 3.445 3.125 11.709 1.781 13.963 4.407 10.002 11.659-19.009 43.186 6.714 41.748 5.148-0.292 7.985-5.188 12.383-6.625 5.269-1.712 11.527-1.355 16.855-2.365-1.129 25.275 30.193 12.13 34.105 30.422 0.812 3.79-1.213 6.916 0.01 11.376 0.909 3.339 4.238 6.097 5.342 9.245 3.887 11.066-0.247 11.186-9.565 19.262-14.869 12.893-25.059 19.199-24.064 40.441 0.063 1.353 0.108 2.745 0.152 4.156 0.021-0.014 0.041-0.039 0.062-0.056 2.89-2.893 5.743-5.853 8.685-8.723 0.426-0.421 0.853-0.834 1.282-1.249 0.366-0.346 0.738-0.693 1.108-1.044 0.479-0.447 0.966-0.897 1.455-1.338 0.363-0.327 0.729-0.653 1.094-0.976 0.517-0.46 1.046-0.906 1.576-1.351 0.352-0.298 0.702-0.597 1.06-0.882 0.595-0.485 1.198-0.956 1.807-1.422 0.307-0.232 0.609-0.475 0.921-0.701 0.926-0.686 1.872-1.353 2.843-1.986 15.666-10.255 29.966-13.487 49.053-13.22 13.152 0.177 27.927 8.746 40.71 6.915 10.647-1.524 18.395-10.337 28.531-14.055 1.194-0.438 2.416-0.824 3.645-1.189 0.593-0.178 1.184-0.357 1.782-0.521v-3e-3c13.601-3.738 28.896-3.592 42.934 0.267 5e-3 0 0.016 6e-3 0.02 6e-3 1.63 0.444 3.233 0.945 4.825 1.489 0.071 0.024 0.151 0.046 0.225 0.069 1.491 0.525 2.962 1.09 4.412 1.698 0.158 0.068 0.322 0.124 0.485 0.192 1.342 0.577 2.658 1.199 3.961 1.848 0.248 0.125 0.5 0.229 0.744 0.352 1.201 0.619 2.37 1.287 3.528 1.97 0.313 0.19 0.641 0.353 0.946 0.541 1.114 0.679 2.189 1.415 3.254 2.16 0.316 0.216 0.647 0.415 0.96 0.643 1.353 0.98 2.665 2.005 3.927 3.089 0.871-1.282 1.782-2.505 2.708-3.709 0.298-0.385 0.599-0.763 0.903-1.138 0.672-0.837 1.354-1.649 2.053-2.446 0.421-0.479 0.842-0.961 1.273-1.432 0.746-0.807 1.505-1.593 2.277-2.355 0.618-0.61 1.253-1.204 1.891-1.784 0.293-0.271 0.597-0.539 0.891-0.806 15.256-13.563 35.053-19.281 56.491-18.226 11.577 0.563 23.907 4.856 35.845 7.6 0.732 0.166 1.461 0.327 2.182 0.484 0.036 6e-3 0.07 0.017 0.1 0.022 0.693 0.146 1.382 0.285 2.07 0.417 0.064 0.012 0.132 0.031 0.203 0.041 0.653 0.126 1.301 0.237 1.957 0.353 0.097 0.015 0.195 0.034 0.295 0.05 0.625 0.108 1.244 0.202 1.861 0.286 0.125 0.02 0.247 0.039 0.379 0.061 0.587 0.078 1.167 0.146 1.753 0.212 0.151 0.021 0.31 0.039 0.469 0.054 0.555 0.065 1.113 0.109 1.669 0.154 0.172 0.016 0.352 0.029 0.529 0.045 0.529 0.033 1.061 0.055 1.59 0.078 0.194 0.011 0.391 0.02 0.589 0.026 0.504 0.014 1.011 0.014 1.515 0.01 0.214 0 0.426 9e-3 0.64 4e-3 0.479-0.01 0.955-0.035 1.432-0.059 0.231-9e-3 0.468-0.016 0.702-0.03 0.456-0.029 0.914-0.084 1.371-0.131 0.243-0.022 0.485-0.038 0.729-0.067 0.444-0.056 0.882-0.128 1.316-0.203 0.253-0.04 0.511-0.074 0.764-0.114 0.426-0.078 0.841-0.18 1.261-0.277 0.264-0.053 0.525-0.104 0.784-0.168 0.409-0.104 0.806-0.229 1.212-0.346 0.267-0.08 0.539-0.148 0.809-0.234 0.39-0.122 0.775-0.276 1.167-0.42 0.271-0.105 0.545-0.188 0.817-0.299 0.406-0.162 0.808-0.355 1.214-0.537 0.246-0.114 0.495-0.213 0.737-0.33 0.645-0.313 1.281-0.656 1.911-1.029l13.219-0.12v-327.01c-10.309-3.426-19.745-10.303-31.516-15.587zm-892.64-12.725c0.232-8.55 11.349-12.117 12.497-20.365 1.302-9.363-10.611-14.28-2.623-24.063 27.984-34.299 95.961 36.452 50.087 63.66-3.744 2.223-6.363 4.327-11.318 3.396v1.129c-15.132-1.783-49.346 1.902-48.643-23.757zm338.26 242.09c-2.674 17.104-7.07 41.436-18.934 54.586-6.432 7.139-17.123 14.363-26.323 15.557-12.002 1.556-18.196-4.732-28.119-8.932-1.262 25.688-5.783 30.738-31.841 28.138-10.388-1.034-15.627-4.292-24.886 0.277-8.834 4.357-15.974 10.368-26.025 11.057-12.542 0.867-14.765-5.075-21.796-13.571-8.071-9.74-10.656-7.428-23.45-6.789-15.042 0.748-34.621-2.99-44.404-15.803-5.1-6.689-5.845-16.596-2.005-24.063-24.92 8.226-59.572-21.148-63.076-43.847-2.347-15.211 0.123-33.208 6.814-46.38 3.287-6.468 23.969-36.675 8.941-35.239-0.996-11.8-0.227-21.925 0.961-33.715 1.495-14.73 4.198-15.116 16.973-21.271 12.923-6.224 8.967-8.026 7.858-20.582-1.05-11.899 4.976-20.544 9.958-30.858 4.01-8.309 7.279-20.825 18.325-22.459 9.105-1.342 23.553 6.878 31.738 9.952 13.433 5.046 12.592 1.094 20.365-8.709 6.249-7.873 16.206-16.028 26.015-16.993 18.796-1.853 47.742 1.887 64.23 11.566 4.659 2.733 17.201 10.358 19.478 15.582 2.605 5.967-3.773 14.093-3.188 22.43 17.716 6.467 38.655 12.879 53.846 25.366 6.363 5.234 17.691 14.122 21.999 21.157 5.447 8.908 3.145 21.386 3.145 31.734 0 11.17-1.93 18.978-4.579 29.416-1.556 6.11-7.032 20.485-3.644 26.321 4.436 7.642 15.205 6.279 17.334 17.791 1.668 9.051-4.368 19.667-5.71 28.281zm137.16-47.2c-4.452 4.952-9.811 18.087-17.246 16.654-3.521-0.678-1.911 0.398-3.396-2.257l-2.263 4.521c-9.651-2.055-16.801 0.673-22.907-11.254-5.04-9.833-2.436-17.28 0.06-27.205 1.639-6.534 0.292-20.21 5.596-25.197 3.625-3.406 7.164-0.801 11.591-1.955 4.337-1.129 7.091-3.367 11.007-4.838 22.994-8.605 29.495 10.181 29.778 29.724 0.173 11.967-4.825 13.577-12.22 21.807zm3.115-81.763-2.263-1.129c-3.006 1.476-13.736-1.238-14.761-6.734-1.188-6.372 7.421-9.862 11.616-12.19 7.564-4.194 9.427-5.373 13.323-11.622 5.48-8.794 0.628-10.457 12.695-8.174 41.896 7.942 2.053 52.801-20.61 39.849zm262.2 213.56c-9.894 15.264-34.145-5.019-45.56-10.335-12.427-2.971-37.636-12.414-22.373-29.313 9.638-10.671 33.173-6.721 43.293 0.312 7.384 5.129 8.2 11.675 12.448 18.099 3.976 6.009 18.167 12.017 12.192 21.237zm59.079-46.124 1.134 1.129c-5.203-9.065-22.177-15.965-19.286-28.282 3.858-16.454 26.341-11.026 37.191-7.719 7.447 15.042 1.827 58.777-19.039 34.872zm36.258-92.518c-18.357 16.257-40.113 15.067-61.146 22.375-13.193 4.591-5.738 7.551-10.46 17.821-3.511 7.61-15.626 13.893-20.9 20.959-5.49 7.358-11.096 18.098-20.671 21.257-9.703 3.208-16.836-3.064-24.949-5.733-16.871-5.536-32.329 16.457-52.012 5.677-18.977-10.391-29.525-18.18-52.916-18.12-21.063 0.054-32.462-3.649-49.097-15.557-38.413-27.511-40.992-75.713-16.741-114.26 5.724-9.101 5.016-18.255 10.461-27.431 6.186-10.407 16.011-13.497 25.764-18.954 17.127-9.571 25.396-30.06 38.72-44.365 6.056-6.501 15.622-11.804 24.634-14.448 10.037-2.951 16.24 4.872 24.801 3.243 10.621-2.02 16.984-14.166 29.723-14.591 10.606-0.357 24.218 3.852 34.602 6.535 23.891 6.179 24.984 20.821 38.907 37.16 10.874-4.372 20.871-6.58 31.506 0.422 4.358 2.871 6.354 7.238 10.076 10.18 5.403 4.278 11.3 4.674 16.767 7.957 19.711 11.849 41.042 35.234 46.638 57.634 3.584 14.355 4.724 24.336-2.259 36.007-5.785 9.66-12.959 18.722-21.448 26.237zm56.502 145.68c-13.279 1.811-13.56-10.863-23.746-13.574l1.873 0.472c-8.756-3.603-11.632-21.696-15.757-29.635-5.659-10.882-9.666-23.454-14.652-35.065-7.426-17.3 3.412-33.243 22.846-22.595 13.869 7.607 23.494 24.704 22.91 39.312-0.321 7.918-2.614 21.26 0.856 28.277 3.748 7.59 16.113 8.129 19.028 15.82 3.373 8.896-6.034 15.992-13.358 16.988z"/>
    </g>
    <g id="epidermisatas">
        <path d="m935.26 194.71c-19.554 5.224-22.692 7.075-43.009-2.827-16.122-7.858-35.225-15.736-53.545-12.403-14.819 2.698-24.599 13.443-39.941 13.255-16.985-0.213-31.471-6.971-49.598-5.259-15.707 1.486-30.739 4.863-46.644 3.149-18.063-1.951-37.423-9.65-55.52-4.589-8.364 2.337-13.527 8.318-20.103 13.493-3.778 2.98-8.088 5.178-12.057 7.817-4.333 2.873-7.811 1.382-12.825 0.837-6.803-0.742-16.235-1.643-22.36-5-8.725-4.778-23.039-17.494-32.274-6.961-5.227 5.966-3.678 18.557-0.909 25.237 3.218 7.774 12.576 12.344 17.537 18.88 4.52 5.956 11.27 9.343 18.32 11.368 7.68 2.204 15.632 2.976 23.316 5.245 8.302 2.45 16.771 3.708 24.924 6.792 35.389 13.374 61.834-9.367 92.314-6.649 16.742 1.49 27.643 10.165 46.707 6.753 10.403-1.862 19.885-5.521 29.516-9.729 15.646-6.838 11.199-8.982 24.614-2.005 17.65 9.179 22.613 20.598 45.443 21.484 26.812 1.039 38.298-5.283 60.57-15.711 18.067-8.457 54.655-8.228 62.165-31.496l7.555-28.326c-13.297-6.836-50.574-6.994-64.196-3.355zm-336.24 60.194c-0.565-0.07-1.1-0.148-1.649-0.229 0.544 0.081 1.084 0.16 1.649 0.229zm3.424 0.307c-0.676-0.04-1.344-0.095-2.017-0.163 0.674 0.068 1.341 0.123 2.017 0.163zm1.399 0.035c0.679 0.015 1.361 0 2.035-0.035-0.679 0.035-1.353 0.05-2.035 0.035zm11.329-3.318c-0.544 0.476-1.1 0.936-1.713 1.293 0.613-0.358 1.169-0.822 1.713-1.293zm-2.843 1.822c-0.593 0.272-1.192 0.531-1.832 0.718 0.635-0.188 1.239-0.446 1.832-0.718zm-3.122 1.026c-0.644 0.138-1.293 0.252-1.959 0.321 0.666-0.069 1.315-0.188 1.959-0.321zm6.797-3.545c0.762-0.803 1.451-1.733 2.015-2.857-0.564 1.124-1.253 2.053-2.015 2.857z"/>
        <path d="m503.2 194.76c-5.854-1.331-16.4-0.654-25.976 2.174l-0.574 0.143c-11.285-0.48-17.246-3.104-28.629-5.783-28.886-6.803-55.673-12.636-84.258 0.178-16.592 7.443-21.455 16.519-39.766 14.202-20.191-2.551-35.268-13.311-56.895-9.537-30.669 5.347-47.882-4.481-77.634-15.073-24.792-8.824-40.274 0.188-64.299 5e-3 -21.262-0.158-41.156-15.705-62.417-18.825-25.866-3.804-38.403 7.244-62.214 13.16v66.092c9.1 3.897 13.502 17.122 24.549 23.079 29.717 16.033 46.82-4.952 74.415-8.041 24.108-2.699 39.225 23.553 63.427 24.608 25.777 1.124 47.524-16.221 71.399-17.028 21.122-0.713 37.393 18.973 60.783 17.028 22.528-1.872 36.245-20.455 59.343-13.487 22.336 6.729 35.833 23.568 61.522 18.73 11.58-2.183 21.656-8.437 31.203-15.052 4.799-3.328 9.512-6.783 14.449-9.898 4.005-2.53 9.17-6.392 14.007-6.952 1.872-0.213 3.491 0.475 5.442 0.188 2.144-0.317 4.08-1.575 6.195-2.045 5.263-1.159 10.427 0.43 15.699-1 4.972-1.351 9.566-3.782 14.355-5.64 6.972-2.698 11.086-3.971 13.329-11.75 2.574-8.952 2.175-19.701-0.099-28.679-3.169-12.525-17.622-8.578-27.356-10.797z"/>
    </g>
    <g id="epidermisbawah">
        <path d="m562.89 781.59c-7.695-2.917-12.935-9.634-20.931-12.319-4.456-1.5-8.938-1.074-13.319-2.094-3.63-0.837-5.759-3.708-8.77-5.923-4.946-3.638-10.288-0.901-14.726-4.678-3.901-3.322-0.865-9.949-4.107-13.3-6.002-6.209-15.371-8.086-22.808-10.765-21.974-7.922-48.879-12.216-71.81-6.114-13.517 3.599-19.118 13.008-30.14 18.666-13.131 6.742-22.286 1.144-37.729 2.4-12.062 0.987-18.765 10.369-29.308 13.023-13.134 3.317-9.669-0.145-23.167-3.017-20.153-4.293-38.166 5.132-58.061 6.216-24.603 1.351-44.532-15.676-70.329-11.924-16.399 2.393-12.538 7.086-24.549-4.609-6.081-5.922-9.725-13.746-18.83-18.896-19.256-10.898-38.522-10.032-59.006-1.52-13.384 5.56-18.459 15.206-30.674 22.706-8.576 5.266-14.779 5.655-24.083 5.672v38.159l1.629 10.987s-1.629-0.02-1.629-0.015c22.672 0.337 35.031 6.708 54.757 13.611 22.875 7.99 40.245 3.479 62.373-0.376 19.905-3.472 34.57 8.546 54.609 11.374 21.133 2.978 42.364-4.531 60.05-13.029 13.241 20.624 39.686 13.053 57.115 3.491 10.675-5.856 10.858-6.736 21.157-6.085 12.904 0.816 20.796 6.12 33.709 4.298 23.158-3.268 37.447-8.497 60.309 1.777 25.113 11.29 39.542 0.579 63.992 0.843 21.543 0.228 33.289 8.575 40.563 7.581 3.035 0.688 6.094 1.4 9.026 1.935 2.208 2.271 8.481 2.917 11.879 4.397 4.083 1.787 7.554 3.442 11.907 4.069 9.185 1.333 13.863-0.396 18.761-8.467 4.633-7.64 6.388-16.171 7.238-24.887 0.862-8.782 4.362-19.601-5.098-23.187z"/>
        <path d="m986.24 698.46c-20.144 11.776-46.522-4.515-69.87-5.651-27.613-1.353-52.534 8.457-68.487 31.896-19.747-16.933-51.356-21.522-75.647-12.609-10.137 3.718-17.884 12.53-28.531 14.055-12.783 1.831-27.558-6.738-40.71-6.915-19.087-0.268-33.387 2.965-49.053 13.22-5.709 3.737-10.68 8.447-15.488 13.261-2.392 2.395-4.748 4.832-7.155 7.218-2.673 2.659-5.416 3.449-8.605 4.94-3.574 1.675-5.798 5.488-9.592 6.815-7.099 2.476-16.621-3.022-20.011 5.816-1.328 3.475-1.11 9.473-1.899 13.344-1.152 5.67-2.351 11.348-2.281 17.166 0.069 6.302 3.199 18.752 10.179 21.489 4.621 1.813 6.588-1.881 10.295-3.813 4.507-2.345 9.729-2.856 14.529-4.385 5.351-1.703 8.786-0.364 13.976 1.806 5.556 2.318 11.874 3.561 17.688 5.09 12.23 3.21 25.233 6.423 37.977 5.655 29.304-1.759 49.193-22.944 76.243-28.813 23.262-5.041 51.746 0.917 76.007-1.406 23.866-2.291 43.128 10.612 66.802 9.464 17.74-0.867 33.184-12.111 48.385-13.854 11.259-1.283 26.701 10.458 38.471 6.417v-100.33zm-348.79 110.97c-0.148 0.078-0.287 0.161-0.435 0.24 0.148-0.079 0.287-0.162 0.435-0.24zm-2.665 1.314c-0.151 0.065-0.314 0.13-0.474 0.199 0.16-0.069 0.323-0.133 0.474-0.199zm-2.841 1.114c-0.028 0.011-0.053 0.02-0.078 0.029 0.026-9e-3 0.05-0.018 0.078-0.029zm-3.569-53.355c-0.115-0.109-0.228-0.208-0.342-0.302 0.115 0.094 0.227 0.193 0.342 0.302zm0.992 54.203c-0.176 0.053-0.339 0.104-0.513 0.158 0.169-0.054 0.342-0.109 0.513-0.158zm10.144-4.591c0.015-0.013 0.024-0.025 0.04-0.035-0.016 0.01-0.03 0.023-0.04 0.035zm1.663-1.522c0.095-0.105 0.199-0.21 0.288-0.318-0.089 0.108-0.193 0.212-0.288 0.318zm1.396-2.028c0.056-0.119 0.095-0.242 0.146-0.361-0.051 0.124-0.09 0.242-0.146 0.361z"/>
    </g>
    <g id="penjaga">
        <path d="m533.23 218.15c-0.685-7.041-0.363-16.671-4.753-22.737-1.749-2.416-2.937-4.446-6.341-3.332-5.201 1.703-8.321 7.486-8.802 12.453-0.619 6.447 0.361 14.814 2.069 20.929 0.788 2.797 2.316 5.362 2.912 8.224 0.568 2.733 1.194 4.709 2.788 6.962 1.956 2.773 8.462 6.218 11.809 3.828 3.809-2.723 1.361-9.759 1.019-13.324-0.409-4.328-0.291-8.765-0.701-13.003z"/>
        <path d="m547.56 206.44c1.024 5.506 1.237 10.458 1.816 16.161 0.516 5.12 1.906 9.577 0.639 14.885-1.069 4.48-4.654 9.129-9.564 7.387-5.071-1.802-5.28-8.16-5.953-12.755-0.781-5.352-0.475-10.848-1.267-16.171-0.892-5.981-5.929-25.218 3.168-27.184 8.576-1.851 10.165 12.34 11.161 17.677z"/>
        <path d="m567.4 818.19c-2.02 4.573-6.794 1.237-9.026-1.396-1.4-1.654-2.763-3.377-4.233-5.001-1.5-1.659-2.729-3.546-3.847-5.526-2.59-4.581-2.525-8.481-1.852-13.76 0.826-6.441 2.409-13.862 6.069-19.35 1.996-2.984 6.209-6.714 10.251-6.09 4.555 0.706 3.038 8.575 3.376 11.937 0.426 4.31 1.219 8.277 1.219 12.688 0 8.919 1.718 18.189-1.957 26.498z"/>
        <path d="m587.11 788.36c-0.575-5.565-1.13-11.765-4.223-16.592-2.171-3.378-9.905-8.521-13.372-3.732-1.637 2.262-1.458 6.316-1.478 8.945-0.042 6.142 0.712 12.359 1.792 18.396 0.911 5.146 0.742 10.369 1.005 15.576 0.197 3.902-0.438 12.067 6.174 9.106 5.59-2.5 6.928-9.978 7.933-15.234 1.026-5.372 2.748-10.834 2.169-16.465z"/>
    </g>
    <g id="pembuluh">
        <path d="m170.33 623.59c-25.015 13.918-63.903-17.741-67.626-41.858-2.347-15.211 0.123-33.208 6.814-46.38 3.287-6.468 23.969-36.675 8.941-35.239-0.996-11.8-0.227-21.925 0.961-33.715 1.495-14.73 4.198-15.116 16.973-21.271 12.923-6.224 8.967-8.026 7.858-20.582-1.05-11.899 4.976-20.544 9.958-30.858 4.01-8.309 7.279-20.825 18.325-22.459 9.105-1.342 23.553 6.878 31.738 9.952 13.433 5.046 12.592 1.094 20.365-8.709 6.249-7.873 16.206-16.028 26.015-16.993 18.796-1.853 47.742 1.887 64.23 11.566 4.659 2.733 17.201 10.358 19.478 15.582 2.605 5.967-3.773 14.093-3.188 22.43 17.716 6.467 38.655 12.879 53.846 25.366 6.363 5.234 17.691 14.122 21.999 21.157 5.447 8.908 3.145 21.386 3.145 31.734 0 11.17-1.93 18.978-4.579 29.416-1.556 6.11-7.032 20.485-3.644 26.321 4.436 7.642 15.205 6.279 17.334 17.791 1.668 9.051-4.368 19.667-5.709 28.281-2.674 17.104-7.07 41.436-18.934 54.586-6.432 7.139-17.123 14.363-26.323 15.557-12.002 1.556-18.196-4.732-28.119-8.932-1.262 25.688-5.783 30.738-31.841 28.138-10.388-1.034-15.627-4.292-24.886 0.277-8.834 4.357-15.974 10.368-26.025 11.057-12.542 0.867-14.765-5.075-21.796-13.571-8.071-9.74-10.656-7.428-23.45-6.789-15.042 0.748-34.621-2.99-44.404-15.803-5.565-7.301-5.962-18.441-0.852-26.051"/>
        <path d="m602.48 465.48c5.724-9.101 5.016-18.255 10.461-27.431 6.186-10.407 16.011-13.497 25.764-18.954 17.127-9.571 25.396-30.06 38.72-44.365 6.056-6.501 15.622-11.804 24.634-14.448 10.037-2.951 16.24 4.872 24.801 3.243 10.621-2.02 16.984-14.166 29.723-14.591 10.606-0.357 24.218 3.852 34.602 6.535 23.891 6.179 24.984 20.821 38.907 37.16 10.874-4.372 20.871-6.58 31.506 0.422 4.358 2.871 6.354 7.238 10.076 10.18 5.403 4.278 11.3 4.674 16.767 7.957 19.711 11.849 41.042 35.234 46.638 57.634 3.584 14.355 4.724 24.336-2.259 36.007-5.783 9.66-12.957 18.722-21.446 26.237-18.357 16.257-40.113 15.067-61.146 22.375-13.193 4.591-5.738 7.551-10.46 17.821-3.511 7.61-15.626 13.893-20.9 20.959-5.49 7.358-11.096 18.098-20.671 21.257-9.703 3.208-16.836-3.064-24.949-5.733-16.871-5.536-32.329 16.457-52.012 5.677-18.977-10.391-29.525-18.18-52.916-18.12-21.063 0.054-32.462-3.649-49.097-15.557-38.414-27.511-40.994-75.713-16.743-114.26z"/>
    </g>
</svg>